<svg width="101" height="98" viewBox="0 0 101 98" fill="none" xmlns="http://www.w3.org/2000/svg">
<path d="M4.82335 4.27575H96.49V93.4426H4.82335V4.27575Z" fill="url(#paint0_radial_203_2040)"/>
<path d="M4.82335 4.27575H96.49V93.4426H4.82335V4.27575ZM0.656738 97.6092H100.657V0.109131H0.656738V97.6092ZM71.4066 47.1092C73.5315 47.1092 74.2816 47.1092 74.4899 47.0258C74.4899 46.7342 74.5732 46.5257 74.5732 46.3174C74.5732 44.0674 73.4899 39.9008 69.1566 39.9008C65.1565 39.9008 63.4484 43.4007 63.0316 47.1092H71.4066ZM62.9484 52.8174C63.0318 58.4425 65.6984 62.2341 72.0317 62.2341C74.4901 62.2341 76.6149 61.901 78.8235 60.9426C79.1151 60.8177 79.3236 60.8593 79.3236 61.2343V66.4426C79.3236 66.8592 79.1986 67.0677 78.907 67.276C76.6986 68.3591 73.9485 68.8592 70.5319 68.8592C59.5321 68.8592 55.4069 60.7343 55.4069 51.6927C55.4069 41.8594 60.4904 33.8178 69.4487 33.8178C78.532 33.8178 81.6988 41.4428 81.6988 47.6511C81.6988 49.6512 81.5738 51.2761 81.3655 52.0678C81.2822 52.4011 81.1572 52.5263 80.8237 52.6096C79.9903 52.7346 77.532 52.9011 73.8653 52.9011H62.9484V52.8174ZM40.6152 48.5675C39.4486 43.9424 36.6151 33.8591 35.5734 28.9841H35.4901C34.6152 33.8591 32.3233 42.109 30.6151 48.5675H40.6152ZM28.9066 55.3176L25.6151 67.7759C25.5318 68.109 25.4068 68.2342 24.99 68.2342H18.865C18.4484 68.2342 18.3649 68.1092 18.4484 67.6092L30.2816 26.2341C30.4899 25.4842 30.6149 24.9008 30.6982 22.8176C30.6982 22.526 30.8232 22.401 31.0315 22.401H39.7815C40.0731 22.401 40.1981 22.4843 40.2816 22.8176L53.5315 67.6926C53.6148 68.0257 53.5315 68.2342 53.1982 68.2342H46.3233C45.99 68.2342 45.7815 68.1092 45.6982 67.8177L42.2815 55.3177L28.9066 55.3176Z" fill="#D8A1FF"/>
<defs>
<radialGradient id="paint0_radial_203_2040" cx="0" cy="0" r="1" gradientUnits="userSpaceOnUse" gradientTransform="translate(33.5919 21.959) scale(75.9999 73.7538)">
<stop stop-color="#442F55" stop-opacity="0.98"/>
<stop offset="1" stop-color="#12002C"/>
</radialGradient>
</defs>
</svg>
