<svg width="101" height="85" viewBox="0 0 101 85" fill="none" xmlns="http://www.w3.org/2000/svg">
<path d="M45.5376 1.48118L8.25456 16.9082C6.18127 17.7662 6.20275 20.7117 8.28904 21.5386L45.7275 36.3851C49.0169 37.6897 52.6802 37.6897 55.9696 36.3851L93.4086 21.538C95.4943 20.7117 95.5169 17.7668 93.4425 16.9087L56.1606 1.48061C52.7593 0.0731434 48.9389 0.0737085 45.5376 1.48118Z" fill="#FCB400"/>
<path d="M54.1704 44.4919V81.581C54.1704 83.3445 55.9492 84.553 57.589 83.903L99.3069 67.7101C99.7721 67.5257 100.171 67.2057 100.452 66.7916C100.734 66.3776 100.884 65.8886 100.884 65.3881V28.2995C100.884 26.5354 99.1051 25.3275 97.4653 25.9775L55.7475 42.1704C55.2823 42.355 54.8832 42.675 54.602 43.089C54.3209 43.5031 54.1705 43.9914 54.1704 44.4919Z" fill="#18BFFF"/>
<path d="M44.4286 46.4056L32.0476 52.3835L30.7905 52.9912L4.65511 65.514C2.99897 66.3132 0.88385 65.1059 0.88385 63.2655V28.4548C0.88385 27.789 1.22525 27.2141 1.68309 26.7817C1.87092 26.5947 2.08401 26.4349 2.31616 26.3069C2.94018 25.9322 3.83099 25.8321 4.58841 26.1317L44.2206 41.8351C46.2351 42.6343 46.3933 45.4566 44.4286 46.4056Z" fill="#F82B60"/>
<path d="M44.4286 46.4056L32.0476 52.3835L1.68309 26.7817C1.87092 26.5947 2.08401 26.4349 2.31616 26.3069C2.94018 25.9322 3.83099 25.8321 4.58841 26.1317L44.2206 41.8351C46.2351 42.6343 46.3933 45.4566 44.4286 46.4056Z" fill="black" fill-opacity="0.25"/>
</svg>
