<svg width="91" height="101" viewBox="0 0 91 101" fill="none" xmlns="http://www.w3.org/2000/svg">
<path d="M90.5653 88.0354C90.6024 94.9012 85.0654 100.492 78.2038 100.529C77.6937 100.533 77.1795 100.504 76.6735 100.442C70.3055 99.5003 65.6406 93.9591 65.7969 87.5253V13.5526C65.6447 7.11051 70.322 1.56935 76.694 0.635538C83.5104 -0.162521 89.685 4.71634 90.4831 11.5328C90.5407 12.0346 90.5695 12.5365 90.5653 13.0425V88.0354Z" fill="#F9AB00"/>
<path d="M12.6191 75.7763C19.4602 75.7763 25.0054 81.3216 25.0054 88.1627C25.0054 95.0038 19.4602 100.549 12.6191 100.549C5.778 100.549 0.232727 95.0038 0.232727 88.1627C0.232727 81.3216 5.778 75.7763 12.6191 75.7763ZM45.2078 38.2387C38.3338 38.6172 33.0025 44.3805 33.1629 51.2627V84.5303C33.1629 93.5599 37.1368 99.0393 42.9576 100.208C49.6753 101.569 56.2202 97.2293 57.5819 90.5116C57.7505 89.6889 57.8328 88.8538 57.8287 88.0146V50.6868C57.841 43.821 52.2875 38.247 45.4218 38.2346C45.3518 38.2346 45.2778 38.2346 45.2078 38.2387Z" fill="#E37400"/>
</svg>
