<svg width="101" height="101" viewBox="0 0 101 101" fill="none" xmlns="http://www.w3.org/2000/svg">
<path d="M30.1586 46.961C29.6997 46.3619 29.0222 45.969 28.2744 45.8682C27.5265 45.7675 26.7692 45.9671 26.1682 46.4234C25.8146 46.7023 25.5293 47.0582 25.3342 47.4641L0.833619 96.4792C0.486606 97.1738 0.429608 97.9778 0.675153 98.7144C0.920698 99.4511 1.44869 100.06 2.14308 100.408C2.54896 100.613 2.99768 100.719 3.45253 100.718H37.588C38.1347 100.732 38.6737 100.586 39.1389 100.298C39.604 100.011 39.9752 99.5935 40.2069 99.0981C47.5743 83.8808 43.1084 60.7447 30.1586 46.961Z" fill="url(#paint0_linear_203_184)"/>
<path d="M48.1671 2.35659C42.0593 11.7554 38.4998 22.5805 37.8377 33.77C37.1755 44.9594 39.4336 56.1288 44.3903 66.1824L60.8482 99.098C61.0913 99.5845 61.4651 99.9937 61.9276 100.28C62.3902 100.566 62.9232 100.717 63.4671 100.718H97.5958C97.9807 100.719 98.362 100.643 98.7178 100.496C99.0735 100.35 99.3968 100.134 99.669 99.8617C99.9411 99.5896 100.157 99.2663 100.304 98.9105C100.451 98.5547 100.526 98.1734 100.525 97.7885C100.525 97.3346 100.421 96.8867 100.222 96.4791L53.1499 2.34281C52.9265 1.8711 52.5738 1.47252 52.1327 1.1934C51.6917 0.914287 51.1805 0.766113 50.6585 0.766113C50.1366 0.766113 49.6253 0.914287 49.1843 1.1934C48.7433 1.47252 48.3905 1.8711 48.1671 2.34281V2.35659Z" fill="#2684FF"/>
<defs>
<linearGradient id="paint0_linear_203_184" x1="100.271" y1="16.4482" x2="59.2701" y2="106.636" gradientUnits="userSpaceOnUse">
<stop stop-color="#0052CC"/>
<stop offset="0.92" stop-color="#2684FF"/>
</linearGradient>
</defs>
</svg>
