<svg width="101" height="61" viewBox="0 0 101 61" fill="none" xmlns="http://www.w3.org/2000/svg">
<path d="M28.8377 21.9457C28.8377 23.1762 28.9708 24.174 29.2036 24.9057C29.4697 25.6374 29.8022 26.4356 30.2679 27.3004C30.4342 27.5664 30.5007 27.8325 30.5007 28.0653C30.5007 28.3979 30.3011 28.7305 29.8688 29.0631L27.7734 30.46C27.4741 30.6595 27.1748 30.7593 26.9087 30.7593C26.5761 30.7593 26.2435 30.593 25.9109 30.2937C25.4453 29.7948 25.0462 29.2626 24.7136 28.7305C24.381 28.1651 24.0484 27.5332 23.6826 26.7682C21.0884 29.828 17.829 31.3579 13.9045 31.3579C11.1107 31.3579 8.88235 30.5597 7.25266 28.9633C5.62297 27.3669 4.7915 25.2383 4.7915 22.5776C4.7915 19.7506 5.78927 17.4557 7.81806 15.7262C9.84686 13.9968 12.5408 13.132 15.9665 13.132C17.0973 13.132 18.2614 13.2318 19.492 13.3981C20.7225 13.5644 21.9864 13.8305 23.3167 14.1298V11.7019C23.3167 9.17421 22.7846 7.41148 21.7536 6.38045C20.6893 5.34942 18.8933 4.85054 16.3324 4.85054C15.1683 4.85054 13.971 4.98357 12.7404 5.2829C11.5098 5.58223 10.3125 5.94808 9.14842 6.41371C8.61628 6.64652 8.21717 6.77956 7.98436 6.84608C7.75154 6.91259 7.58525 6.94585 7.45221 6.94585C6.98659 6.94585 6.75378 6.61326 6.75378 5.91483V4.28513C6.75378 3.75299 6.82029 3.35388 6.98659 3.12107C7.15288 2.88826 7.45221 2.65544 7.91784 2.42263C9.0819 1.82397 10.4788 1.32509 12.1085 0.925978C13.7382 0.493611 15.4676 0.294057 17.2969 0.294057C21.2547 0.294057 24.1482 1.19205 26.0107 2.98803C27.84 4.78402 28.7712 7.51126 28.7712 11.1697V21.9457H28.8377ZM15.3346 27.001C16.4321 27.001 17.5629 26.8015 18.7603 26.4024C19.9576 26.0033 21.0219 25.2716 21.9199 24.2738C22.452 23.6419 22.8511 22.9434 23.0507 22.1452C23.2502 21.347 23.3833 20.3825 23.3833 19.2517V17.8548C22.4188 17.622 21.3877 17.4224 20.3234 17.2894C19.2591 17.1564 18.2281 17.0898 17.1971 17.0898C14.9687 17.0898 13.3391 17.5222 12.2415 18.4202C11.144 19.3182 10.6118 20.582 10.6118 22.245C10.6118 23.8082 11.0109 24.9722 11.8424 25.7704C12.6406 26.6019 13.8047 27.001 15.3346 27.001ZM42.0415 30.593C41.4429 30.593 41.0438 30.4932 40.7777 30.2604C40.5116 30.0608 40.2788 29.5952 40.0793 28.9633L32.2634 3.25411C32.0639 2.58893 31.9641 2.15656 31.9641 1.92375C31.9641 1.3916 32.2302 1.09227 32.7623 1.09227H36.0217C36.6536 1.09227 37.086 1.19205 37.3188 1.42486C37.5848 1.62442 37.7844 2.09004 37.984 2.72196L43.5715 24.7394L48.7599 2.72196C48.9262 2.05678 49.1257 1.62442 49.3918 1.42486C49.6578 1.22531 50.1235 1.09227 50.7221 1.09227H53.3829C54.0148 1.09227 54.4471 1.19205 54.7132 1.42486C54.9793 1.62442 55.2121 2.09004 55.3451 2.72196L60.6001 25.0055L66.3539 2.72196C66.5534 2.05678 66.7862 1.62442 67.019 1.42486C67.2851 1.22531 67.7175 1.09227 68.3161 1.09227H71.4092C71.9414 1.09227 72.2407 1.35834 72.2407 1.92375C72.2407 2.09004 72.2074 2.25634 72.1742 2.45589C72.1409 2.65545 72.0744 2.92152 71.9414 3.28737L63.9259 28.9966C63.7264 29.6617 63.4936 30.0941 63.2275 30.2937C62.9614 30.4932 62.5291 30.6263 61.9637 30.6263H59.1034C58.4715 30.6263 58.0391 30.5265 57.773 30.2937C57.507 30.0608 57.2742 29.6285 57.1411 28.9633L51.986 7.51126L46.8641 28.93C46.6978 29.5952 46.4982 30.0276 46.2322 30.2604C45.9661 30.4932 45.5005 30.593 44.9018 30.593H42.0415ZM84.7793 31.491C83.0499 31.491 81.3204 31.2914 79.6574 30.8923C77.9945 30.4932 76.6974 30.0608 75.8327 29.562C75.3005 29.2626 74.9347 28.93 74.8016 28.6307C74.6686 28.3314 74.6021 27.9988 74.6021 27.6995V26.0033C74.6021 25.3048 74.8682 24.9722 75.367 24.9722C75.5666 24.9722 75.7661 25.0055 75.9657 25.072C76.1653 25.1385 76.4646 25.2716 76.7972 25.4046C77.928 25.9035 79.1586 26.3026 80.4557 26.5687C81.786 26.8347 83.0831 26.9678 84.4135 26.9678C86.5088 26.9678 88.1385 26.6019 89.2693 25.8702C90.4001 25.1385 90.9987 24.0742 90.9987 22.7106C90.9987 21.7794 90.6994 21.0144 90.1008 20.3825C89.5021 19.7506 88.3713 19.1852 86.7416 18.653L81.9191 17.1564C79.4911 16.3914 77.6952 15.2606 76.5976 13.7639C75.5001 12.3006 74.9347 10.6709 74.9347 8.94139C74.9347 7.54451 75.234 6.31393 75.8327 5.24965C76.4313 4.18536 77.2295 3.25411 78.2273 2.52241C79.2251 1.75745 80.3559 1.19205 81.6862 0.792942C83.0166 0.393834 84.4135 0.227539 85.8769 0.227539C86.6086 0.227539 87.3735 0.260798 88.1052 0.360575C88.8702 0.460352 89.5686 0.593388 90.2671 0.726424C90.9322 0.892719 91.5642 1.05901 92.1628 1.25857C92.7615 1.45812 93.2271 1.65768 93.5597 1.85723C94.0253 2.1233 94.3579 2.38937 94.5575 2.6887C94.757 2.95478 94.8568 3.32062 94.8568 3.78625V5.34942C94.8568 6.04786 94.5907 6.41371 94.0918 6.41371C93.8258 6.41371 93.3934 6.28067 92.828 6.0146C90.9322 5.14987 88.8037 4.7175 86.4423 4.7175C84.5465 4.7175 83.0499 5.01683 82.0188 5.64875C80.9878 6.28067 80.4557 7.24518 80.4557 8.6088C80.4557 9.54005 80.7883 10.3383 81.4534 10.9702C82.1186 11.6021 83.3492 12.234 85.1119 12.7994L89.8347 14.2961C92.2293 15.061 93.9588 16.1253 94.9898 17.489C96.0209 18.8526 96.5197 20.4157 96.5197 22.1452C96.5197 23.5753 96.2204 24.8724 95.655 26.0033C95.0563 27.1341 94.2581 28.1318 93.2271 28.93C92.1961 29.7615 90.9655 30.3602 89.5354 30.7925C88.0387 31.2582 86.4755 31.491 84.7793 31.491Z" fill="#252F3E"/>
<path fill-rule="evenodd" clip-rule="evenodd" d="M91.0652 47.6548C80.123 55.7367 64.2252 60.0271 50.5558 60.0271C31.3986 60.0271 14.1373 52.943 1.09975 41.1693C0.0687182 40.238 0.999969 38.9742 2.23055 39.7059C16.3323 47.8876 33.7268 52.8432 51.7199 52.8432C63.8594 52.8432 77.1962 50.3155 89.4688 45.1271C91.298 44.2956 92.8612 46.3244 91.0652 47.6548Z" fill="#FF9900"/>
<path fill-rule="evenodd" clip-rule="evenodd" d="M95.6217 42.4664C94.2249 40.6704 86.3758 41.6016 82.8171 42.034C81.7528 42.167 81.5865 41.2358 82.551 40.5373C88.8037 36.1472 99.0806 37.411 100.278 38.8744C101.475 40.3711 99.9453 50.6481 94.0918 55.5704C93.1938 56.3354 92.3291 55.9363 92.7282 54.9385C94.0586 51.6458 97.0186 44.2291 95.6217 42.4664Z" fill="#FF9900"/>
</svg>
