<svg width="101" height="95" viewBox="0 0 101 95" fill="none" xmlns="http://www.w3.org/2000/svg">
<path d="M33.547 0.476133H63.1377L32.4194 91.5445C32.2623 92.0096 32.0337 92.4474 31.7419 92.8421C31.4506 93.2371 31.0993 93.5834 30.7005 93.8696C30.3018 94.1559 29.8617 94.3784 29.3942 94.5284C28.9267 94.6785 28.4391 94.756 27.9491 94.756H4.92008C4.17253 94.756 3.43498 94.5784 2.76994 94.2359C2.10419 93.8944 1.5295 93.399 1.09358 92.7908C0.657371 92.1827 0.372005 91.4796 0.261024 90.7394C0.149766 89.9994 0.217271 89.2431 0.456037 88.5343L29.0754 3.68509C29.2317 3.22006 29.4605 2.78253 29.753 2.38751C30.0442 1.99248 30.3968 1.64621 30.7943 1.35994C31.1931 1.07367 31.6331 0.851157 32.1006 0.701147C32.5682 0.551138 33.0557 0.473633 33.5457 0.473633V0.474883L33.547 0.476133Z" fill="url(#paint0_linear_203_2083)"/>
<path d="M88.0955 94.756H61.525C61.2287 94.756 60.9325 94.7285 60.6399 94.6723C60.3487 94.6173 60.0624 94.5348 59.7861 94.426C59.5099 94.3172 59.2448 94.1822 58.9936 94.0247C58.7426 93.8662 58.507 93.6845 58.2898 93.4822L28.1378 65.3229C27.8189 65.0251 27.5968 64.6383 27.5003 64.2128C27.4039 63.7872 27.4378 63.3425 27.5976 62.9365C27.7575 62.5305 28.0359 62.182 28.3966 61.9364C28.7579 61.6914 29.1841 61.5601 29.6204 61.5601H76.5435L88.093 94.7573L88.0955 94.756Z" fill="#0078D4"/>
<path d="M63.2439 0.476133L42.53 61.5664L76.3747 61.5589L87.9843 94.7561H61.5138C61.24 94.7536 60.9662 94.7286 60.6962 94.6799C60.4262 94.6311 60.1612 94.5599 59.9037 94.4649C59.3873 94.2767 58.907 94.0014 58.4836 93.651L38.1297 74.6548L32.4319 91.4584C32.2844 91.8784 32.0818 92.2772 31.8293 92.6435C31.3232 93.3803 30.6309 93.9699 29.8229 94.3523C29.4207 94.5426 28.9948 94.6784 28.5566 94.7561H4.93382C4.17877 94.7586 3.43372 94.5786 2.76242 94.2311C2.09103 93.8839 1.5131 93.3801 1.07749 92.7624C0.641884 92.1446 0.361404 91.4311 0.25976 90.6821C0.158485 89.9328 0.238655 89.1701 0.493526 88.4582L29.0666 3.74885C29.2154 3.27507 29.4392 2.82879 29.7292 2.42626C30.018 2.02374 30.3705 1.66871 30.7705 1.37619C31.1705 1.08367 31.6156 0.856158 32.0868 0.703648C32.5581 0.551138 33.0519 0.473633 33.5482 0.476133H63.2451H63.2439Z" fill="url(#paint1_linear_203_2083)"/>
<path d="M99.9613 88.5345C100.2 89.2436 100.267 89.9994 100.158 90.7396C100.046 91.4795 99.7616 92.1825 99.3263 92.791C98.8902 93.3988 98.3158 93.894 97.6504 94.2357C96.985 94.5774 96.2478 94.7558 95.4998 94.7561H62.5201C63.2676 94.7561 64.0052 94.5774 64.6714 94.2361C65.3365 93.8948 65.9115 93.3985 66.3478 92.791C66.7841 92.1835 67.0691 91.4797 67.1804 90.7396C67.2916 89.9996 67.2241 89.2433 66.9854 88.5345L38.3647 3.6826C38.0496 2.74789 37.4493 1.93555 36.6483 1.35995C36.2508 1.07368 35.8108 0.852413 35.3445 0.702403C34.8782 0.552393 34.3907 0.476138 33.9019 0.476138H66.8803C67.3704 0.476138 67.8567 0.552393 68.3242 0.702403C68.7905 0.852413 69.2305 1.07493 69.6293 1.35995C70.0268 1.64622 70.3781 1.99249 70.6693 2.38626C70.9606 2.78004 71.1881 3.21757 71.3456 3.6826L99.9663 88.5345H99.9613Z" fill="url(#paint2_linear_203_2083)"/>
<defs>
<linearGradient id="paint0_linear_203_2083" x1="70.3478" y1="7.46418" x2="49.7141" y2="104.323" gradientUnits="userSpaceOnUse">
<stop stop-color="#114A8B"/>
<stop offset="1" stop-color="#0669BC"/>
</linearGradient>
<linearGradient id="paint1_linear_203_2083" x1="61.4133" y1="49.7913" x2="53.5507" y2="52.8298" gradientUnits="userSpaceOnUse">
<stop stop-opacity="0.3"/>
<stop offset="0.1" stop-opacity="0.2"/>
<stop offset="0.3" stop-opacity="0.1"/>
<stop offset="0.6" stop-opacity="0.1"/>
<stop offset="1" stop-opacity="0"/>
</linearGradient>
<linearGradient id="paint2_linear_203_2083" x1="50.0092" y1="4.81386" x2="83.7615" y2="94.7323" gradientUnits="userSpaceOnUse">
<stop stop-color="#3CCBF4"/>
<stop offset="1" stop-color="#2892DF"/>
</linearGradient>
</defs>
</svg>
