<svg width="89" height="101" viewBox="0 0 89 101" fill="none" xmlns="http://www.w3.org/2000/svg">
<path d="M88.3784 0.913574L80.3455 90.9031L44.237 100.914L8.22794 90.9172L0.203491 0.913574H88.3784Z" fill="#264DE4"/>
<path d="M73.4684 85.1729L80.3331 8.27271H44.291V93.262L73.4684 85.1729Z" fill="#2965F1"/>
<path d="M18.5994 41.6538L19.5888 52.6923H44.291V41.6538H18.5994Z" fill="#EBEBEB"/>
<path d="M44.291 19.3113H44.2528H16.6115L17.6149 30.35H44.291V19.3113Z" fill="#EBEBEB"/>
<path d="M44.2909 81.8066V70.3219L44.2426 70.3348L31.9488 67.0152L31.1629 58.2114H20.0819L21.6284 75.5436L44.2401 81.8207L44.2909 81.8066Z" fill="#EBEBEB"/>
<path d="M57.8456 52.6921L56.5643 67.0083L44.2528 70.3313V81.8155L66.8825 75.5437L69.6425 44.6178L69.9118 41.6536L71.9046 19.3113H44.2528L44.2528 30.35H59.8073L58.8029 41.6536H44.2528V52.6921H57.8456Z" fill="white"/>
</svg>
