<svg width="101" height="72" viewBox="0 0 101 72" fill="none" xmlns="http://www.w3.org/2000/svg">
<path d="M99.2465 27.3033C98.9753 27.0879 96.4434 25.1762 91.1041 25.1762C89.6942 25.1824 88.2873 25.3033 86.897 25.5378C85.8636 18.4547 80.0076 15.0013 79.745 14.8464L78.3112 14.0195L77.3683 15.3803C76.1874 17.2082 75.3253 19.2232 74.8192 21.3396C73.8632 25.3829 74.4446 29.1806 76.4985 32.4273C74.0183 33.8094 70.0396 34.1497 69.2345 34.1797H3.36299C1.64245 34.1821 0.246305 35.5725 0.236928 37.2929C0.160095 43.0636 1.13779 48.7999 3.12186 54.2193C5.39101 60.1701 8.76688 64.5535 13.1589 67.2361C18.0805 70.2502 26.0766 71.9725 35.1404 71.9725C39.2351 71.9854 43.3221 71.6148 47.3477 70.866C52.9438 69.8384 58.3286 67.8825 63.2795 65.0787C67.3589 62.7164 71.0303 59.7111 74.1519 56.1785C79.3707 50.2708 82.4796 43.6913 84.7918 37.8441H85.7132C91.4271 37.8441 94.9408 35.5576 96.8784 33.6415C98.1661 32.4195 99.1713 30.9308 99.8236 29.2797L100.233 28.0827L99.2465 27.3033Z" fill="#2496ED"/>
<path d="M9.4687 32.2508H18.2958C18.7215 32.2508 19.0665 31.9057 19.0665 31.4801V23.6174C19.0689 23.1917 18.7257 22.8448 18.3001 22.8424C18.2987 22.8424 18.2972 22.8424 18.2958 22.8424H9.4687C9.04298 22.8424 8.698 23.1875 8.698 23.6131V31.48C8.698 31.9057 9.04298 32.2508 9.4687 32.2508Z" fill="#2496ED"/>
<path d="M21.6329 32.2508H30.46C30.8857 32.2508 31.2307 31.9057 31.2307 31.4801V23.6174C31.2331 23.1917 30.8899 22.8448 30.4642 22.8424C30.4628 22.8424 30.4612 22.8424 30.4598 22.8424H21.6328C21.2047 22.8424 20.8577 23.1893 20.8577 23.6174V31.48C20.8602 31.9064 21.2065 32.2508 21.6329 32.2508Z" fill="#2496ED"/>
<path d="M33.9821 32.2508H42.8092C43.2349 32.2508 43.5799 31.9057 43.5799 31.4801V23.6174C43.5822 23.1917 43.2391 22.8448 42.8134 22.8424C42.812 22.8424 42.8104 22.8424 42.809 22.8424H33.9819C33.5562 22.8424 33.2112 23.1875 33.2112 23.6131V31.48C33.2114 31.9057 33.5565 32.2508 33.9821 32.2508Z" fill="#2496ED"/>
<path d="M46.185 32.2508H55.0121C55.4385 32.2508 55.7847 31.9065 55.7871 31.4801V23.6174C55.7871 23.1893 55.4402 22.8424 55.0121 22.8424H46.185C45.7593 22.8424 45.4143 23.1875 45.4143 23.6131V31.48C45.4143 31.9057 45.7594 32.2508 46.185 32.2508Z" fill="#2496ED"/>
<path d="M21.6329 20.9393H30.46C30.8862 20.9369 31.2307 20.5905 31.2307 20.1642V12.3017C31.2307 11.876 30.8855 11.531 30.46 11.531H21.6329C21.2066 11.531 20.8602 11.8753 20.8578 12.3017V20.1642C20.8602 20.5914 21.2058 20.9369 21.6329 20.9393Z" fill="#2496ED"/>
<path d="M33.9821 20.9393H42.8091C43.2354 20.9369 43.5798 20.5905 43.5798 20.1642V12.3017C43.5798 11.876 43.2347 11.531 42.8091 11.531H33.9821C33.5563 11.531 33.2114 11.8761 33.2114 12.3017V20.1642C33.2114 20.5905 33.5558 20.9369 33.9821 20.9393Z" fill="#2496ED"/>
<path d="M46.185 20.9393H55.0121C55.4392 20.9369 55.7847 20.5914 55.7871 20.1642V12.3017C55.7847 11.8753 55.4385 11.531 55.0121 11.531H46.185C45.7593 11.531 45.4143 11.8761 45.4143 12.3017V20.1642C45.4143 20.5905 45.7587 20.9369 46.185 20.9393Z" fill="#2496ED"/>
<path d="M46.185 9.6235H55.0121C55.4385 9.6235 55.7847 9.27909 55.7871 8.8528V0.985792C55.7847 0.559365 55.4385 0.215088 55.0121 0.215088H46.185C45.7593 0.215088 45.4143 0.560065 45.4143 0.985792V8.85266C45.4143 9.27839 45.7594 9.6235 46.185 9.6235Z" fill="#2496ED"/>
<path d="M58.4956 32.2508H67.3226C67.7491 32.2508 68.0953 31.9065 68.0977 31.4801V23.6174C68.0977 23.1893 67.7507 22.8424 67.3226 22.8424H58.4956C58.07 22.8424 57.7249 23.1875 57.7249 23.6131V31.48C57.7249 31.9057 58.07 32.2508 58.4956 32.2508Z" fill="#2496ED"/>
</svg>
