<svg width="68" height="101" viewBox="0 0 68 101" fill="none" xmlns="http://www.w3.org/2000/svg">
<path d="M17.4377 100.068C26.6377 100.068 34.1044 92.601 34.1044 83.401V66.7344H17.4377C8.23774 66.7344 0.771072 74.201 0.771072 83.401C0.771072 92.601 8.23774 100.068 17.4377 100.068Z" fill="#0ACF83"/>
<path d="M0.771072 50.068C0.771072 40.868 8.23774 33.4014 17.4377 33.4014H34.1044V66.7346H17.4377C8.23774 66.7346 0.771072 59.268 0.771072 50.068Z" fill="#A259FF"/>
<path d="M0.771072 16.7345C0.771072 7.53453 8.23774 0.0678711 17.4377 0.0678711H34.1044V33.4012H17.4377C8.23774 33.4012 0.771072 25.9345 0.771072 16.7345Z" fill="#F24E1E"/>
<path d="M34.1044 0.0678711H50.7711C59.9711 0.0678711 67.4378 7.53453 67.4378 16.7345C67.4378 25.9345 59.9711 33.4012 50.7711 33.4012H34.1044V0.0678711Z" fill="#FF7262"/>
<path d="M67.4378 50.068C67.4378 59.268 59.9711 66.7346 50.7711 66.7346C41.5711 66.7346 34.1044 59.268 34.1044 50.068C34.1044 40.868 41.5711 33.4014 50.7711 33.4014C59.9711 33.4014 67.4378 40.868 67.4378 50.068Z" fill="#1ABCFE"/>
</svg>
