<svg width="73" height="101" viewBox="0 0 73 101" fill="none" xmlns="http://www.w3.org/2000/svg">
<path d="M47.5772 37.037L37.5764 46.3487L28.2932 27.6159L33.0888 16.8449C34.3009 14.6964 36.2833 14.668 37.4954 16.8449L47.5772 37.037Z" fill="#FFA000"/>
<path d="M37.5806 46.3447L0.171753 81.1387L28.2973 27.6159L37.5806 46.3447Z" fill="#F57F17"/>
<path d="M58.5429 22.7959C60.3347 21.0893 62.1792 21.6649 62.6454 24.0891L72.3706 80.6685L40.1142 100.034C38.9832 100.666 35.9833 100.913 35.9833 100.913C35.9833 100.913 33.2551 100.581 32.2092 100.005L0.171753 81.1387L58.5429 22.7959Z" fill="#FFCA28"/>
<path d="M28.2973 27.6159L0.171753 81.1387L12.7062 2.90782C13.1765 0.483632 14.5507 0.236348 15.7912 2.38488L28.2973 27.6159Z" fill="#FFA000"/>
</svg>
