<svg width="101" height="101" viewBox="0 0 101 101" fill="none" xmlns="http://www.w3.org/2000/svg">
<path d="M98.8232 45.6655L55.1622 2.00693C52.6493 -0.507519 48.5712 -0.507519 46.0552 2.00693L36.9888 11.0733L48.49 22.5745C51.1626 21.6714 54.2275 22.2772 56.3579 24.4077C58.4986 26.5519 59.1001 29.6429 58.1751 32.3241L69.2591 43.4085C71.9407 42.4847 75.0349 43.0823 77.1767 45.2276C80.17 48.2198 80.17 53.0694 77.1767 56.0636C74.1825 59.0581 69.3329 59.0581 66.3372 56.0636C64.0857 53.8097 63.5294 50.503 64.6693 47.7292L54.3325 37.3925L54.3314 64.5944C55.0807 64.9649 55.7651 65.4543 56.3579 66.0437C59.3513 69.0358 59.3513 73.8858 56.3579 76.8823C53.3638 79.8753 48.5118 79.8753 45.522 76.8823C42.5286 73.8858 42.5286 69.0362 45.522 66.044C46.2393 65.3263 47.0918 64.758 48.0302 64.3718V36.9163C47.0905 36.5327 46.2375 35.964 45.522 35.244C43.254 32.9792 42.7087 29.6515 43.8708 26.8667L32.5333 15.528L2.59583 45.4636C0.0802003 47.9804 0.0802003 52.0589 2.59583 54.5737L46.2575 98.2331C48.7712 100.748 52.8486 100.748 55.3654 98.2331L98.8228 54.7765C101.338 52.2608 101.338 48.18 98.8232 45.6655Z" fill="#DE4C36"/>
</svg>
