<svg width="126" height="101" viewBox="0 0 126 101" fill="none" xmlns="http://www.w3.org/2000/svg">
<path d="M79.6898 27.6961H83.4816L94.2843 16.8935L94.8156 12.3099C74.7155 -5.4306 44.0316 -3.51904 26.2911 16.581C21.3586 22.1646 17.7802 28.8056 15.8322 35.9935C17.0354 35.4986 18.3688 35.4205 19.6241 35.7643L41.2242 32.2016C41.2242 32.2016 42.3232 30.3838 42.8909 30.4984C52.5008 19.9457 68.6735 18.7165 79.7679 27.6961H79.6898Z" fill="#EA4335"/>
<path d="M109.67 35.9934C107.186 26.8523 102.092 18.6331 95.003 12.3464L79.846 27.5034C86.2473 32.7328 89.8933 40.6135 89.7371 48.8795V51.5724C97.1906 51.5724 103.227 57.6144 103.227 65.0627C103.227 72.5162 97.1854 78.5529 89.7371 78.5529H62.7514L60.0585 81.2823V97.4654L62.7514 100.158H89.7371C105.207 100.278 118.931 90.2515 123.525 75.4799C128.109 60.7031 122.484 44.6606 109.67 35.9934Z" fill="#4285F4"/>
<path d="M35.7291 100.007H62.7149V78.4071H35.7291C33.8071 78.4071 31.906 77.9956 30.1559 77.1935L26.364 78.3654L15.4885 89.168L14.5405 92.9599C20.6398 97.5643 28.0829 100.038 35.7291 100.007Z" fill="#34A853"/>
<path d="M35.7291 29.9306C20.7387 30.0192 7.46201 39.6186 2.6805 53.8225C-2.101 68.0263 2.66488 83.7042 14.5457 92.8401L30.1976 77.1883C23.4055 74.1204 20.3898 66.1304 23.4576 59.3384C26.5255 52.5464 34.5155 49.5306 41.3075 52.5985C44.2973 53.9527 46.6932 56.3487 48.0475 59.3384L63.6993 43.6866C57.0375 34.983 46.688 29.8942 35.7291 29.9306Z" fill="#FBBC05"/>
</svg>
