<svg width="90" height="101" viewBox="0 0 90 101" fill="none" xmlns="http://www.w3.org/2000/svg">
<path fill-rule="evenodd" clip-rule="evenodd" d="M53.3608 11.605L73.8956 23.4614C74.4884 22.8342 75.1688 22.2958 75.9155 21.863C80.1741 19.4146 85.6062 20.8683 88.0799 25.1272C90.5283 29.3862 89.0746 34.8179 84.8157 37.2917C84.0745 37.7185 83.2757 38.0365 82.444 38.236V61.9576C83.2667 62.1574 84.0567 62.4733 84.7903 62.8957C89.0746 65.3694 90.5283 70.8015 88.0546 75.0604C85.6062 79.319 80.1488 80.7727 75.8898 78.3247C75.0647 77.8513 74.3215 77.2479 73.6887 76.5377L53.2789 88.3213C53.5778 89.2263 53.7296 90.1734 53.7285 91.1265C53.7285 96.0229 49.7504 100.027 44.8284 100.027C39.9063 100.027 35.9282 96.0483 35.9282 91.1265C35.9282 90.2516 36.0539 89.4066 36.2883 88.6084L15.7591 76.7554C15.1727 77.3703 14.502 77.8986 13.7669 78.3247C9.48262 80.7727 4.05053 79.319 1.60216 75.0604C-0.845855 70.8015 0.607818 65.3694 4.86642 62.8957C5.60005 62.4732 6.39007 62.1572 7.21271 61.9572V38.236C6.38098 38.0365 5.58227 37.7185 4.84107 37.2917C0.582126 34.8436 -0.871547 29.3862 1.57682 25.1272C4.02518 20.8683 9.48227 19.4146 13.7412 21.863C14.4839 22.2935 15.1609 22.8284 15.7514 23.4514L36.2921 11.5918C36.0499 10.77 35.9274 9.91755 35.9282 9.0608C35.9282 4.13941 39.9063 0.160645 44.8284 0.160645C49.7504 0.160645 53.7285 4.13907 53.7285 9.0608C53.7285 9.94543 53.6001 10.7992 53.3608 11.605ZM51.2215 15.2581L71.8052 27.1423C71.4774 28.2881 71.3834 29.488 71.5288 30.6708C71.6741 31.8536 72.0558 32.9951 72.6513 34.0274C73.9043 36.207 75.9454 37.652 78.2108 38.2152V61.9663C78.0952 61.9944 77.9802 62.0253 77.866 62.0579L50.9823 15.4959C51.0635 15.4181 51.1434 15.3386 51.2215 15.2581ZM38.68 15.5011L11.7966 62.0624C11.6804 62.0288 11.5635 61.9976 11.446 61.9687V38.2152C13.7114 37.652 15.7525 36.207 17.0055 34.0274C17.6021 32.9931 17.9842 31.8492 18.1289 30.664C18.2737 29.4788 18.1782 28.2766 17.8481 27.1291L38.4259 15.2484C38.5089 15.3341 38.5936 15.4188 38.68 15.5011ZM47.3153 17.6103L74.1924 64.1612C73.5768 64.7487 73.0491 65.4218 72.6256 66.16C72.2032 66.8936 71.8873 67.6836 71.6875 68.5062H17.97C17.7699 67.6836 17.4538 66.8936 17.0312 66.16C16.6062 65.4269 16.0795 64.7578 15.4667 64.1726L42.3491 17.6124C43.155 17.8444 43.9897 17.9618 44.8284 17.9609C45.6918 17.9609 46.5261 17.8387 47.3153 17.6103ZM51.4103 85.1306L71.8604 73.3235C71.7991 73.1307 71.7443 72.936 71.6961 72.7395H17.9585C17.93 72.8551 17.8991 72.9697 17.8661 73.0839L38.4162 84.949C39.246 84.0861 40.2419 83.4001 41.3439 82.9322C42.4459 82.4642 43.6312 82.2242 44.8284 82.2264C46.0674 82.2242 47.2932 82.4815 48.4268 82.9817C49.5604 83.4819 50.5767 84.2139 51.4103 85.1306Z" fill="#E535AB"/>
</svg>
