<svg width="101" height="101" viewBox="0 0 101 101" fill="none" xmlns="http://www.w3.org/2000/svg">
<path d="M100.333 0.913574H0.333008V100.914H100.333V0.913574Z" fill="#F7DF1E"/>
<path d="M67.5076 79.039C69.5219 82.3279 72.1425 84.7454 76.7774 84.7454C80.6711 84.7454 83.1584 82.7993 83.1584 80.1104C83.1584 76.8882 80.6028 75.7469 76.3171 73.8723L73.9679 72.8644C67.187 69.9755 62.6822 66.3565 62.6822 58.7057C62.6822 51.658 68.052 46.293 76.4441 46.293C82.4187 46.293 86.7139 48.3723 89.8092 53.8168L82.4917 58.5152C80.8806 55.6263 79.1425 54.4882 76.4441 54.4882C73.6917 54.4882 71.9473 56.2342 71.9473 58.5152C71.9473 61.3342 73.6933 62.4755 77.7251 64.2215L80.0743 65.2279C88.0584 68.6517 92.5663 72.1422 92.5663 79.9898C92.5663 88.4501 85.9203 93.085 76.9949 93.085C68.2679 93.085 62.6298 88.9263 59.8711 83.4755L67.5076 79.039ZM34.3124 79.8533C35.7885 82.4723 37.1314 84.6866 40.36 84.6866C43.4473 84.6866 45.3949 83.4787 45.3949 78.7819V46.8295H54.7917V78.9088C54.7917 88.639 49.087 93.0676 40.76 93.0676C33.2362 93.0676 28.879 89.1739 26.6631 84.4842L34.3124 79.8533Z" fill="black"/>
</svg>
