<svg width="92" height="101" viewBox="0 0 92 101" fill="none" xmlns="http://www.w3.org/2000/svg">
<path d="M85.5608 49.5277C85.5608 44.3873 81.3933 40.2198 76.2529 40.2198C75.922 40.2198 75.596 40.2375 75.2743 40.2716L88.0587 2.56526H33.7293L46.496 40.2386C46.3076 40.2267 46.1189 40.2206 45.9302 40.2202C40.7898 40.2202 36.6223 44.3869 36.6223 49.5281C36.6223 53.6831 39.3456 57.2011 43.1038 58.398C41.1189 61.8363 38.621 64.9334 35.785 67.6092C31.9287 71.2469 27.5153 74.0056 22.742 75.7053C17.0587 72.7857 14.3752 66.2929 16.7966 60.6001C17.0701 59.957 17.3493 59.3054 17.6161 58.6567C21.7332 57.6958 24.8016 54.0048 24.8016 49.5947C24.8016 44.4539 20.6341 40.2868 15.4934 40.2868C10.3526 40.2868 6.1855 44.4539 6.1855 49.5947C6.1855 52.747 7.7537 55.5316 10.1514 57.2153C7.84759 62.4606 4.46104 67.9504 3.40589 74.3128C2.14133 81.9377 3.40164 90.0317 9.99652 94.6027C25.3554 105.248 42.0274 88.0036 59.6057 83.6685C65.9763 82.0978 72.9694 82.3508 78.5822 79.1003C82.7971 76.6591 85.576 72.6132 86.3643 68.0712C87.1438 63.5841 86.0079 59.1166 83.3959 55.494C84.7972 53.822 85.5638 51.7093 85.5608 49.5277Z" fill="#99425B"/>
<path d="M84.1247 67.6822C83.4402 71.6257 81.0046 75.07 77.443 77.1332C74.1227 79.0561 70.1441 79.6301 65.9313 80.2374C63.6747 80.5626 61.3411 80.8996 59.0615 81.4615C53.0339 82.9479 47.1954 85.8479 41.5498 88.6524C30.2506 94.2647 20.4928 99.1111 11.2919 92.7341C4.5521 88.0631 4.86318 79.4207 5.64835 74.6849C6.37611 70.297 8.34363 66.2561 10.246 62.3483C10.57 61.6842 10.8915 61.0188 11.2104 60.3521C12.1693 60.7354 13.1755 60.9879 14.2019 61.1025C12.2652 67.494 15.3109 74.4436 21.7031 77.7274L22.5783 78.177L23.5045 77.8471C28.5581 76.0472 33.2148 73.1595 37.3451 69.2624C40.0149 66.7436 42.3105 63.9569 44.1972 60.9792C44.7708 61.0658 45.3501 61.1092 45.9302 61.1093C51.7973 61.1093 56.6557 56.7232 57.4075 51.0584C59.8091 50.9705 62.3598 50.9698 64.7752 51.0577C65.5263 56.7232 70.3854 61.1096 76.2525 61.1096C78.7058 61.1096 80.9812 60.3407 82.8559 59.0347C84.1573 61.6988 84.6431 64.6964 84.1247 67.6822ZM15.4937 42.5601C19.3728 42.5601 22.5283 45.716 22.5283 49.5951C22.5283 50.9882 22.1194 52.2875 21.4175 53.3816C20.2483 55.2053 18.2606 56.4553 15.977 56.6112C15.8172 56.6218 15.656 56.6296 15.4937 56.6296C14.6292 56.6296 13.8012 56.472 13.0355 56.1857C11.4934 55.6058 10.2021 54.506 9.38426 53.0759C8.77696 52.0164 8.45787 50.8162 8.45878 49.5951C8.45878 45.716 11.6147 42.5601 15.4937 42.5601ZM38.8959 49.5281C38.8959 46.0037 41.5012 43.0774 44.8864 42.5714C45.2272 42.5201 45.5759 42.4935 45.9305 42.4935C48.1857 42.4935 50.1937 43.5618 51.4812 45.2171C51.8038 45.6299 52.0792 46.0773 52.3025 46.5511C52.7398 47.4826 52.966 48.4991 52.9651 49.5281C52.9651 50.0904 52.8971 50.6371 52.772 51.1615C52.0864 54.0314 49.6391 56.2254 46.6402 56.5272C46.4071 56.5506 46.1704 56.5627 45.9305 56.5627C44.5774 56.5638 43.2531 56.1723 42.1181 55.4356C40.1814 54.181 38.8959 52.0023 38.8959 49.5281ZM68.2563 41.1627C66.7255 42.6239 65.6238 44.4762 65.0707 46.5189C62.4192 46.4211 59.7649 46.4211 57.1134 46.5189C56.5182 44.3108 55.2845 42.3628 53.6245 40.8831L60.9039 26.1641L68.2563 41.1627ZM36.9001 4.83928H84.8876L73.5533 38.2672C73.0657 38.384 72.5863 38.5326 72.118 38.7119L60.9216 15.8716L49.6934 38.5755C49.2039 38.4075 48.7036 38.2726 48.196 38.1719L36.9001 4.83928ZM83.2871 49.5284C83.2871 50.2335 83.1819 50.9145 82.9881 51.5576C82.5283 53.0716 81.5734 54.3874 80.2765 55.2939C79.0978 56.1211 77.6925 56.5643 76.2525 56.563C73.0045 56.563 70.2646 54.3496 69.4589 51.3521C69.2989 50.7574 69.2179 50.1443 69.2179 49.5284C69.2179 48.5668 69.4121 47.6499 69.7629 46.8144C69.9439 46.3869 70.1668 45.9784 70.4283 45.5948C71.6942 43.7262 73.8304 42.4939 76.2525 42.4939C76.4747 42.4939 76.6936 42.5052 76.9108 42.5257C80.4823 42.8584 83.2871 45.8712 83.2871 49.5284ZM87.834 49.5284C87.834 43.8743 83.7601 39.1566 78.3944 38.1489L91.2298 0.291992H30.5585L43.4138 38.2254C38.2344 39.378 34.3494 44.0064 34.3494 49.5281C34.3494 53.6743 36.5404 57.3159 39.8242 59.3625C38.2447 61.7158 36.3718 63.9303 34.2253 65.9556C30.8211 69.1668 27.0288 71.6023 22.9404 73.2049C18.8222 70.618 17.0814 65.7395 18.8891 61.4898L19.2966 60.5317C23.8198 58.954 27.0749 54.649 27.0749 49.5951C27.0749 43.2089 21.8796 38.0135 15.4937 38.0135C9.10789 38.0135 3.91185 43.2089 3.91185 49.5951C3.91185 52.8183 5.23699 55.7371 7.36926 57.8389C6.97158 58.6815 6.56788 59.5213 6.15821 60.3581C4.20841 64.3622 1.99889 68.9007 1.16306 73.9408C-0.496552 83.9502 2.18066 91.9518 8.70184 96.4711C12.6588 99.2135 16.6775 100.292 20.7213 100.292C28.3356 100.292 36.0384 96.4664 43.5722 92.7242C48.9978 90.0296 54.6084 87.2429 60.1503 85.8759C62.2124 85.3675 64.334 85.0614 66.5804 84.7375C71.0352 84.0948 75.6413 83.4305 79.7216 81.0675C84.4514 78.3279 87.6888 73.7325 88.6043 68.4603C89.3902 63.9339 88.4445 59.4004 86.1379 55.5554C87.2494 53.7416 87.8365 51.6557 87.834 49.5284Z" fill="white"/>
</svg>
