<svg width="101" height="101" viewBox="0 0 101 101" fill="none" xmlns="http://www.w3.org/2000/svg">
<path d="M50.1836 75.351C72.3074 105.51 93.9586 66.9331 93.9266 43.7338C93.8895 16.3057 66.0887 0.975952 50.1657 0.975952C24.6079 0.975562 0.268433 22.0979 0.268433 50.9979C0.268433 83.1206 28.1688 100.914 50.1657 100.914C45.1879 100.197 28.5993 96.6425 28.3766 58.4342C28.2262 32.5928 36.8063 22.2682 50.1297 26.81C50.4282 26.9205 64.8258 32.6002 64.8258 51.1537C64.8258 69.6288 50.1836 75.351 50.1836 75.351Z" fill="url(#paint0_linear_203_79)"/>
<path d="M50.1579 26.7888C35.5392 21.7501 17.631 33.799 17.631 57.9318C17.631 97.3369 46.8313 100.913 50.3712 100.913C75.929 100.913 100.268 79.7908 100.268 50.8912C100.268 18.7685 72.3681 0.97553 50.3712 0.97553C56.4638 0.13178 83.2091 7.56928 83.2091 44.1232C83.2091 67.9615 63.2388 80.9388 50.2497 75.3943C49.9513 75.2838 35.5532 69.6041 35.5532 51.0506C35.5532 32.5752 50.1579 26.7888 50.1579 26.7888Z" fill="url(#paint1_linear_203_79)"/>
<defs>
<linearGradient id="paint0_linear_203_79" x1="16.0594" y1="15.6506" x2="91.2774" y2="86.1416" gradientUnits="userSpaceOnUse">
<stop/>
<stop offset="1" stop-color="white"/>
</linearGradient>
<linearGradient id="paint1_linear_203_79" x1="85.5061" y1="86.1504" x2="4.65506" y2="30.9379" gradientUnits="userSpaceOnUse">
<stop/>
<stop offset="1" stop-color="white"/>
</linearGradient>
</defs>
</svg>
