<svg width="46" height="101" viewBox="0 0 46 101" fill="none" xmlns="http://www.w3.org/2000/svg">
<path d="M22.6423 0.475265L25.3109 5.48739C25.9108 6.41232 26.5608 7.23101 27.3263 7.99345C29.5708 10.2099 31.6629 12.5756 33.5884 15.0742C38.11 21.0112 41.1597 27.6045 43.3377 34.7352C44.6439 39.0911 45.3532 43.5596 45.4063 48.078C45.625 61.5863 40.9941 73.1855 31.6573 82.8254C30.1386 84.3541 28.4978 85.7565 26.7514 87.0188C25.8265 87.0188 25.389 86.3095 25.0078 85.6564C24.3135 84.4454 23.8515 83.1154 23.6454 81.7348C23.3173 80.1006 23.1016 78.4663 23.2079 76.7789V76.0165C23.1329 75.854 22.3173 0.859611 22.6423 0.475265Z" fill="#599636"/>
<path d="M22.6423 0.30965C22.533 0.0909161 22.4236 0.256529 22.3142 0.362771C22.3674 1.45644 21.9861 2.43137 21.3893 3.36255C20.7331 4.28748 19.8644 4.9968 18.9926 5.75925C14.1492 9.95269 10.337 15.0179 7.28407 20.6831C3.22187 28.3076 1.12827 36.4789 0.534563 45.0813C0.262708 48.1842 1.51574 59.1334 2.4938 62.2926C5.16235 70.6795 9.95575 77.7071 16.1647 83.8066C17.6896 85.2753 19.3207 86.6377 21.0081 87.9469C21.4987 87.9469 21.5518 87.5095 21.6643 87.1845C21.8794 86.4891 22.0433 85.7789 22.1549 85.0596L23.2485 76.8915L22.6423 0.30965Z" fill="#6CAC48"/>
<path d="M25.3109 90.3373C25.4202 89.0874 26.0202 88.05 26.6733 87.0157C26.0171 86.7438 25.5296 86.2033 25.1484 85.6002C24.8197 85.0292 24.5475 84.4274 24.3359 83.8034C23.5735 81.5161 23.411 79.1163 23.1923 76.779V75.3635C22.9204 75.5822 22.8642 77.4321 22.8642 77.7071C22.7052 80.1774 22.3773 82.634 21.883 85.0596C21.7205 86.0408 21.6111 87.0188 21.008 87.8906C21.008 88 21.008 88.1094 21.0612 88.2718C22.0424 91.1591 22.3111 94.0995 22.4767 97.0961V98.1898C22.4767 99.496 22.4236 99.221 23.5079 99.6584C23.9453 99.8209 24.4328 99.8772 24.8703 100.202C25.1984 100.202 25.2515 99.9303 25.2515 99.7116L25.089 97.9148V92.9027C25.0359 92.0278 25.1984 91.1591 25.3077 90.3404L25.3109 90.3373Z" fill="#C2BFBF"/>
</svg>
