<svg width="101" height="61" viewBox="0 0 101 61" fill="none" xmlns="http://www.w3.org/2000/svg">
<path d="M23.7212 16.5526H42.5821V18.0445H25.4501V29.2729H41.5605V30.7648H25.4501V43.0925H42.7786V44.5844H23.7212V16.5526ZM44.2717 16.5526H46.2757L55.1561 28.8803L64.2329 16.5526L76.5788 0.893555L56.2956 30.1759L66.7477 44.5844H64.6651L55.1561 31.4715L45.6077 44.5844H43.5645L54.0951 30.1759L44.2717 16.5526ZM67.4942 18.0445V16.5526H88.9878V18.0445H79.0858V44.5844H77.3569V18.0445H67.4942Z" fill="black"/>
<path d="M0.125427 16.5526H2.28657L32.0875 60.9326L19.7722 44.5844L1.93293 18.6726L1.85434 44.5844H0.125427V16.5526Z" fill="black"/>
<path d="M88.8137 42.6423C89.1711 42.6423 89.4318 42.3699 89.4318 42.0179C89.4318 41.6659 89.1711 41.3936 88.8137 41.3936C88.4604 41.3936 88.1955 41.6659 88.1955 42.0179C88.1955 42.3699 88.4604 42.6423 88.8137 42.6423ZM90.5125 40.9997C90.5125 42.0389 91.2652 42.7177 92.3628 42.7177C93.5318 42.7177 94.2383 42.0179 94.2383 40.8027V36.5243H93.2963V40.7985C93.2963 41.4732 92.9557 41.8336 92.3544 41.8336C91.8161 41.8336 91.4503 41.4983 91.4376 40.9997H90.5125ZM95.4704 40.9452C95.5376 42.0263 96.4417 42.7177 97.7874 42.7177C99.2255 42.7177 100.125 41.9928 100.125 40.8362C100.125 39.9269 99.6124 39.4241 98.3677 39.135L97.6991 38.9715C96.9085 38.7872 96.5889 38.5399 96.5889 38.1083C96.5889 37.5636 97.0851 37.2074 97.8294 37.2074C98.5359 37.2074 99.0237 37.5552 99.112 38.1125H100.029C99.974 37.0942 99.0741 36.3777 97.842 36.3777C96.5174 36.3777 95.6344 37.0942 95.6344 38.1712C95.6344 39.0595 96.1348 39.5875 97.2323 39.8431L98.0145 40.0317C98.8176 40.2203 99.1709 40.4968 99.1709 40.9578C99.1709 41.4941 98.6158 41.8838 97.8589 41.8838C97.0473 41.8838 96.4838 41.5193 96.4039 40.9452H95.4704Z" fill="black"/>
</svg>
