<svg width="92" height="101" viewBox="0 0 92 101" fill="none" xmlns="http://www.w3.org/2000/svg">
<path d="M41.9438 1.98043C44.4234 0.561162 47.653 0.554751 50.1304 1.98043C62.594 9.02301 75.0615 16.0546 87.5229 23.1014C89.8668 24.4217 91.4346 27.0301 91.4107 29.7308V72.1017C91.4282 74.9143 89.7055 77.5851 87.2327 78.8754C74.81 85.8792 62.3938 92.8915 49.9733 99.8952C47.4425 101.342 44.1481 101.231 41.6963 99.6651C37.972 97.5061 34.2413 95.3578 30.5167 93.201C29.7556 92.7472 28.8976 92.3861 28.3601 91.6481C28.8353 91.0078 29.6847 90.928 30.3749 90.6484C31.9295 90.1541 33.3573 89.3606 34.7855 88.5906C35.1467 88.3434 35.5876 88.4381 35.9338 88.6593C39.1185 90.4853 42.2751 92.3644 45.4705 94.1729C46.1522 94.5665 46.8424 94.044 47.425 93.7192C59.6155 86.8294 71.8209 79.9656 84.0091 73.0737C84.4607 72.8564 84.7104 72.377 84.6737 71.8823C84.6823 57.9051 84.6759 43.9253 84.678 29.9481C84.7296 29.3868 84.4048 28.8707 83.8973 28.641C71.5178 21.6693 59.1446 14.6869 46.7672 7.71344C46.5528 7.56601 46.2987 7.4869 46.0385 7.48652C45.7783 7.48614 45.524 7.5645 45.3091 7.7113C32.9317 14.6869 20.5607 21.6757 8.18334 28.6471C7.6776 28.8771 7.33819 29.3847 7.39838 29.9481C7.40051 43.9253 7.39838 57.9051 7.39838 71.8845C7.37691 72.1258 7.42993 72.368 7.55028 72.5783C7.67063 72.7886 7.85254 72.957 8.07151 73.0608C11.3745 74.9338 14.6817 76.7937 17.9868 78.6603C19.8488 79.6625 22.1349 80.258 24.1864 79.4901C25.9967 78.8409 27.2657 76.9935 27.2311 75.0713C27.2482 61.1756 27.2226 47.2778 27.244 33.3843C27.1987 32.7674 27.7839 32.2578 28.3837 32.3158C29.9707 32.3051 31.5598 32.2944 33.1469 32.3201C33.8093 32.3051 34.2652 32.9694 34.1833 33.5908C34.1768 47.5745 34.2004 61.5585 34.1726 75.5422C34.1768 79.269 32.6457 83.3241 29.1985 85.1476C24.9518 87.3476 19.7028 86.881 15.5073 84.7715C11.8752 82.9587 8.40914 80.8193 4.84155 78.8772C2.36237 77.594 0.648199 74.9125 0.665651 72.1021V29.7308C0.639652 26.9742 2.26977 24.3184 4.68662 23.0174C17.1071 16.0079 29.5255 8.9931 41.9438 1.98043Z" fill="#8CC84B"/>
<path d="M52.7794 31.331C58.1965 30.9823 63.9958 31.1244 68.8705 33.7931C72.6446 35.8381 74.737 40.1301 74.8036 44.3231C74.6982 44.8887 74.107 45.2007 73.5671 45.1618C71.9953 45.1597 70.4233 45.1832 68.8516 45.1512C68.1849 45.1768 67.7974 44.5621 67.7137 43.9726C67.2621 41.9664 66.168 39.9795 64.2796 39.0118C61.3809 37.5605 58.0199 37.6335 54.859 37.6637C52.5515 37.7863 50.0702 37.9861 48.1153 39.343C46.6144 40.3709 46.1585 42.4458 46.6942 44.1169C47.1992 45.3168 48.5843 45.7039 49.7176 46.0608C56.2459 47.7682 63.1638 47.5983 69.5675 49.8453C72.2187 50.7613 74.8122 52.5421 75.7197 55.3179C76.9067 59.0383 76.3864 63.4852 73.7394 66.4719C71.5929 68.9298 68.4666 70.2675 65.3485 70.994C61.2003 71.9189 56.8955 71.9425 52.6829 71.5318C48.7218 71.0802 44.5997 70.0395 41.5417 67.3406C38.9269 65.0701 37.6497 61.5324 37.7765 58.118C37.8068 57.5414 38.3809 57.1393 38.9333 57.1867C40.516 57.1738 42.0988 57.1696 43.6815 57.1888C44.3137 57.1436 44.7824 57.6899 44.8148 58.2857C45.1068 60.1972 45.8252 62.2034 47.492 63.3367C50.7088 65.412 54.7451 65.2699 58.4284 65.328C61.4799 65.1926 64.9054 65.1517 67.3956 63.1348C68.7095 61.9844 69.0988 60.0597 68.7437 58.404C68.359 57.0061 66.8967 56.3547 65.6409 55.9287C59.1963 53.8901 52.2011 54.6298 45.8188 52.3244C43.2278 51.4088 40.7222 49.6775 39.7268 47.0156C38.3378 43.2482 38.9742 38.5883 41.8986 35.7024C44.75 32.8318 48.866 31.7267 52.7794 31.331Z" fill="#8CC84B"/>
</svg>
