<svg width="101" height="101" viewBox="0 0 101 101" fill="none" xmlns="http://www.w3.org/2000/svg">
<path d="M90.4011 19.9863C84.3565 12.159 76.1265 6.30001 66.7518 3.15037C57.3772 0.000733137 47.2791 -0.298083 37.7346 2.29171C28.1901 4.88151 19.628 10.2436 13.1311 17.6998C6.63425 25.156 2.49446 34.3714 1.23532 44.1805C-0.0238249 53.9896 1.65424 63.9518 6.05727 72.8072C10.4603 81.6626 17.3905 89.0133 25.9715 93.9298C34.5524 98.8462 44.3987 101.108 54.2649 100.428C64.1311 99.748 73.5741 96.1576 81.3997 90.1107C103.243 73.2296 107.274 41.8377 90.3996 19.9863H90.4011Z" fill="#FF6C37"/>
<path d="M67.6918 32.405L46.6093 53.6548L40.6515 47.5299C61.4012 26.78 63.484 28.655 67.6933 32.405H67.6918Z" fill="white"/>
<path d="M46.6093 54.236C46.4226 54.2314 46.2443 54.1573 46.1093 54.0282L40.1094 48.0282C39.9743 47.8884 39.8988 47.7016 39.8988 47.5071C39.8988 47.3127 39.9743 47.1259 40.1094 46.9861C60.567 26.5284 63.3592 27.4862 68.1919 31.8612C68.2728 31.9259 68.3376 32.0086 68.381 32.1028C68.4244 32.1969 68.4452 32.2998 68.4419 32.4034C68.4732 32.6065 68.3951 32.8143 68.2341 32.9456L47.1515 54.0297C47.0037 54.1653 46.8098 54.2396 46.6093 54.2375V54.236ZM41.6922 47.5282L46.6093 52.4454L66.6091 32.4456C65.9186 31.5802 64.9332 30.9997 63.8416 30.8152C62.7499 30.6307 61.6286 30.8552 60.692 31.4456C57.067 33.0706 51.2343 38.0283 41.6922 47.5282Z" fill="#FF6C37"/>
<path d="M52.6513 59.5296L46.9013 53.6547L67.9841 32.8206C73.6512 38.3627 65.2341 47.6126 52.6513 59.528V59.5296Z" fill="white"/>
<path d="M52.6515 60.2796C52.467 60.265 52.292 60.1922 52.1515 60.0718L46.2765 54.3219C46.1884 54.1082 46.1884 53.8684 46.2765 53.6547C46.2141 53.4794 46.2141 53.2878 46.2765 53.1125L67.3592 32.03C67.5058 31.8922 67.6994 31.8155 67.9006 31.8155C68.1018 31.8155 68.2954 31.8922 68.442 32.03C69.1247 32.6584 69.6642 33.4264 70.0236 34.2819C70.383 35.1374 70.5539 36.0602 70.5248 36.9877C70.5248 42.6126 64.1076 49.6954 53.1921 60.0296C53.0463 60.1739 52.8544 60.2624 52.6499 60.2796H52.6515ZM47.9843 53.6547L52.6921 58.3609C61.0249 50.486 68.9842 42.3611 69.0248 36.8611C69.0701 35.6952 68.6847 34.5533 67.942 33.6534L47.9843 53.6547Z" fill="#FF6C37"/>
<path d="M40.8172 47.6548L44.9843 51.822C45.0109 51.8454 45.0322 51.8743 45.0468 51.9066C45.0614 51.939 45.069 51.974 45.069 52.0095C45.069 52.045 45.0614 52.08 45.0468 52.1123C45.0322 52.1447 45.0109 52.1735 44.9843 52.197L36.1922 54.072C36.0148 54.1103 35.8296 54.0895 35.665 54.0129C35.5004 53.9362 35.3654 53.8079 35.2805 53.6474C35.1955 53.487 35.1654 53.3031 35.1946 53.1239C35.2238 52.9447 35.3108 52.78 35.4422 52.6548L40.5672 47.572C40.5672 47.572 40.7344 47.572 40.8172 47.6548Z" fill="white"/>
<path d="M35.9844 54.9047C35.7066 54.9013 35.4343 54.8266 35.1936 54.6879C34.9529 54.5492 34.7517 54.3511 34.6094 54.1126C34.4492 53.8104 34.391 53.4644 34.4437 53.1265C34.4964 52.7885 34.657 52.4767 34.9016 52.2376L39.9843 47.1126C40.1676 46.9488 40.4048 46.8582 40.6507 46.8582C40.8966 46.8582 41.1338 46.9488 41.3171 47.1126L45.4842 51.2798C45.7311 51.5142 45.828 51.8688 45.7342 52.197C45.6405 52.5251 45.3655 52.786 45.0264 52.8641L36.2343 54.7391L35.9844 54.9047ZM40.6515 48.572L35.9437 53.2798L43.7358 51.6126L40.6515 48.572Z" fill="#FF6C37"/>
<path d="M78.9013 20.6957C75.8857 17.7863 71.1481 17.6645 67.9856 20.4098C64.8231 23.1551 64.2824 27.8675 66.745 31.2581C69.2075 34.6487 73.8497 35.5987 77.4435 33.4456L71.7763 27.7784L78.9013 20.6957Z" fill="white"/>
<path d="M73.2763 35.3612C71.5438 35.339 69.856 34.8075 68.4235 33.8328C66.9909 32.8581 65.8768 31.4834 65.2201 29.88C64.5638 28.2778 64.3916 26.5184 64.7249 24.8193C65.0581 23.1203 65.8822 21.5563 67.0951 20.3207C68.7632 18.6832 71.0075 17.7657 73.3451 17.7657C75.6827 17.7657 77.9269 18.6832 79.5951 20.3207C79.7544 20.4551 79.8451 20.6535 79.8451 20.8629C79.8447 20.9659 79.8222 21.0676 79.779 21.1612C79.7359 21.2547 79.6731 21.3379 79.5951 21.4051L72.8451 27.78L77.9701 32.8222C78.0531 32.9015 78.1154 32.9999 78.1517 33.1088C78.1879 33.2178 78.1969 33.334 78.1779 33.4472C78.1655 33.5564 78.1293 33.6616 78.0718 33.7553C78.0143 33.849 77.9369 33.9289 77.8451 33.9894C76.4682 34.85 74.8854 35.3248 73.2623 35.3644L73.2763 35.3612ZM73.2763 19.1942C70.3076 19.2098 67.6513 20.9957 66.5373 23.7254C65.4232 26.455 66.0294 29.5972 68.1107 31.6941C69.1459 32.7353 70.4714 33.4396 71.9137 33.7148C73.3559 33.99 74.8476 33.8232 76.1935 33.2362L71.2763 28.3191C71.1981 28.2566 71.135 28.1773 71.0917 28.0871C71.0483 27.9969 71.0258 27.8981 71.0258 27.798C71.0258 27.6979 71.0483 27.5991 71.0917 27.5089C71.135 27.4187 71.1981 27.3394 71.2763 27.2769L77.7763 20.7348C76.4842 19.7445 74.9042 19.203 73.2763 19.1926V19.1942Z" fill="#FF6C37"/>
<path d="M79.0262 20.8207L71.9013 27.9034L77.5684 33.5705C78.1387 33.2431 78.6698 32.8515 79.1511 32.4033C80.6364 30.8334 81.4537 28.7478 81.4303 26.5867C81.407 24.4257 80.545 22.3582 79.0262 20.8207Z" fill="white"/>
<path d="M77.4418 34.1956C77.3482 34.2007 77.2547 34.1846 77.1682 34.1487C77.0816 34.1127 77.0043 34.0577 76.9418 33.9878L71.2747 28.3207C71.1965 28.2582 71.1334 28.1789 71.09 28.0887C71.0467 27.9985 71.0242 27.8997 71.0242 27.7996C71.0242 27.6995 71.0467 27.6007 71.09 27.5105C71.1334 27.4203 71.1965 27.341 71.2747 27.2785L78.3574 20.3207C78.4259 20.2176 78.5187 20.133 78.6278 20.0744C78.7368 20.0159 78.8587 19.9853 78.9824 19.9853C79.1062 19.9853 79.228 20.0159 79.3371 20.0744C79.4461 20.133 79.539 20.2176 79.6074 20.3207C80.4389 21.1354 81.0995 22.1078 81.5505 23.181C82.0014 24.2542 82.2337 25.4066 82.2337 26.5707C82.2337 27.7348 82.0014 28.8871 81.5505 29.9603C81.0995 31.0335 80.4389 32.0059 79.6074 32.8206C79.117 33.3409 78.5557 33.7895 77.9403 34.1534C77.7853 34.2315 77.6061 34.2467 77.4403 34.1956H77.4418ZM72.8591 27.78L77.5668 32.4878C77.8907 32.2608 78.1972 32.0102 78.484 31.7378C79.8679 30.3577 80.6474 28.4846 80.6512 26.53C80.6544 24.7809 80.0168 23.0912 78.859 21.7801L72.8591 27.78Z" fill="#FF6C37"/>
<path d="M68.5669 33.2799C68.0026 32.75 67.2575 32.455 66.4834 32.455C65.7092 32.455 64.9641 32.75 64.3998 33.2799L45.5265 52.1111L48.6515 55.2783L68.6091 37.7784C68.9135 37.4867 69.1549 37.1357 69.3185 36.7472C69.4822 36.3587 69.5645 35.9408 69.5606 35.5193C69.5566 35.0977 69.4664 34.6814 69.2956 34.296C69.1247 33.9107 68.8767 33.5643 68.5669 33.2784V33.2799Z" fill="white"/>
<path d="M48.4843 56.0297C48.2976 56.0252 48.1193 55.9511 47.9843 55.8219L44.8171 52.6548C44.6821 52.5149 44.6066 52.3281 44.6066 52.1337C44.6066 51.9393 44.6821 51.7524 44.8171 51.6126L63.692 32.8206C64.2356 32.2776 64.9299 31.9104 65.6847 31.7668C66.4395 31.6231 67.2201 31.7095 67.9252 32.0149C68.6303 32.3202 69.2275 32.8303 69.6392 33.4791C70.0509 34.1279 70.2581 34.8854 70.2341 35.6534C70.2125 36.1746 70.087 36.6864 69.8652 37.1586C69.6433 37.6308 69.3294 38.054 68.9419 38.4033L48.9843 55.9032C48.8391 56.0059 48.6607 56.0505 48.4843 56.0282V56.0297ZM46.2765 52.111L48.3593 54.236L67.9419 37.194C68.4263 36.7721 68.7154 36.169 68.7341 35.5268C68.7529 34.8846 68.4997 34.2565 68.0263 33.819C67.5891 33.3836 66.9972 33.1392 66.3802 33.1392C65.7632 33.1392 65.1714 33.3836 64.7342 33.819L46.2765 52.111Z" fill="#FF6C37"/>
<path d="M30.9016 73.5702C30.8483 73.6427 30.8196 73.7303 30.8196 73.8202C30.8196 73.9102 30.8483 73.9978 30.9016 74.0702L31.7344 77.6952C31.7678 77.9085 31.7362 78.127 31.6436 78.322C31.5511 78.5171 31.402 78.6798 31.2157 78.789C31.0301 78.8975 30.8148 78.9444 30.6008 78.9228C30.3868 78.9012 30.1852 78.8122 30.0251 78.6686L24.3173 73.1687L42.1093 55.236H48.2764L52.4436 59.4032C45.9432 65.0866 38.6952 69.8532 30.9016 73.5702Z" fill="white"/>
<path d="M30.5267 79.6952C30.0548 79.6858 29.5892 79.4921 29.2767 79.153L23.8189 73.6952C23.7407 73.6327 23.6776 73.5534 23.6343 73.4632C23.5909 73.373 23.5684 73.2742 23.5684 73.1741C23.5684 73.0741 23.5909 72.9753 23.6343 72.885C23.6776 72.7948 23.7407 72.7156 23.8189 72.6531L41.7344 54.6954C41.8347 54.5888 41.9658 54.5161 42.1094 54.4876H48.3171C48.4789 54.4304 48.6554 54.4304 48.8171 54.4876L52.9843 58.6547C53.0635 58.7278 53.1238 58.819 53.16 58.9205C53.1962 59.022 53.2072 59.1308 53.1921 59.2375C53.195 59.3411 53.174 59.4439 53.1306 59.5379C53.0873 59.632 53.0227 59.7147 52.9421 59.7797L52.6093 60.0719C46.0827 65.513 38.9022 70.1178 31.2345 73.7796L32.0267 77.1546C32.0879 77.4149 32.0902 77.6857 32.0335 77.947C31.9768 78.2084 31.8624 78.4538 31.6988 78.6654C31.5352 78.8769 31.3264 79.0493 31.0876 79.1699C30.8489 79.2905 30.5862 79.3562 30.3189 79.3624L30.5267 79.6952ZM25.4439 73.153L30.3595 78.1108C30.4053 78.1517 30.4645 78.1742 30.5259 78.1742C30.5873 78.1742 30.6465 78.1517 30.6923 78.1108C30.7229 78.0683 30.7394 78.0172 30.7394 77.9647C30.7394 77.9123 30.7229 77.8612 30.6923 77.8186L29.8595 74.1937C29.7939 73.9335 29.8202 73.6587 29.9341 73.4157C30.0481 73.1728 30.2425 72.9768 30.4845 72.8609C37.946 69.248 44.9414 64.7427 51.3171 59.4438L47.8999 56.0266H42.3172L25.4439 73.153Z" fill="#FF6C37"/>
<path d="M20.0267 77.4451L24.1938 73.278L30.611 79.6951L20.4033 78.9873C20.228 78.9736 20.0616 78.9048 19.9277 78.7909C19.7938 78.6769 19.6993 78.5236 19.6578 78.3528C19.6162 78.182 19.6296 78.0024 19.6962 77.8397C19.7627 77.677 19.8789 77.5394 20.0283 77.4467L20.0267 77.4451Z" fill="white"/>
<path d="M30.7344 80.3202L20.5674 79.6124C19.9642 79.5561 19.4455 79.1436 19.233 78.5921C19.0205 78.0405 19.1502 77.3858 19.5674 76.9452L23.7345 72.778C23.8743 72.6429 24.0612 72.5674 24.2556 72.5674C24.45 72.5674 24.6368 72.6429 24.7767 72.778L31.1516 79.153C31.2399 79.2739 31.2874 79.4197 31.2874 79.5694C31.2874 79.7191 31.2399 79.8649 31.1516 79.9858C31.0552 80.1417 30.9078 80.2593 30.7344 80.3186V80.3202ZM20.5674 77.9874L28.9001 78.5296L24.3173 74.2374L20.5674 77.9874Z" fill="#FF6C37"/>
<path d="M48.8592 55.7391L40.4422 57.0313L45.3171 52.1985L48.8592 55.7391Z" fill="white"/>
<path d="M40.4422 57.8204C40.3023 57.8241 40.1644 57.7865 40.0458 57.7123C39.9271 57.6381 39.8329 57.5306 39.775 57.4032C39.6863 57.2825 39.6384 57.1366 39.6384 56.9868C39.6384 56.837 39.6863 56.6911 39.775 56.5704L44.6077 51.6954C44.7543 51.5576 44.9479 51.4809 45.1491 51.4809C45.3503 51.4809 45.5439 51.5576 45.6905 51.6954L49.2342 55.236C49.3049 55.3483 49.3425 55.4783 49.3425 55.611C49.3425 55.7438 49.3049 55.8738 49.2342 55.986C49.1994 56.1229 49.126 56.2468 49.0226 56.343C48.9192 56.4391 48.7903 56.5034 48.6514 56.5282L40.3187 57.8204H40.4422ZM45.3171 53.2782L42.6093 55.986L47.2764 55.2782L45.3171 53.2782Z" fill="#FF6C37"/>
<path d="M48.8592 55.7361L42.9843 56.4861C42.8271 56.5218 42.6626 56.5058 42.5151 56.4407C42.3677 56.3755 42.2451 56.2645 42.1657 56.1242C42.0863 55.9839 42.0541 55.8218 42.0741 55.6618C42.0941 55.5018 42.165 55.3525 42.2765 55.2361L45.3186 52.1939L48.8592 55.7361Z" fill="white"/>
<path d="M42.8171 57.2798C42.5448 57.2772 42.2781 57.2025 42.044 57.0634C41.8099 56.9242 41.6168 56.7256 41.4843 56.4876C41.3252 56.2024 41.2635 55.8731 41.3087 55.5496C41.3538 55.2261 41.5033 54.9262 41.7344 54.6954L44.7765 51.6533C44.9231 51.5155 45.1167 51.4388 45.3179 51.4388C45.5191 51.4388 45.7127 51.5155 45.8593 51.6533L49.4015 55.1954C49.5068 55.2952 49.5809 55.4235 49.6148 55.5646C49.6488 55.7057 49.641 55.8535 49.5926 55.9903C49.5441 56.1271 49.457 56.2469 49.3418 56.3352C49.2266 56.4234 49.0883 56.4764 48.9437 56.4876L43.1109 57.2376L42.8171 57.2798ZM42.8171 55.7376L47.2343 55.1954L45.2765 53.2376L42.7765 55.7376H42.8171ZM79.0668 25.6128C78.9883 25.4813 78.8643 25.3832 78.7183 25.3372C78.5723 25.2911 78.4144 25.3002 78.2747 25.3628C78.2057 25.3978 78.1444 25.4462 78.0945 25.5052C78.0446 25.5643 78.007 25.6327 77.984 25.7066C77.9376 25.8555 77.9523 26.0168 78.0246 26.155C78.3168 26.7691 78.2356 27.4956 77.8168 28.03C77.7648 28.0815 77.7241 28.1432 77.6972 28.2112C77.6703 28.2793 77.6578 28.3522 77.6606 28.4253C77.6621 28.5718 77.7178 28.7126 77.8168 28.8206C77.9238 28.8628 78.0427 28.8628 78.1496 28.8206C78.2467 28.845 78.3485 28.8423 78.4441 28.8128C78.5397 28.7834 78.6254 28.7282 78.6918 28.6534C79.0349 28.2333 79.2522 27.7248 79.3186 27.1865C79.3849 26.6482 79.2976 26.1021 79.0668 25.6113V25.6128Z" fill="#FF6C37"/>
</svg>
