<svg width="101" height="101" viewBox="0 0 101 101" fill="none" xmlns="http://www.w3.org/2000/svg">
<g opacity="0.5">
<path d="M74.6378 19.2068H79.3997C80.7331 19.2068 81.7807 20.2544 81.7807 21.5877C81.7807 22.921 80.7331 23.9687 79.3997 23.9687H74.6378C73.3045 23.9687 72.2569 22.921 72.2569 21.5877C72.2569 20.2544 73.3045 19.2068 74.6378 19.2068Z" fill="#56B3B4"/>
<path d="M3.20932 95.3973H27.0188C28.3521 95.3973 29.3997 96.4449 29.3997 97.7782C29.3997 99.1116 28.3521 100.159 27.0188 100.159H3.20932C1.87599 100.159 0.828369 99.1116 0.828369 97.7782C0.828369 96.4449 1.87599 95.3973 3.20932 95.3973Z" fill="#EA5E5E"/>
<path d="M60.3522 57.3021H74.6377C75.971 57.3021 77.0186 58.3496 77.0186 59.6829C77.0186 61.0162 75.971 62.0638 74.6377 62.0638H60.3522C59.0188 62.0638 57.9712 61.0162 57.9712 59.6829C57.9712 58.3496 59.0188 57.3021 60.3522 57.3021Z" fill="#BF85BF"/>
<path d="M31.7808 57.3021H50.8284C52.1617 57.3021 53.2094 58.3496 53.2094 59.6829C53.2094 61.0162 52.1617 62.0638 50.8284 62.0638H31.7808C30.4474 62.0638 29.3998 61.0162 29.3998 59.6829C29.3998 58.3496 30.4474 57.3021 31.7808 57.3021Z" fill="#EA5E5E"/>
<path d="M3.20932 57.3021H22.2569C23.5903 57.3021 24.6379 58.3496 24.6379 59.6829C24.6379 61.0162 23.5903 62.0638 22.2569 62.0638H3.20932C1.87599 62.0638 0.828369 61.0162 0.828369 59.6829C0.828369 58.3496 1.87599 57.3021 3.20932 57.3021Z" fill="#56B3B4"/>
<path d="M3.20932 76.3496H27.0188C28.3521 76.3496 29.3997 77.3972 29.3997 78.7305C29.3997 80.0639 28.3521 81.1115 27.0188 81.1115H3.20932C1.87599 81.1115 0.828369 80.0639 0.828369 78.7305C0.828369 77.3972 1.87599 76.3496 3.20932 76.3496Z" fill="#BF85BF"/>
<path d="M3.20932 38.2544H27.0188C28.3521 38.2544 29.3997 39.302 29.3997 40.6354C29.3997 41.9687 28.3521 43.0163 27.0188 43.0163H3.20932C1.87599 43.0163 0.828369 41.9687 0.828369 40.6354C0.828369 39.302 1.87599 38.2544 3.20932 38.2544Z" fill="#BF85BF"/>
<path d="M27.0188 9.68298H74.6377C75.971 9.68298 77.0187 10.7306 77.0187 12.0639C77.0187 13.3973 75.971 14.4449 74.6377 14.4449H27.0188C25.6855 14.4449 24.6378 13.3973 24.6378 12.0639C24.6378 10.7306 25.6855 9.68298 27.0188 9.68298Z" fill="#F7BA3E"/>
<path d="M3.20932 9.68298H17.495C18.8283 9.68298 19.876 10.7306 19.876 12.0639C19.876 13.3973 18.8283 14.4449 17.495 14.4449H3.20932C1.87599 14.4449 0.828369 13.3973 0.828369 12.0639C0.828369 10.7306 1.87599 9.68298 3.20932 9.68298Z" fill="#EA5E5E"/>
<path d="M22.2569 85.8733H27.0188C28.3522 85.8733 29.3998 86.921 29.3998 88.2543C29.3998 89.5876 28.3522 90.6353 27.0188 90.6353H22.2569C20.9236 90.6353 19.876 89.5876 19.876 88.2543C19.876 86.921 20.9236 85.8733 22.2569 85.8733Z" fill="#F7BA3E"/>
<path d="M22.2569 28.7307H27.0188C28.3522 28.7307 29.3998 29.7783 29.3998 31.1116C29.3998 32.4449 28.3522 33.4925 27.0188 33.4925H22.2569C20.9236 33.4925 19.876 32.4449 19.876 31.1116C19.876 29.7783 20.9236 28.7307 22.2569 28.7307Z" fill="#56B3B4"/>
<path d="M3.20932 85.8733H12.7331C14.0665 85.8733 15.1141 86.921 15.1141 88.2543C15.1141 89.5876 14.0665 90.6353 12.7331 90.6353H3.20932C1.87599 90.6353 0.828369 89.5876 0.828369 88.2543C0.828369 86.921 1.87599 85.8733 3.20932 85.8733Z" fill="#56B3B4"/>
<path d="M3.20932 28.7307H12.7331C14.0665 28.7307 15.1141 29.7783 15.1141 31.1116C15.1141 32.4449 14.0665 33.4925 12.7331 33.4925H3.20932C1.87599 33.4925 0.828369 32.4449 0.828369 31.1116C0.828369 29.7783 1.87599 28.7307 3.20932 28.7307Z" fill="#F7BA3E"/>
<path d="M65.1141 85.8733H69.8759C71.2092 85.8733 72.2568 86.921 72.2568 88.2543C72.2568 89.5876 71.2092 90.6353 69.8759 90.6353H65.1141C63.7808 90.6353 62.7332 89.5876 62.7332 88.2543C62.7332 86.921 63.7808 85.8733 65.1141 85.8733Z" fill="#D0D4D8"/>
<path d="M36.5426 85.8733H55.5903C56.9236 85.8733 57.9712 86.921 57.9712 88.2543C57.9712 89.5876 56.9236 90.6353 55.5903 90.6353H36.5426C35.2093 90.6353 34.1616 89.5876 34.1616 88.2543C34.1616 86.921 35.2093 85.8733 36.5426 85.8733Z" fill="#D0D4D8"/>
<path d="M79.3997 85.8733H98.4474C99.7807 85.8733 100.828 86.921 100.828 88.2543C100.828 89.5876 99.7807 90.6353 98.4474 90.6353H79.3997C78.0664 90.6353 77.0188 89.5876 77.0188 88.2543C77.0188 86.921 78.0664 85.8733 79.3997 85.8733Z" fill="#D0D4D8"/>
<path d="M41.3045 47.7782H79.3996C80.7329 47.7782 81.7806 48.8258 81.7806 50.1591C81.7806 51.4924 80.7329 52.54 79.3996 52.54H41.3045C39.9711 52.54 38.9235 51.4924 38.9235 50.1591C38.9235 48.8258 39.9711 47.7782 41.3045 47.7782Z" fill="#56B3B4"/>
<path d="M17.495 47.7782H31.7807C33.114 47.7782 34.1616 48.8258 34.1616 50.1591C34.1616 51.4924 33.114 52.54 31.7807 52.54H17.495C16.1617 52.54 15.1141 51.4924 15.1141 50.1591C15.1141 48.8258 16.1617 47.7782 17.495 47.7782Z" fill="#F7BA3E"/>
<path d="M3.20932 47.7782H7.97122C9.30456 47.7782 10.3522 48.8258 10.3522 50.1591C10.3522 51.4924 9.30456 52.54 7.97122 52.54H3.20932C1.87599 52.54 0.828369 51.4924 0.828369 50.1591C0.828369 48.8258 1.87599 47.7782 3.20932 47.7782Z" fill="#EA5E5E"/>
<path d="M46.0664 19.2068H65.114C66.4473 19.2068 67.4949 20.2544 67.4949 21.5877C67.4949 22.921 66.4473 23.9687 65.114 23.9687H46.0664C44.7331 23.9687 43.6855 22.921 43.6855 21.5877C43.6855 20.2544 44.7331 19.2068 46.0664 19.2068Z" fill="#BF85BF"/>
<path d="M3.20932 19.2068H36.5426C37.8759 19.2068 38.9235 20.2544 38.9235 21.5877C38.9235 22.921 37.8759 23.9687 36.5426 23.9687H3.20932C1.87599 23.9687 0.828369 22.921 0.828369 21.5877C0.828369 20.2544 1.87599 19.2068 3.20932 19.2068Z" fill="#56B3B4"/>
<path d="M17.495 66.8258H60.3522C61.6855 66.8258 62.7332 67.8734 62.7332 69.2067C62.7332 70.54 61.6855 71.5877 60.3522 71.5877H17.495C16.1617 71.5877 15.1141 70.54 15.1141 69.2067C15.1141 67.8734 16.1617 66.8258 17.495 66.8258Z" fill="#F7BA3E"/>
<path d="M3.20932 66.8258H7.97122C9.30456 66.8258 10.3522 67.8734 10.3522 69.2067C10.3522 70.54 9.30456 71.5877 7.97122 71.5877H3.20932C1.87599 71.5877 0.828369 70.54 0.828369 69.2067C0.828369 67.8734 1.87599 66.8258 3.20932 66.8258Z" fill="#BF85BF"/>
<path d="M60.3522 28.7307H84.1616C85.4949 28.7307 86.5425 29.7783 86.5425 31.1116C86.5425 32.4449 85.4949 33.4925 84.1616 33.4925H60.3522C59.0188 33.4925 57.9712 32.4449 57.9712 31.1116C57.9712 29.7783 59.0188 28.7307 60.3522 28.7307Z" fill="#EA5E5E"/>
<path d="M60.3522 38.2544H84.1616C85.4949 38.2544 86.5425 39.302 86.5425 40.6354C86.5425 41.9687 85.4949 43.0163 84.1616 43.0163H60.3522C59.0188 43.0163 57.9712 41.9687 57.9712 40.6354C57.9712 39.302 59.0188 38.2544 60.3522 38.2544Z" fill="#F7BA3E"/>
<path d="M3.20932 0.15918H60.3521C61.6854 0.15918 62.733 1.2068 62.733 2.54013C62.733 3.87346 61.6854 4.92108 60.3521 4.92108H3.20932C1.87599 4.92108 0.828369 3.87346 0.828369 2.54013C0.828369 1.2068 1.87599 0.15918 3.20932 0.15918Z" fill="#56B3B4"/>
<path d="M69.8759 0.15918H98.4473C99.7806 0.15918 100.828 1.2068 100.828 2.54013C100.828 3.87346 99.7806 4.92108 98.4473 4.92108H69.8759C68.5426 4.92108 67.495 3.87346 67.495 2.54013C67.495 1.2068 68.5426 0.15918 69.8759 0.15918Z" fill="#D0D4D8"/>
<path d="M69.8759 66.8258H79.3997C80.733 66.8258 81.7806 67.8734 81.7806 69.2067C81.7806 70.54 80.733 71.5877 79.3997 71.5877H69.8759C68.5426 71.5877 67.495 70.54 67.495 69.2067C67.495 67.8734 68.5426 66.8258 69.8759 66.8258Z" fill="#D0D4D8"/>
<path d="M88.9235 66.8258H98.4473C99.7807 66.8258 100.828 67.8734 100.828 69.2067C100.828 70.54 99.7807 71.5877 98.4473 71.5877H88.9235C87.5902 71.5877 86.5425 70.54 86.5425 69.2067C86.5425 67.8734 87.5902 66.8258 88.9235 66.8258Z" fill="#D0D4D8"/>
<path d="M84.1616 57.3021H98.4473C99.7807 57.3021 100.828 58.3496 100.828 59.6829C100.828 61.0162 99.7807 62.0638 98.4473 62.0638H84.1616C82.8283 62.0638 81.7807 61.0162 81.7807 59.6829C81.7807 58.3496 82.8283 57.3021 84.1616 57.3021Z" fill="#D0D4D8"/>
<path d="M84.1616 9.68298H98.4473C99.7807 9.68298 100.828 10.7306 100.828 12.0639C100.828 13.3973 99.7807 14.4449 98.4473 14.4449H84.1616C82.8283 14.4449 81.7807 13.3973 81.7807 12.0639C81.7807 10.7306 82.8283 9.68298 84.1616 9.68298Z" fill="#D0D4D8"/>
<path d="M88.9235 47.7782H98.4473C99.7807 47.7782 100.828 48.8258 100.828 50.1591C100.828 51.4924 99.7807 52.54 98.4473 52.54H88.9235C87.5902 52.54 86.5425 51.4924 86.5425 50.1591C86.5425 48.8258 87.5902 47.7782 88.9235 47.7782Z" fill="#D0D4D8"/>
<path d="M88.9235 19.2068H98.4473C99.7807 19.2068 100.828 20.2544 100.828 21.5877C100.828 22.921 99.7807 23.9687 98.4473 23.9687H88.9235C87.5902 23.9687 86.5425 22.921 86.5425 21.5877C86.5425 20.2544 87.5902 19.2068 88.9235 19.2068Z" fill="#D0D4D8"/>
<path d="M93.6854 28.7307H98.4473C99.7807 28.7307 100.828 29.7783 100.828 31.1116C100.828 32.4449 99.7807 33.4925 98.4473 33.4925H93.6854C92.3521 33.4925 91.3044 32.4449 91.3044 31.1116C91.3044 29.7783 92.3521 28.7307 93.6854 28.7307Z" fill="#D0D4D8"/>
<path d="M93.6854 38.2544H98.4473C99.7807 38.2544 100.828 39.302 100.828 40.6354C100.828 41.9687 99.7807 43.0163 98.4473 43.0163H93.6854C92.3521 43.0163 91.3044 41.9687 91.3044 40.6354C91.3044 39.302 92.3521 38.2544 93.6854 38.2544Z" fill="#D0D4D8"/>
<path d="M55.5903 76.3496H98.4473C99.7806 76.3496 100.828 77.3972 100.828 78.7305C100.828 80.0639 99.7806 81.1115 98.4473 81.1115H55.5903C54.257 81.1115 53.2094 80.0639 53.2094 78.7305C53.2094 77.3972 54.257 76.3496 55.5903 76.3496Z" fill="#D0D4D8"/>
<path d="M36.5426 76.3496H46.0664C47.3997 76.3496 48.4473 77.3972 48.4473 78.7305C48.4473 80.0639 47.3997 81.1115 46.0664 81.1115H36.5426C35.2093 81.1115 34.1616 80.0639 34.1616 78.7305C34.1616 77.3972 35.2093 76.3496 36.5426 76.3496Z" fill="#D0D4D8"/>
<path d="M74.6378 95.3973H98.4474C99.7807 95.3973 100.828 96.4449 100.828 97.7782C100.828 99.1116 99.7807 100.159 98.4474 100.159H74.6378C73.3045 100.159 72.2569 99.1116 72.2569 97.7782C72.2569 96.4449 73.3045 95.3973 74.6378 95.3973Z" fill="#D0D4D8"/>
<path d="M36.5426 95.3973H65.1139C66.4473 95.3973 67.4949 96.4449 67.4949 97.7782C67.4949 99.1116 66.4473 100.159 65.1139 100.159H36.5426C35.2093 100.159 34.1616 99.1116 34.1616 97.7782C34.1616 96.4449 35.2093 95.3973 36.5426 95.3973Z" fill="#D0D4D8"/>
<path d="M36.5426 28.7307H50.8284C52.1617 28.7307 53.2094 29.7783 53.2094 31.1116C53.2094 32.4449 52.1617 33.4925 50.8284 33.4925H36.5426C35.2093 33.4925 34.1616 32.4449 34.1616 31.1116C34.1616 29.7783 35.2093 28.7307 36.5426 28.7307Z" fill="#D0D4D8"/>
<path d="M36.5426 38.2544H50.8284C52.1617 38.2544 53.2094 39.302 53.2094 40.6354C53.2094 41.9687 52.1617 43.0163 50.8284 43.0163H36.5426C35.2093 43.0163 34.1616 41.9687 34.1616 40.6354C34.1616 39.302 35.2093 38.2544 36.5426 38.2544Z" fill="#D0D4D8"/>
</g>
</svg>
