<svg width="101" height="87" viewBox="0 0 101 87" fill="none" xmlns="http://www.w3.org/2000/svg">
<path d="M96.2909 66.5404C90.9542 69.322 63.3089 80.6888 57.4233 83.7572C51.5378 86.8259 48.2682 86.7962 43.6186 84.5736C38.9694 82.3509 9.54988 70.4673 4.25027 67.9341C1.60183 66.6685 0.208862 65.5997 0.208862 64.5904V54.4826C0.208862 54.4826 38.5096 46.1447 44.6928 43.9263C50.8757 41.708 53.021 41.6279 58.2827 43.5552C63.5452 45.4833 95.0085 51.1599 100.209 53.0646L100.207 63.0294C100.207 64.0287 99.0073 65.1247 96.2909 66.5404Z" fill="#912626"/>
<path d="M96.2889 56.4923C90.9526 59.2728 63.3081 70.6399 57.4225 73.7079C51.5374 76.777 48.2679 76.747 43.6186 74.5243C38.969 72.3032 9.55066 60.4177 4.25144 57.886C-1.04777 55.3528 -1.15871 53.6095 4.04676 51.5712C9.25223 49.5321 38.5093 38.0536 44.6932 35.8353C50.8761 33.6177 53.021 33.5369 58.2827 35.465C63.5448 37.3923 91.0245 48.3302 96.2241 50.2345C101.426 52.1411 101.625 53.711 96.2889 56.4923Z" fill="#C6302B"/>
<path d="M96.2909 50.1853C90.9542 52.9673 63.3089 64.3337 57.4233 67.4033C51.5378 70.4708 48.2682 70.4411 43.6186 68.2185C38.969 65.997 9.54988 54.1122 4.25027 51.579C1.60183 50.3134 0.208862 49.2462 0.208862 48.2365V38.1275C0.208862 38.1275 38.5096 29.79 44.6928 27.5716C50.8757 25.3533 53.021 25.2728 58.2827 27.2005C63.5456 29.1283 95.0089 34.8037 100.209 36.7087L100.207 46.6747C100.207 47.6736 99.0073 48.7697 96.2909 50.1853Z" fill="#912626"/>
<path d="M96.2889 40.1372C90.9526 42.9185 63.3081 54.2849 57.4225 57.354C51.5374 60.422 48.2679 60.3919 43.6186 58.1693C38.969 55.9482 9.55066 44.063 4.25144 41.531C-1.04777 38.9986 -1.15871 37.2548 4.04676 35.2158C9.25223 33.1779 38.5096 21.6986 44.6932 19.4806C50.8761 17.2626 53.021 17.1822 58.2827 19.1099C63.5448 21.0372 91.0245 31.9744 96.2241 33.8794C101.426 35.7857 101.625 37.356 96.2889 40.1372Z" fill="#C6302B"/>
<path d="M96.2909 33.224C90.9542 36.0052 63.3089 47.3725 57.4233 50.442C51.5378 53.51 48.2682 53.4799 43.6186 51.2572C38.969 49.0357 9.54988 37.1506 4.25027 34.6185C1.60183 33.3517 0.208862 32.2842 0.208862 31.2756V21.1662C0.208862 21.1662 38.5096 12.829 44.6928 10.6111C50.8757 8.39232 53.021 8.31263 58.2827 10.24C63.5456 12.1677 95.0089 17.8431 100.209 19.7482L100.207 29.7138C100.207 30.7119 99.0073 31.808 96.2909 33.224Z" fill="#912626"/>
<path d="M96.2889 23.1759C90.9526 25.9572 63.3081 37.3244 57.4225 40.3923C51.5374 43.4603 48.2678 43.4302 43.6186 41.2088C38.9694 38.9861 9.55065 27.1017 4.25182 24.5693C-1.04779 22.0373 -1.15833 20.2931 4.04674 18.2544C9.25221 16.2162 38.5096 4.73842 44.6932 2.51967C50.876 0.30131 53.021 0.221622 58.2827 2.14936C63.5448 4.07709 91.0245 15.0142 96.2241 16.9193C101.426 18.824 101.625 20.3947 96.2889 23.1759Z" fill="#C6302B"/>
<path d="M62.4289 13.3427L53.8312 14.2353L51.9066 18.8665L48.798 13.6986L38.8702 12.8064L46.278 10.1349L44.0554 6.03412L50.9909 8.74662L57.5292 6.606L55.7621 10.8462L62.4289 13.3427ZM51.3933 35.8106L35.3476 29.1556L58.3398 25.6263L51.3933 35.8106ZM29.1472 15.9169C35.9343 15.9169 41.4362 18.0497 41.4362 20.6802C41.4362 23.3114 35.9343 25.4439 29.1472 25.4439C22.36 25.4439 16.8581 23.311 16.8581 20.6802C16.8581 18.0497 22.36 15.9169 29.1472 15.9169Z" fill="white"/>
<path d="M72.5897 14.6087L86.1976 19.9861L72.6014 25.3584L72.5897 14.6087Z" fill="#621B1C"/>
<path d="M57.535 20.5638L72.5897 14.6087L72.6014 25.3584L71.1253 25.9357L57.535 20.5638Z" fill="#9A2928"/>
</svg>
