<svg width="101" height="101" viewBox="0 0 101 101" fill="none" xmlns="http://www.w3.org/2000/svg">
<g clip-path="url(#clip0_203_2131)">
<path fill-rule="evenodd" clip-rule="evenodd" d="M67.1817 68.4783V36.1564C67.1816 35.6036 66.962 35.0736 66.5711 34.6828C66.1802 34.292 65.6501 34.0725 65.0974 34.0725H32.8133V0.708984H98.424C98.6977 0.70893 98.9688 0.762803 99.2217 0.867526C99.4746 0.972249 99.7045 1.12577 99.8981 1.31932C100.092 1.51287 100.245 1.74267 100.35 1.99557C100.455 2.24848 100.509 2.51955 100.509 2.7933V68.4783H67.1817Z" fill="#8E75FF"/>
<path opacity="0.405" fill-rule="evenodd" clip-rule="evenodd" d="M32.8133 0.708984V34.0725H2.00049C1.79442 34.0724 1.59299 34.0113 1.42165 33.8968C1.25031 33.7823 1.11675 33.6196 1.03785 33.4292C0.958941 33.2389 0.938231 33.0294 0.978334 32.8272C1.01844 32.6251 1.11755 32.4394 1.26316 32.2936L32.8133 0.708984ZM67.1817 99.3235V68.4783H100.509L68.961 100.06C68.8153 100.206 68.6296 100.305 68.4275 100.345C68.2254 100.385 68.0159 100.365 67.8254 100.286C67.635 100.207 67.4723 100.074 67.3577 99.9023C67.2431 99.731 67.1819 99.5296 67.1817 99.3235ZM32.8133 34.0725H66.1394C66.4158 34.0725 66.6808 34.1822 66.8763 34.3776C67.0718 34.573 67.1816 34.838 67.1817 35.1144V68.4783H34.8976C34.6239 68.4783 34.3528 68.4244 34.1 68.3196C33.8471 68.2149 33.6173 68.0614 33.4238 67.8678C33.2302 67.6743 33.0767 67.4445 32.9719 67.1916C32.8672 66.9387 32.8133 66.6677 32.8133 66.394V34.0725Z" fill="#8E75FF"/>
</g>
<defs>
<clipPath id="clip0_203_2131">
<rect width="100" height="100" fill="white" transform="translate(0.764557 0.505859)"/>
</clipPath>
</defs>
</svg>
