<svg width="97" height="101" viewBox="0 0 97 101" fill="none" xmlns="http://www.w3.org/2000/svg">
<path d="M96.4884 60.0628C95.907 58.2971 94.3841 57.0674 92.4146 56.7723C91.4859 56.6332 90.4224 56.6925 89.1638 56.9527C86.9701 57.4065 85.3426 57.5793 84.1548 57.6127C88.6381 50.0225 92.2835 41.3669 94.3822 33.2191C97.7758 20.0444 95.9623 14.0424 93.8432 11.3276C88.2351 4.14188 80.053 0.281621 70.182 0.163504C64.9162 0.0989388 60.2936 1.14148 57.8821 1.8912C55.6369 1.49393 53.2227 1.27213 50.6896 1.23111C45.9413 1.15515 41.7459 2.19314 38.161 4.32646C36.1763 3.65346 32.9911 2.70473 29.3126 2.09933C20.6612 0.675091 13.6885 1.78486 8.58822 5.39787C2.41233 9.77237 -0.450642 17.3729 0.0788502 27.9882C0.247015 31.3585 2.12713 41.613 5.08743 51.3381C6.78878 56.928 8.60299 61.5699 10.4797 65.1361C13.1412 70.1931 15.989 73.1711 19.186 74.2406C20.9779 74.8392 24.2336 75.2585 27.6579 72.3986C28.0919 72.9258 28.671 73.4495 29.4395 73.936C30.4156 74.5532 31.609 75.0576 32.8009 75.3565C37.0963 76.4332 41.1198 76.1639 44.5524 74.6546C44.5736 75.2669 44.5899 75.8517 44.6035 76.3569C44.6262 77.1761 44.649 77.9794 44.6789 78.7306C44.8823 83.81 45.2269 87.7595 46.248 90.5229C46.3041 90.6748 46.3795 90.9065 46.459 91.1522C46.9684 92.7162 47.8202 95.3346 49.9874 97.3851C52.2315 99.5093 54.946 100.161 57.4321 100.161C58.679 100.161 59.8686 99.9966 60.9121 99.7725C64.6314 98.973 68.8556 97.7554 71.9114 93.3923C74.8005 89.2677 76.2049 83.0553 76.459 73.2668C76.492 72.99 76.5223 72.7256 76.5514 72.4738L76.612 71.9565L77.2926 72.0165L77.468 72.0283C81.2562 72.2015 85.8884 71.396 88.7331 70.0708C90.981 69.0249 98.1845 65.2113 96.4884 60.0628Z" fill="black"/>
<path d="M90.0112 61.064C78.7471 63.3941 77.9726 59.5699 77.9726 59.5699C89.8653 41.874 94.8372 19.4116 90.5471 13.9141C78.8422 -1.08223 58.581 6.01011 58.2427 6.19393L58.134 6.21368C55.9085 5.75033 53.4182 5.4746 50.6189 5.42864C45.5224 5.34509 41.6561 6.76857 38.7223 8.9995C38.7223 8.9995 2.57824 -5.93186 4.25951 27.7782C4.61705 34.9495 14.51 82.041 26.3096 67.8172C30.6224 62.6159 34.7898 58.2182 34.7898 58.2182C36.8593 59.5969 39.3371 60.3003 41.9345 60.0477L42.1364 59.876C42.0735 60.5217 42.1023 61.1533 42.2171 61.9011C39.1772 65.3068 40.0707 65.9046 33.994 67.159C27.845 68.4298 31.4572 70.6919 33.8156 71.2836C36.6748 72.0003 43.2893 73.0159 47.7586 66.742L47.5806 67.4579C48.7713 68.4146 49.6076 73.6802 49.4675 78.4538C49.3273 83.2271 49.2338 86.5044 50.172 89.0642C51.1109 91.6241 52.046 97.3837 60.0346 95.6674C66.7093 94.2329 70.1684 90.5158 70.6498 84.3152C70.9911 79.9073 71.7641 80.559 71.8126 76.6179L72.4326 74.7523C73.1473 68.777 72.5462 66.8491 76.6583 67.7458L77.6582 67.8339C80.6844 67.9718 84.6462 67.3455 86.9713 66.2619C91.9776 63.9323 94.9478 60.042 90.0112 61.064Z" fill="#336791"/>
<path d="M40.838 30.9852C39.823 30.8436 38.9038 30.9746 38.4387 31.3278C38.1773 31.5264 38.0963 31.7566 38.0743 31.915C38.016 32.3346 38.3091 32.7987 38.4894 33.038C38.9992 33.7156 39.7438 34.1812 40.4809 34.2837C40.5877 34.2989 40.6941 34.3058 40.7998 34.3058C42.0288 34.3058 43.1465 33.346 43.245 32.6377C43.3681 31.7505 42.0838 31.1588 40.838 30.9852ZM74.465 31.0133C74.368 30.3179 73.1341 30.1197 71.963 30.283C70.7934 30.4463 69.6594 30.9757 69.7541 31.6727C69.8298 32.2146 70.8059 33.1398 71.9611 33.1398C72.0588 33.1398 72.1573 33.1333 72.2565 33.1193C73.0276 33.0122 73.5935 32.5211 73.8624 32.2382C74.2714 31.8067 74.5085 31.3259 74.465 31.0133Z" fill="white"/>
<path d="M93.7594 60.7994C93.3299 59.497 91.9474 59.0781 89.6507 59.5536C82.8313 60.965 80.3891 59.9874 79.5873 59.3953C84.8879 51.298 89.2485 41.5098 91.6009 32.3776C92.7152 28.0517 93.3306 24.0342 93.381 20.7596C93.4367 17.1655 92.8261 14.5244 91.5672 12.911C86.4912 6.407 79.0411 2.91817 70.0231 2.82246C63.8233 2.75258 58.5852 4.34355 57.5698 4.79096C55.4313 4.25772 53.1001 3.93033 50.5621 3.88856C45.908 3.81298 41.885 4.93034 38.5542 7.20799C37.1074 6.66792 33.3684 5.38078 28.7957 4.64208C20.8904 3.36595 14.6085 4.33292 10.1256 7.51753C4.77651 11.3178 2.30705 18.1108 2.78541 27.7076C2.94638 30.9362 4.78105 40.8687 7.67622 50.3808C11.4872 62.9004 15.63 69.9878 19.9886 71.4459C20.4988 71.6164 21.087 71.7357 21.7358 71.7357C23.3258 71.7357 25.2752 71.0171 27.3034 68.5719C29.7773 65.5961 32.3363 62.6924 34.9773 59.8647C36.6908 60.7868 38.5732 61.3018 40.4984 61.3535C40.5021 61.404 40.5071 61.4545 40.5116 61.5047C40.1802 61.9009 39.8557 62.3029 39.5382 62.7105C38.2043 64.4086 37.9266 64.7622 33.6327 65.6486C32.4113 65.9016 29.1673 66.5719 29.1196 68.8522C29.068 71.3437 32.9544 72.39 33.3972 72.5009C34.9402 72.8883 36.4268 73.0794 37.8444 73.0794C41.2922 73.0794 44.3264 71.943 46.7511 69.7444C46.6765 78.6263 47.0458 87.3784 48.1093 90.045C48.9805 92.228 51.1083 97.563 57.8296 97.5627C58.8159 97.5627 59.9014 97.4476 61.0956 97.1908C68.1104 95.6831 71.1567 92.574 72.335 85.7198C72.9656 82.0567 74.0477 73.3095 74.5567 68.6175C75.6309 68.9536 77.0137 69.1075 78.5086 69.1071C81.6265 69.1071 85.2242 68.4428 87.4805 67.3927C90.0151 66.2123 94.5888 63.3159 93.7594 60.7994ZM77.0542 29.0938C77.0311 30.479 76.841 31.7365 76.6395 33.0491C76.4225 34.4608 76.1982 35.9203 76.1418 37.6921C76.0861 39.4164 76.3009 41.209 76.5084 42.9428C76.9281 46.4445 77.3587 50.0496 75.6918 53.6068C75.415 53.1148 75.1683 52.6063 74.9533 52.0842C74.7461 51.5805 74.2961 50.7716 73.6731 49.6519C71.2495 45.2934 65.5739 35.0867 68.4793 30.9218C69.3447 29.6821 71.5411 28.4075 77.0542 29.0938ZM70.3715 5.62727C78.4518 5.80616 84.8436 8.83732 89.3689 14.6361C92.8398 19.0839 89.0178 39.3222 77.9534 56.7819C77.8421 56.64 77.7302 56.4986 77.6178 56.3576L77.4777 56.1822C80.3368 51.4472 79.7778 46.7624 79.2801 42.609C79.0756 40.9044 78.8824 39.2945 78.9317 37.7821C78.9824 36.1794 79.1938 34.8045 79.3983 33.4752C79.6494 31.8371 79.9051 30.1421 79.8346 28.144C79.8873 27.9343 79.9085 27.6867 79.8808 27.3927C79.7009 25.4766 77.5193 19.7421 73.0728 14.5518C70.6404 11.7128 67.0935 8.53576 62.2504 6.39294C64.3335 5.95997 67.1821 5.55625 70.3715 5.62727ZM25.1571 66.7823C22.9224 69.4766 21.3794 68.9601 20.8719 68.7907C17.5654 67.6847 13.7287 60.6767 10.346 49.5638C7.41905 39.9481 5.70861 30.2788 5.57302 27.5674C5.14579 18.9924 7.21869 13.0162 11.7345 9.80467C19.0838 4.57865 31.1667 7.70666 36.0219 9.29308C35.9522 9.3622 35.8795 9.42677 35.8106 9.49703C27.8432 17.5655 28.0322 31.3506 28.0519 32.1934C28.0511 32.5185 28.0784 32.9788 28.1155 33.6119C28.2526 35.9306 28.5079 40.2459 27.8261 45.1327C27.1929 49.674 28.5889 54.1187 31.6557 57.3276C31.9704 57.6563 32.3012 57.9692 32.6469 58.265C31.2818 59.731 28.3151 62.973 25.1571 66.7823ZM33.671 55.3911C31.1993 52.8046 30.0767 49.2072 30.5906 45.5201C31.3102 40.3579 31.0447 35.8618 30.902 33.4463C30.8819 33.1083 30.8641 32.8121 30.8539 32.5785C32.0178 31.5435 37.4115 28.6457 41.2581 29.5295C43.0133 29.9324 44.0828 31.1311 44.5275 33.1926C46.8288 43.8661 44.832 48.3147 43.2276 51.8897C42.897 52.6261 42.5845 53.3223 42.3179 54.0424L42.1111 54.5992C41.5876 56.0067 41.1006 57.3155 40.7987 58.5582C38.1709 58.5506 35.6147 57.4252 33.671 55.3911ZM34.0744 69.7854C33.307 69.5932 32.6169 69.2594 32.2121 68.9825C32.5503 68.823 33.1521 68.6057 34.1959 68.39C39.2473 67.3475 40.0276 66.6114 41.7312 64.4424C42.1217 63.9449 42.5644 63.3812 43.1776 62.6946L43.1784 62.6938C44.0916 61.6684 44.5093 61.8423 45.2668 62.1575C45.8808 62.412 46.4788 63.1837 46.7212 64.033C46.836 64.434 46.9648 65.1952 46.5432 65.7876C42.9845 70.7843 37.7986 70.7201 34.0744 69.7854ZM60.5108 94.454C54.3311 95.7818 52.143 92.62 50.7011 89.0054C49.7705 86.672 49.313 76.1493 49.6376 64.5286C49.6418 64.374 49.6198 64.2248 49.5774 64.0842C49.5394 63.8068 49.4817 63.5323 49.4047 63.2631C48.9221 61.5723 47.7461 60.1579 46.3353 59.5715C45.7747 59.3387 44.746 58.9114 43.5098 59.2285C43.7734 58.1393 44.2306 56.9091 44.7263 55.5771L44.9343 55.0169C45.1683 54.3853 45.4623 53.731 45.7728 53.0382C47.4518 49.298 49.7512 44.1749 47.2556 32.6013C46.3209 28.2663 43.1992 26.1493 38.4671 26.6411C35.6303 26.9355 33.0347 28.0832 31.7401 28.7414C31.4617 28.8827 31.2072 29.0194 30.9694 29.1523C31.3307 24.7847 32.6957 16.622 37.802 11.4575C41.0172 8.20648 45.299 6.60069 50.5159 6.68729C60.7952 6.85592 67.387 12.1457 71.1071 16.5541C74.3128 20.3524 76.0486 24.1789 76.7414 26.2427C71.5317 25.7114 67.9884 26.7425 66.1924 29.3175C62.2848 34.9188 68.3301 45.7901 71.2355 51.015C71.7684 51.9725 72.2282 52.8001 72.3729 53.1518C73.319 55.4511 74.5439 56.9862 75.4381 58.1066C75.7123 58.4499 75.9782 58.783 76.1804 59.0739C74.6026 59.5301 71.7684 60.584 72.0267 65.8522C71.8184 68.4956 70.3371 80.8717 69.5845 85.2443C68.591 91.021 66.4712 93.1722 60.5108 94.454ZM86.3052 64.8541C84.6917 65.605 81.9916 66.1682 79.4267 66.2894C76.5937 66.4223 75.1514 65.9711 74.812 65.6934C74.6529 62.4105 75.8714 62.0675 77.161 61.7044C77.3636 61.6475 77.5614 61.5916 77.7523 61.5248C77.8708 61.6216 78.0007 61.7177 78.1431 61.8119C80.4202 63.319 84.4815 63.4815 90.2154 62.2946L90.2783 62.2821C89.5049 63.0071 88.1815 63.9802 86.3052 64.8541Z" fill="white"/>
</svg>
