<svg width="89" height="101" viewBox="0 0 89 101" fill="none" xmlns="http://www.w3.org/2000/svg">
<path d="M44.635 0.121094L0.443359 25.1211V75.1211L44.635 100.121L88.8267 75.1211V25.1211L44.635 0.121094Z" fill="white"/>
<path d="M8.33512 73.396L43.1768 93.1044V77.7544L21.4684 65.8127L8.33512 73.396ZM5.95178 71.2377V30.021L18.7018 37.3794V63.871L5.95178 71.2377ZM81.0768 73.396L46.2351 93.1044V77.7544L67.9435 65.8127L81.0768 73.396ZM83.4601 71.2377V30.021L70.7101 37.3794V63.871L83.4601 71.2377ZM81.9685 27.3544L46.2351 7.1377V21.9794L69.1268 34.571L69.3018 34.671L81.9685 27.3544ZM7.44344 27.3544L43.1768 7.1377V21.9794L20.2851 34.571L20.1101 34.671L7.44344 27.3544Z" fill="#8ED6FB"/>
<path d="M46.235 74.2627L67.6516 62.4877V39.1544L46.235 51.5211V74.2627ZM43.1767 74.2627L21.76 62.4877V39.1544L43.1767 51.5211V74.2627ZM66.2016 36.4544L44.7016 24.6294L23.2017 36.4544L44.7016 48.8711L66.2016 36.4544Z" fill="#1C78C0"/>
</svg>
