<svg width="101" height="99" viewBox="0 0 101 99" fill="none" xmlns="http://www.w3.org/2000/svg">
<path d="M4.70139 4.73462H96.368V93.9012H4.70139V4.73462Z" fill="#2E001E"/>
<path d="M0.534698 0.567871V98.0678H100.535V0.567871H0.534698ZM4.70139 4.73462H96.368V93.9012H4.70139V4.73462Z" fill="#FF2BC2"/>
<path d="M73.1597 41.5262C72.5347 41.2345 71.743 41.1095 70.743 41.1095C65.493 41.1095 61.993 45.1512 61.993 51.8595C61.993 59.5261 65.5764 62.6094 70.243 62.6094C71.243 62.6094 72.3263 62.4844 73.118 62.1511V41.5262H73.1597ZM54.493 52.1928C54.493 42.4845 60.743 34.9012 70.993 34.9012C71.868 34.9012 72.3264 34.9012 73.1597 34.9845V24.1512C73.1597 23.9012 73.368 23.7345 73.5763 23.7345H80.2847C80.618 23.7345 80.7013 23.8595 80.7013 24.0679V62.1511C80.7013 63.2761 80.7013 64.6928 80.9097 66.2344C80.9097 66.5261 80.9097 66.5678 80.6597 66.6928C77.1597 68.3594 73.493 69.1094 69.993 69.1094C60.9513 69.1094 54.493 63.5261 54.493 52.1928ZM40.2847 45.4428L51.9514 68.0678C52.1597 68.4011 52.0347 68.7344 51.7014 68.7344H44.4514C43.993 68.7344 43.7847 68.6094 43.5764 68.1928C40.9097 62.6928 38.2014 56.9845 35.4097 51.0678H35.3264C32.8264 56.6511 30.0764 62.7344 27.4097 68.2344C27.2014 68.5678 26.993 68.6928 26.6597 68.6928H19.743C19.3264 68.6928 19.2847 68.3594 19.493 68.1094L30.9097 46.1511L19.868 24.3179C19.618 23.9845 19.868 23.6929 20.1597 23.6929H27.3264C27.743 23.6929 27.9514 23.7762 28.0764 24.1512C30.7014 29.6929 33.368 35.1512 35.868 40.7345H35.9514C38.368 35.2345 41.0347 29.6929 43.5764 24.2345C43.7847 23.9012 43.9097 23.6929 44.3264 23.6929H51.0347C51.368 23.6929 51.493 23.9429 51.2847 24.3179L40.2847 45.4428Z" fill="#FF2BC2"/>
</svg>
