<svg width="101" height="101" viewBox="0 0 101 101" fill="none" xmlns="http://www.w3.org/2000/svg">
<path d="M50.4959 0.65664C50.4959 0.65664 79.865 -0.665306 95.4303 28.8505H47.9985C47.9985 28.8505 39.0405 28.5558 31.4043 39.424C29.2021 43.9767 26.8531 48.6758 29.4958 57.9256C25.6781 51.4658 9.2309 22.8303 9.2309 22.8303C9.2309 22.8303 20.8331 1.83092 50.4959 0.65664Z" fill="#C6352E"/>
<path d="M93.9015 75.5965C93.9015 75.5965 80.3581 101.689 47.0131 100.406C51.1266 93.2861 70.7346 59.3324 70.7346 59.3324C70.7346 59.3324 75.4685 51.7228 69.8787 39.6755C67.0371 35.4911 64.1433 31.1065 54.8101 28.7687C62.3162 28.6942 95.3361 28.7735 95.3361 28.7735C95.3361 28.7735 107.719 49.3218 93.9015 75.5965Z" fill="#F4D911"/>
<path d="M7.29928 75.7948C7.29928 75.7948 -8.5248 51.0165 9.2606 22.7823C13.3705 29.9052 32.9679 63.865 32.9679 63.865C32.9679 63.865 37.1898 71.7693 50.4189 72.9529C55.4619 72.5851 60.7071 72.2713 67.3985 65.3584C63.7092 71.8948 47.1285 100.452 47.1285 100.452C47.1285 100.452 23.1426 100.899 7.29928 75.7948Z" fill="#81B354"/>
<path d="M47.0131 100.648L53.685 72.8068C53.685 72.8068 61.021 72.2344 67.1678 65.4879C63.3519 72.2006 47.0131 100.648 47.0131 100.648Z" fill="#7BAA50"/>
<path d="M28.1507 50.9593C28.1507 38.6862 38.0991 28.7367 50.3734 28.7367C62.6465 28.7367 72.5958 38.6859 72.5958 50.9593C72.5958 63.2331 62.647 73.1828 50.3734 73.1828C38.0991 73.1828 28.1507 63.2333 28.1507 50.9593Z" fill="white"/>
<path d="M31.87 50.9593C31.87 40.7407 40.1537 32.4568 50.3734 32.4568C60.5911 32.4568 68.8757 40.7407 68.8757 50.9593C68.8757 61.178 60.5911 69.4627 50.3734 69.4627C40.1537 69.4629 31.87 61.1776 31.87 50.9593Z" fill="url(#paint0_linear_203_196)"/>
<path d="M95.3361 28.7735L67.8634 36.8284C67.8634 36.8284 63.7209 30.7487 54.8101 28.7687C62.5311 28.7424 95.3361 28.7735 95.3361 28.7735Z" fill="#E7CE12"/>
<path d="M28.9617 56.9265C25.1007 50.2401 9.23179 22.8296 9.23179 22.8296L29.5832 42.9618C29.5832 42.9618 27.4918 47.2639 28.2848 53.4084L28.9617 56.9265Z" fill="#BC332C"/>
<defs>
<linearGradient id="paint0_linear_203_196" x1="50.6252" y1="1.35499" x2="50.6252" y2="97.6562" gradientUnits="userSpaceOnUse">
<stop stop-color="#A2C0E6"/>
<stop offset="1" stop-color="#406CB1"/>
</linearGradient>
</defs>
</svg>
