<svg width="84" height="101" viewBox="0 0 84 101" fill="none" xmlns="http://www.w3.org/2000/svg">
<path d="M14.6386 80.0521L4.95939 82.2605V19.5758L14.6386 21.7884V80.0521Z" fill="#F68536"/>
<path d="M26.7151 83.752L14.6386 87.1839V14.7382L26.7151 18.1659V83.752ZM42.2067 87.5534L26.7151 93.2228V8.69926L42.2067 14.3661V87.5534ZM83.6289 80.2411L42.2067 100.952V0.952148L83.6289 21.6632V80.2411Z" fill="#F68536"/>
<path d="M33.9497 5.08129L42.2067 0.952148V100.952L33.9497 96.8243V5.08129ZM20.3232 11.8937L26.7151 8.69796V93.2063L20.3232 90.0106V11.8937ZM9.54697 17.2827L14.6386 14.7369V87.1674L9.54697 84.62V17.2827ZM4.95939 19.5758L0.806641 21.6522V80.2534L4.9594 82.3285L4.95939 19.5758Z" fill="#9D5025"/>
</svg>
