<svg width="101" height="93" viewBox="0 0 101 93" fill="none" xmlns="http://www.w3.org/2000/svg">
<path d="M50.5958 92.9133L69.0087 36.2446H32.1825L50.5958 92.9133Z" fill="#E24329"/>
<path d="M50.5958 92.9133L32.1825 36.2446L6.37765 36.2441L50.5958 92.9133Z" fill="#FC6D26"/>
<path d="M6.37765 36.2441L0.782317 53.4656C0.533532 54.2312 0.533498 55.0559 0.782219 55.8215C1.03094 56.5871 1.51565 57.2544 2.16688 57.7276L50.5958 92.9133L6.37765 36.2441Z" fill="#FCA326"/>
<path d="M6.37765 36.2441L32.1825 36.2446L21.0931 2.11299C20.5223 0.356674 18.0378 0.357065 17.4675 2.11299L6.37765 36.2441Z" fill="#E24329"/>
<path d="M50.5958 92.9133L69.0087 36.2446L94.8139 36.2441L50.5958 92.9133Z" fill="#FC6D26"/>
<path d="M94.8139 36.2441L100.409 53.4656C100.658 54.2312 100.658 55.056 100.409 55.8216C100.16 56.5872 99.6755 57.2544 99.0242 57.7276L50.5958 92.9133L94.8139 36.2441Z" fill="#FCA326"/>
<path d="M94.8139 36.2441L69.0087 36.2446L80.0985 2.11299C80.6692 0.356674 83.1538 0.357065 83.7241 2.11299L94.8139 36.2441Z" fill="#E24329"/>
</svg>
