<svg width="101" height="101" viewBox="0 0 101 101" fill="none" xmlns="http://www.w3.org/2000/svg">
<path d="M92.2403 77.9911C86.7994 77.8534 82.5826 78.4058 79.0459 79.9244C78.0256 80.3383 76.3931 80.3387 76.2571 81.6505C76.8012 82.2029 76.8693 83.1005 77.3454 83.8596C78.1624 85.2401 79.5897 87.1044 80.8821 88.0714C82.3101 89.1757 83.7389 90.2801 85.2346 91.2467C87.8874 92.9038 90.8803 93.8701 93.4647 95.5272C94.9615 96.493 96.4568 97.7366 97.9532 98.7719C98.7014 99.3235 99.1772 100.222 100.13 100.567V100.36C99.6533 99.7382 99.5173 98.841 99.0416 98.1505C98.3621 97.4601 97.6811 96.8387 97.0009 96.1482C95.0287 93.4562 92.5804 91.1086 89.928 89.1758C87.7517 87.6567 82.9903 85.5858 82.1064 83.0311C82.1064 83.0311 82.038 82.9624 81.9704 82.8934C83.4664 82.7553 85.2346 82.2029 86.6634 81.7886C88.9757 81.1668 91.0839 81.3053 93.4647 80.6839C94.5526 80.4077 95.6409 80.0625 96.7289 79.7173V79.0962C95.5053 77.8534 94.621 76.1967 93.3286 75.0229C89.86 71.9845 86.0508 69.0163 82.1064 66.5311C79.9978 65.1502 77.277 64.2526 75.0327 63.0792C74.2172 62.6645 72.8564 62.4578 72.3807 61.7673C71.1559 60.2487 70.4757 58.2468 69.5919 56.4516C67.62 52.654 65.7151 48.443 64.0146 44.4392C62.791 41.7464 62.0428 39.0536 60.5463 36.5687C53.541 24.8321 45.9235 17.7212 34.2255 10.7479C31.7088 9.29837 28.7163 8.67696 25.5197 7.91785C23.82 7.84841 22.1191 7.71071 20.419 7.64127C19.3306 7.15795 18.2423 5.84648 17.29 5.22506C13.414 2.73941 3.41544 -2.64498 0.558972 4.46595C-1.27758 8.95314 3.27979 13.3713 4.84347 15.6502C6.0006 17.2379 7.49627 19.0327 8.31251 20.8278C8.78866 22.0008 8.92431 23.2445 9.40045 24.4869C10.4892 27.5237 11.5087 30.9074 12.9375 33.7382C13.6857 35.1878 14.5016 36.7064 15.4539 38.0183C15.998 38.7774 16.9499 39.123 17.1544 40.3655C16.2025 41.7464 16.1341 43.8178 15.5895 45.5435C13.1412 53.3449 14.0939 63.0101 17.5621 68.7402C18.6501 70.4655 21.2348 74.2638 24.7035 72.8135C27.7644 71.571 27.0842 67.6358 27.9677 64.1839C28.1725 63.3546 28.0365 62.803 28.4442 62.2506V62.3891C29.3965 64.3216 30.3484 66.1862 31.2326 68.1191C33.3413 71.5016 37.0136 75.0229 40.0741 77.3705C41.707 78.6125 42.999 80.7529 45.0396 81.5125V81.3049H44.9032C44.4951 80.6835 43.8829 80.4077 43.3391 79.924C42.1151 78.682 40.7543 77.163 39.8024 75.782C36.9464 71.9155 34.4292 67.6354 32.1849 63.2169C31.097 61.0772 30.1443 58.7297 29.2605 56.5897C28.8519 55.7603 28.8519 54.5183 28.1721 54.1044C27.1518 55.623 25.6558 56.9349 24.9075 58.7987C23.6159 61.7673 23.4795 65.4263 23.0034 69.2231C22.7313 69.2929 22.8669 69.2231 22.7309 69.362C20.555 68.8088 19.8068 66.5311 18.9902 64.5978C16.9495 59.6963 16.6094 51.8259 18.3784 46.1649C18.8545 44.715 20.8951 40.1587 20.0789 38.7778C19.6707 37.4659 18.31 36.7064 17.5621 35.6711C16.6782 34.3593 15.7256 32.703 15.1138 31.2526C13.4813 27.3864 12.665 23.106 10.8969 19.2398C10.0807 17.4446 8.65301 15.5812 7.49627 13.9241C6.20427 12.0602 4.77585 10.7479 3.75554 8.53887C3.41583 7.77976 2.93929 6.53693 3.48346 5.70838C3.6195 5.15602 3.89119 4.94928 4.43574 4.81118C5.32001 4.05128 7.83676 5.01793 8.72025 5.4322C11.237 6.4671 13.3452 7.43453 15.4539 8.8841C16.4058 9.57456 17.4261 10.8864 18.6501 11.2317H20.0785C22.2551 11.7146 24.7031 11.3698 26.7437 11.9908C30.3488 13.1641 33.613 14.8903 36.5378 16.7545C45.4477 22.4846 52.7924 30.6312 57.7579 40.3655C58.5741 41.9527 58.9138 43.4035 59.662 45.0598C61.0909 48.443 62.859 51.8949 64.2867 55.2087C65.7151 58.4531 67.0751 61.7673 69.1157 64.4601C70.136 65.9093 74.2165 66.6692 76.053 67.4287C77.4134 68.0497 79.522 68.6024 80.746 69.3616C83.0583 70.8107 85.3706 72.4686 87.5473 74.0559C88.6356 74.8844 92.0358 76.6106 92.2403 77.9911Z" fill="#00546B"/>
<path d="M22.8665 17.9966C21.7106 17.9966 20.8947 18.1355 20.0785 18.3422V18.4803H20.2145C20.7591 19.585 21.7106 20.3445 22.3904 21.3108C22.935 22.4151 23.4107 23.5203 23.9553 24.625C24.0229 24.5555 24.0909 24.4869 24.0909 24.4869C25.0436 23.796 25.5193 22.6917 25.5193 21.0346C25.1112 20.5517 25.0432 20.0684 24.7031 19.585C24.2954 18.8942 23.4107 18.5493 22.8665 17.9966Z" fill="#00546B"/>
</svg>
