<svg width="101" height="90" viewBox="0 0 101 90" fill="none" xmlns="http://www.w3.org/2000/svg">
<path d="M50.5218 53.7298C55.3909 53.7298 59.338 49.7826 59.338 44.9135C59.338 40.0444 55.3909 36.0973 50.5218 36.0973C45.6527 36.0973 41.7056 40.0444 41.7056 44.9135C41.7056 49.7826 45.6527 53.7298 50.5218 53.7298Z" fill="#61DAFB"/>
<path d="M50.5218 53.7298C55.3909 53.7298 59.338 49.7826 59.338 44.9135C59.338 40.0444 55.3909 36.0973 50.5218 36.0973C45.6527 36.0973 41.7056 40.0444 41.7056 44.9135C41.7056 49.7826 45.6527 53.7298 50.5218 53.7298Z" stroke="#61DAFB" stroke-width="5"/>
<path d="M50.5218 62.976C76.6485 62.976 97.8284 54.8891 97.8284 44.9135C97.8284 34.9378 76.6485 26.8509 50.5218 26.8509C24.395 26.8509 3.21515 34.9378 3.21515 44.9135C3.21515 54.8891 24.395 62.976 50.5218 62.976Z" stroke="#61DAFB" stroke-width="5"/>
<path d="M34.8791 53.9447C47.9425 76.5711 65.5358 90.87 74.175 85.8822C82.8142 80.8943 79.2277 58.5086 66.1643 35.8822C53.101 13.2558 35.5076 -1.04312 26.8684 3.94471C18.2292 8.93254 21.8157 31.3183 34.8791 53.9447Z" stroke="#61DAFB" stroke-width="5"/>
<path d="M34.8791 35.8822C21.8158 58.5086 18.2293 80.8943 26.8684 85.8822C35.5076 90.87 53.101 76.5711 66.1644 53.9447C79.2277 31.3183 82.8142 8.93253 74.1751 3.9447C65.5359 -1.04313 47.9425 13.2558 34.8791 35.8822Z" stroke="#61DAFB" stroke-width="5"/>
</svg>
