<svg width="73" height="101" viewBox="0 0 73 101" fill="none" xmlns="http://www.w3.org/2000/svg">
<path d="M72.7444 95.0503C72.7432 96.5531 72.1457 97.9939 71.0831 99.0565C70.0205 100.119 68.5797 100.717 67.077 100.718H6.60458C5.10185 100.718 3.66053 100.121 2.59709 99.0597C1.53365 97.9979 0.935012 96.5576 0.932619 95.0548V6.54327C0.932025 5.79825 1.07833 5.06042 1.36316 4.37199C1.64799 3.68357 2.06577 3.05806 2.59257 2.53125C3.11938 2.00444 3.74489 1.58667 4.43332 1.30184C5.12174 1.017 5.85956 0.870703 6.60458 0.871297H45.4142L72.7444 28.7434V95.0503Z" fill="#23A566"/>
<path d="M48.4218 28.0163L72.7444 51.2642V28.5808H51.1991C50.2584 28.5915 49.3311 28.3581 48.5076 27.9035L48.4218 28.0163Z" fill="#1C8F5A"/>
<path d="M72.7444 28.6983H51.1403C49.6376 28.6971 48.1968 28.0996 47.1342 27.037C46.0716 25.9744 45.4741 24.5336 45.4729 23.0308V0.717773L72.7444 28.6983Z" fill="#8ED1B1"/>
<path fill-rule="evenodd" clip-rule="evenodd" d="M55.453 82.311H18.0839V49.9095H55.453V82.311ZM39.0919 54.5834V60.2554H50.8603V54.5924L39.0919 54.5834ZM39.0919 63.8274V69.2465H50.8603V63.8004L39.0919 63.8274ZM39.0919 72.7012V77.7183H50.8603V72.6741L39.0919 72.7012ZM34.4721 77.6912V72.6741H22.7082V77.6912H34.4721ZM34.4721 69.1878V63.8004H22.7082V69.2149L34.4721 69.1878ZM34.4721 60.3141V54.5834H22.7082V60.2554L34.4721 60.3141Z" fill="white"/>
</svg>
