<svg width="101" height="40" viewBox="0 0 101 40" fill="none" xmlns="http://www.w3.org/2000/svg">
<path d="M68.7972 4.10439L68.7749 3.89014L68.4278 3.91982L68.4499 4.13389L68.7972 4.10439ZM71.131 9.71729L71.1384 9.83545L71.3821 9.81338C71.3747 9.73955 71.4042 9.62139 71.456 9.47373L71.4337 9.25947C71.3304 9.26689 71.2269 9.42197 71.131 9.71729ZM62.0245 16.7853C62.0099 16.5858 61.3894 15.8104 60.1634 14.444C60.1413 14.1931 60.5622 13.8163 61.4263 13.3216L63.8931 11.1724C64.447 10.4706 64.772 9.3333 64.8681 7.75283L64.8384 7.39092C64.7425 6.29795 63.9523 5.41904 62.453 4.74697C61.5667 4.14873 59.9714 3.81631 57.6671 3.75732C55.7616 3.91982 53.2728 4.59912 50.2077 5.80303C49.3657 6.40869 48.4058 7.01436 47.3275 7.61982L47.3421 7.80459C47.4087 7.79717 47.512 7.76025 47.6302 7.679C47.7558 7.66416 47.8296 7.72334 47.837 7.8415L48.0216 7.74541L48.1103 7.73799L48.1177 7.81924C48.1251 7.91533 47.4603 8.43975 46.1161 9.37764L46.2196 9.56963L46.131 9.57705L45.9093 9.4958C45.9167 9.56221 45.8208 9.60654 45.636 9.62139L45.6435 9.70264L45.8577 9.96846C45.7913 9.97588 45.6878 9.94639 45.5476 9.89463C45.2372 9.92412 44.9345 10.0866 44.6318 10.3968L44.7573 9.85029C45.2077 7.90791 45.5179 6.18701 45.6804 4.69521L45.6583 4.59912C45.3482 4.39971 45.0452 4.11904 44.7646 3.76455C44.772 3.53564 44.772 3.40283 44.7646 3.37314L44.7425 3.29189L44.6538 3.31416C43.679 4.77646 41.803 7.27275 39.0187 10.803C36.8991 13.3142 35.806 14.7101 35.7396 14.9907C34.8755 15.8843 34.4618 16.4235 34.5062 16.6081C34.2773 16.7558 34.1812 16.9034 34.2181 17.0659C34.1517 17.0808 34.1073 17.0587 34.0925 16.9921C33.7234 17.5903 33.1767 17.9743 32.4456 18.1442L31.6775 18.3216C31.5741 18.3437 31.5224 18.4175 31.5298 18.5431L31.5519 18.6392L31.84 18.5726L31.8622 18.6538L31.2122 18.905L30.0601 19.1708L29.4544 19.2077C29.3657 19.2964 29.9345 19.2005 29.713 19.2521L28.9597 19.4294C28.5017 19.5327 28.2507 19.4958 28.2064 19.3112L28.1177 19.3333C28.1325 19.4145 28.1398 19.4737 28.1251 19.5253L28.0808 19.3407L27.4751 19.481C27.4308 19.2005 26.611 18.1812 25.0232 16.4235C24.9937 16.0837 25.5548 15.5888 26.6997 14.9464L29.9345 12.1028C30.6583 11.1724 31.0866 9.68037 31.2271 7.62725L31.1827 7.14717C31.0571 5.69971 30.0083 4.53271 28.0364 3.63174C26.8694 2.8415 24.772 2.42041 21.7441 2.354C19.2329 2.56826 15.9536 3.46182 11.9212 5.02022C10.8134 5.8251 9.5505 6.62275 8.13253 7.41299L8.1546 7.66416C8.2507 7.65674 8.37609 7.60518 8.53116 7.5165C8.69366 7.50166 8.78234 7.57549 8.79718 7.72334L9.04816 7.58291L9.17374 7.57549L9.18116 7.69365C9.18859 7.81182 8.30968 8.49873 6.5298 9.7542L6.67003 9.97588L6.54464 9.9833L6.2712 9.88721C6.27863 9.96104 6.15304 10.0128 5.89464 10.0349L5.90929 10.1679L6.2048 10.4929C6.1089 10.5003 5.97589 10.4706 5.80597 10.4116C5.22999 10.4634 4.66866 10.8769 4.11476 11.6599L4.25499 11.8813C4.73507 11.4382 5.01573 11.2167 5.09698 11.2093L5.12648 11.5712C5.04523 11.5786 4.91964 11.6302 4.74991 11.7188L5.05265 12.1769C5.62455 11.5586 6.27225 11.0151 6.98038 10.5593C7.32745 10.6479 7.51202 10.7587 7.51945 10.8769L7.78527 10.8548C9.69073 9.44404 11.5741 8.4249 13.4427 7.79717L13.4648 8.04814C13.1177 8.56514 12.8814 8.83115 12.7558 8.8458C12.7706 9.02314 12.8296 9.17822 12.9403 9.31123C12.97 9.62881 12.1206 11.7706 10.3997 15.7292C6.49288 24.9315 3.21359 31.7409 0.547571 36.1429C0.554797 36.2313 0.606555 36.3495 0.702649 36.4974C1.35988 36.3423 1.77355 36.1798 1.9507 36.0245L2.09113 36.0099L2.1132 36.261L2.35695 36.2388L2.60812 36.0985C2.61554 36.1724 2.69679 36.2093 2.86652 36.1944L2.88878 36.4456C2.91085 36.6894 2.77062 37.0585 2.47511 37.5683C2.20929 37.871 1.9212 38.5062 1.61847 39.4737L1.6257 39.5919L1.86945 39.5696C2.93312 38.3806 3.738 37.2136 4.29191 36.0763C7.39386 35.1679 9.75734 34.2743 11.3968 33.3954C13.0439 33.255 14.2993 32.8192 15.1562 32.1028L15.1413 31.97L14.521 32.1546L14.3806 32.1694L14.3657 32.0364C15.5771 31.8519 16.4116 31.5858 16.8769 31.2167C19.2329 29.3997 21.0128 28.1147 22.2167 27.354C24.6907 25.5372 26.3009 23.7645 27.0319 22.0438C27.1703 22.0137 27.3082 21.9817 27.4456 21.9478C27.7927 21.9331 27.9847 21.9257 28.0364 21.9108C28.0216 21.8444 28.0513 21.8075 28.1177 21.7927C28.6716 21.7337 28.4058 21.8296 28.7603 21.7483L29.6907 21.5343C29.6318 21.5489 29.6095 21.5786 29.6243 21.6376L29.7646 21.5489C29.7351 21.5489 29.713 21.5417 29.6907 21.5343L29.8458 21.4974L29.772 21.5417C29.8755 21.5563 29.9862 21.5489 30.1118 21.5194L30.1782 21.7927L25.9464 28.521L25.0083 29.6952L24.5505 31.2313L24.6392 31.2093L25.097 31.0173L24.9493 31.6155L24.9937 31.7927L25.1191 31.9478C25.0601 31.9626 25.038 31.9995 25.0526 32.0659L25.0749 32.162L25.2669 32.1177C25.5476 31.8739 25.6657 31.6524 25.6214 31.453C25.9241 31.5046 26.1235 31.5269 26.2271 31.4974L26.2491 31.5933C26.0646 31.6376 25.9685 31.7853 25.9536 32.0364L25.9759 32.1325L26.0792 32.1103C27.6155 30.4337 31.3821 24.6952 34.4028 20.803C34.3067 20.3821 35.8798 19.7985 39.1294 19.0452L39.2329 19.0231C39.3511 19.5327 39.0999 20.7661 38.4796 22.7233C38.0808 23.905 37.8888 24.555 37.9183 24.6583C37.4013 26.2313 37.1575 27.0808 37.187 27.2138L36.0349 30.9876C35.289 32.9228 34.7204 34.9538 34.3216 37.0956C34.388 37.0808 34.4913 37.0882 34.6392 37.1251L34.8015 36.9847C34.8163 37.0513 34.8607 37.0733 34.9271 37.0585L34.8607 36.7853L35.3628 36.7706C35.5105 36.7337 35.636 36.5489 35.7396 36.2093C35.7173 35.6997 35.8208 35.4265 36.0497 35.3673C36.3599 34.1562 36.5519 33.5505 36.6185 33.5282C36.9064 32.3245 37.1206 31.6376 37.2609 31.4677C37.6968 29.9021 38.0142 29.097 38.221 29.0452L38.2653 29.2374L37.9478 30.0571C37.3939 32.5165 36.8325 34.4589 36.264 35.8843L36.4265 36.5933L36.5298 36.5712C37.9034 33.6169 39.8827 27.7677 42.4603 19.0231C42.5343 18.255 42.9034 17.6567 43.5609 17.2358L43.413 17.0808L43.3909 16.9995C43.6864 16.9331 43.8931 16.8149 44.0112 16.6524C43.9966 16.5858 43.738 16.4899 43.2359 16.3569L44.521 10.8474C44.8015 10.5962 44.964 10.4634 45.0157 10.4634L45.038 10.744C44.9714 10.7513 44.8681 10.7882 44.7499 10.8694L44.9937 11.2167C45.4366 10.7366 45.9167 10.3229 46.4411 9.97588C46.7069 10.0497 46.84 10.1384 46.8548 10.227L47.0468 10.2122C48.5091 9.14131 49.9419 8.37314 51.3525 7.90791L51.3673 8.09248C51.1089 8.48389 50.9316 8.6833 50.8355 8.69072C50.8503 8.82373 50.8872 8.94189 50.9536 9.04521C50.9759 9.28896 50.3407 10.9138 49.0409 13.9271C46.0718 20.9063 43.5829 26.0688 41.5593 29.422C41.5667 29.4884 41.611 29.5771 41.6923 29.6952C42.187 29.5771 42.5046 29.4515 42.6302 29.3333L42.7189 29.3259L42.7337 29.5106L42.9403 29.4958L43.1251 29.3997C43.1323 29.4515 43.1989 29.4737 43.3245 29.4663L43.3392 29.6657C43.354 29.8429 43.2507 30.1235 43.0216 30.5075C42.8075 30.7366 42.5859 31.2167 42.3495 31.9478L42.3569 32.0438L42.5489 32.029C43.354 31.128 43.9669 30.2417 44.388 29.3702C46.7439 28.6761 48.5386 28.004 49.7794 27.3392C51.0423 27.2284 51.995 26.9034 52.645 26.3569L52.6376 26.261L52.1575 26.4013L52.0542 26.4087L52.0468 26.3126C52.9626 26.1798 53.6052 25.9729 53.9523 25.6997C55.7396 24.3259 57.0911 23.3437 58.007 22.7677C60.8577 20.6923 62.187 18.6981 62.0245 16.7853ZM61.5372 16.9108L61.6036 17.6567C61.515 17.8415 61.4191 17.9374 61.3304 17.9448L61.2196 16.6745C61.4263 16.7483 61.5298 16.8222 61.5372 16.9108ZM5.61398 10.8991L5.48839 10.9063L5.46632 10.6774L5.97589 10.6331L5.98331 10.7513C5.90206 10.7587 5.77648 10.803 5.61398 10.8991ZM3.12511 35.7956C2.8296 35.6628 2.56378 35.611 2.33488 35.6331L2.30519 35.2712C2.29054 35.131 2.37179 35.0349 2.54894 34.9979C2.71144 34.9833 2.80753 35.1015 2.82218 35.3378C3.2507 34.8134 3.48702 34.5476 3.53136 34.5401L3.8046 34.6509C3.71593 35.3896 3.48702 35.7661 3.12511 35.7956ZM29.7204 7.97432C29.5948 7.98916 29.3437 7.59775 28.9818 6.82217L28.9597 6.59326C29.196 6.57119 29.4398 6.95518 29.6982 7.74541L29.7204 7.97432ZM29.3657 5.21963L29.2624 5.46338L25.6509 3.95674C28.0585 4.03799 29.2993 4.45889 29.3657 5.21963ZM14.1148 18.3142L13.6052 18.3585L13.5829 18.1294L14.0925 18.0853L14.1148 18.3142ZM13.7011 10.4485L13.8267 10.4411L13.8562 10.803C13.738 10.8104 13.5829 10.9876 13.3909 11.3274L13.3687 11.0763C13.5978 10.803 13.7159 10.5962 13.7011 10.4485ZM12.6302 12.9743L12.6745 13.4544L12.5489 13.4618L12.5046 12.9817L12.6302 12.9743ZM12.0689 13.8755L12.3126 13.8532C12.2905 14.2521 12.1798 14.4663 11.9804 14.481L11.8548 14.4884C12.0099 14.2226 12.0837 14.0157 12.0689 13.8755ZM11.648 15.131L11.7882 15.1161L11.7956 15.2343L11.5667 15.6185L11.323 15.6405L11.3155 15.5224C11.5593 15.5003 11.67 15.3747 11.648 15.131ZM11.2343 16.261L11.1605 16.8665L11.0349 16.8739L10.9833 16.2757L11.2343 16.261ZM7.09113 28.0409C6.92863 28.8681 6.75128 29.289 6.56671 29.3038L6.55929 29.1856C6.51495 28.7794 6.6923 28.3954 7.09113 28.0409ZM6.33038 29.6878L6.33781 29.806C6.35245 29.9685 6.27863 30.0646 6.11613 30.0718L6.1089 29.9536C6.09406 29.8134 6.16788 29.7247 6.33038 29.6878ZM6.1089 33.1073L6.49288 33.0704L6.50753 33.2034C6.41163 33.2106 6.28605 33.2624 6.13097 33.3511L5.88722 33.3731C5.87238 33.2478 5.95382 33.1517 6.1089 33.1073ZM17.0394 29.7321C14.8827 30.7956 13.6124 31.5194 13.2359 31.896C10.9021 32.7085 9.74249 33.2106 9.76456 33.4101C7.68937 34.23 6.32296 34.8356 5.66573 35.2122C5.51066 35.2271 5.28898 35.1679 4.99366 35.0349C4.95675 34.614 5.14874 34.2743 5.5548 34.0011C5.91671 33.9714 6.26378 34.0231 6.5962 34.1634C6.98038 33.964 7.65245 33.7425 8.60519 33.5062L8.58292 33.255L7.81495 33.3216C7.91085 33.1886 8.64933 32.8415 10.0378 32.2802L10.422 32.2433L10.4294 32.3614C9.77199 32.4204 9.41007 32.6126 9.32882 32.9597C9.34366 33.1147 9.43234 33.1812 9.59484 33.1665C10.0896 32.8562 10.3333 32.6716 10.3259 32.6198C11.264 32.4427 13.8562 31.0837 18.1028 28.5505L18.1251 28.7794C18.1325 28.8901 17.7706 29.2003 17.0394 29.7321ZM10.5253 31.8739C11.1458 31.8222 11.6775 31.5712 12.1206 31.1354C12.2978 31.1206 12.3939 31.187 12.4013 31.3421C12.0984 31.3718 11.515 31.6228 10.6657 32.1103L10.5401 32.1177L10.5253 31.8739ZM21.0349 23.8015L17.7778 26.3792C15.3554 27.9671 14.0556 28.7646 13.871 28.7794C10.0157 30.8991 7.61554 31.9995 6.68488 32.0808L6.54464 32.0954C6.66281 31.6599 8.37609 28.1517 11.6997 21.5489C13.162 21.4233 15.4663 20.744 18.6052 19.5032L19.3732 19.4366C20.961 19.2964 22.1501 19.6065 22.9331 20.3452L22.9773 20.8251C22.3864 22.5239 21.7366 23.5136 21.0349 23.8015ZM14.6687 20.2196L15.1931 20.1753L15.2003 20.2935L14.6761 20.3378L14.6687 20.2196ZM22.0319 18.9714L22.4161 18.9345C22.7706 19.1044 22.9552 19.252 22.97 19.3851L22.9773 19.5032C22.6376 19.5327 22.32 19.3556 22.0319 18.9714ZM23.0734 13.0409C22.7337 13.447 21.803 14.1413 20.2816 15.1161C19.7794 15.1604 17.9109 15.8843 14.6761 17.3022C14.5144 17.2283 14.3362 17.1979 14.1591 17.2138L14.1368 16.9847C14.0999 16.5194 14.3067 15.936 14.7646 15.227C15.0157 13.8976 15.289 13.1368 15.5919 12.9522L18.2876 6.88877C18.2579 6.51201 18.8341 6.22393 20.0157 6.02451L20.3997 5.9876L20.4294 6.33486C21.5888 6.15752 22.3126 6.0542 22.5933 6.03193C24.7351 5.84736 25.8503 6.28311 25.939 7.32451L26.1827 7.30225L26.131 6.68936L26.3968 6.66709C27.0245 7.01436 27.3644 7.43525 27.4087 7.92998C27.4382 8.26982 27.2536 8.69072 26.862 9.19307C26.6997 9.20771 26.6036 9.08955 26.5888 8.85322L26.323 8.87549L26.264 9.61396C25.1782 11.2388 24.388 12.0733 23.9005 12.1177C23.4573 12.7308 23.1841 13.0335 23.0734 13.0409ZM24.7276 17.2876C24.5062 17.1397 24.3288 17.0733 24.196 17.0808L24.1663 16.7188L24.4101 16.6968L24.9493 17.0144C24.9714 17.1841 24.8976 17.2728 24.7276 17.2876ZM26.4411 19.3185C26.6775 19.4146 26.8179 19.5179 26.8474 19.614L26.7292 19.6435L26.7366 19.6509C26.7144 19.6509 26.6849 19.6583 26.6626 19.6657L26.4855 19.806L26.4411 19.3185ZM26.6036 20.3378L26.5816 20.2417L26.8917 20.1679L26.9138 20.264L26.6036 20.3378ZM27.3495 21.1724C27.6671 21.1206 27.8222 21.0985 28.413 20.9655L28.4353 21.0616L27.3126 21.32C27.3275 21.2683 27.3421 21.2167 27.3495 21.1724ZM28.4427 21.6376C27.97 21.6819 28.0734 21.6228 27.32 21.7927L27.2978 21.6968L28.2359 21.3938L28.6864 21.2905L28.7306 21.4677C28.5312 21.512 28.679 21.512 28.4427 21.6376ZM29.4398 21.4013C29.3288 21.4308 29.2403 21.3792 29.1886 21.2536L29.4767 21.187C29.6021 21.1575 29.6833 21.2093 29.713 21.3349L29.4398 21.4013ZM32.1427 18.4913L32.1206 18.3954L32.5859 18.2847L32.6302 18.4618L32.1427 18.4913ZM35.0306 36.2019C35.0601 36.0688 35.0675 35.973 35.0527 35.9063L35.1562 35.8843C35.2816 35.8548 35.3554 35.8991 35.3851 36.0173L35.4071 36.1132L35.0306 36.2019ZM37.0542 19.2521L36.8474 19.2151C36.515 19.3481 36.2343 19.444 36.0054 19.4958L35.8134 19.5401C35.7027 19.5696 35.614 19.5253 35.5696 19.4071L36.9212 19.097L37.3644 18.8901L37.512 19.0601C37.2978 19.1044 37.1427 19.1708 37.0542 19.2521ZM38.0954 18.9196L38.0734 18.8237C38.1398 18.8089 38.2284 18.7573 38.3245 18.6612L39.2845 18.4397L39.3068 18.5356C38.7972 18.6612 38.3909 18.7868 38.0954 18.9196ZM38.2433 16.9772C38.1767 16.9921 38.0882 17.0513 37.9773 17.1397C37.9626 17.0733 37.8296 17.0733 37.5784 17.1325C37.5343 16.9478 38.2433 16.6894 39.713 16.3495L39.9196 16.3052L39.964 16.4825C38.93 16.7853 38.354 16.9552 38.2433 16.9772ZM40.8282 14.1856C40.7247 15.3599 40.3112 16.0247 39.58 16.1944L39.5579 16.0985L38.9079 16.3495L38.6198 16.4161C38.4722 16.453 38.3392 16.4456 38.221 16.4087L38.162 16.1501C38.1398 16.0542 39.0778 14.7542 40.9833 12.2579L41.2048 12.295C41.286 12.6347 41.1605 13.2624 40.8282 14.1856ZM45.3997 10.2712L45.3112 10.2786L45.2964 10.094L45.6804 10.0571L45.6878 10.153C45.6214 10.1679 45.5253 10.2048 45.3997 10.2712ZM43.5165 29.1856C43.2948 29.0821 43.0954 29.038 42.9257 29.0526L42.9034 28.772C42.896 28.6761 42.9552 28.6095 43.0808 28.5726C43.2064 28.5579 43.2802 28.6464 43.2948 28.8386C43.6124 28.4323 43.7898 28.2255 43.8267 28.2255L44.0261 28.3067C43.9523 28.8681 43.7823 29.1634 43.5165 29.1856ZM63.7085 8.06299C63.6124 8.07041 63.4278 7.7749 63.1398 7.17666L63.1251 6.99209C63.3097 6.97725 63.5017 7.26533 63.6937 7.85615L63.7085 8.06299ZM63.4427 5.95068L63.354 6.14268L60.6214 4.99795C62.4456 5.05713 63.3909 5.37471 63.4427 5.95068ZM51.8548 15.8991L51.4706 15.936L51.456 15.7513L51.84 15.7218L51.8548 15.8991ZM51.5372 9.92412L51.6405 9.9167L51.6626 10.1974C51.5667 10.2048 51.4486 10.3378 51.3081 10.5962L51.2935 10.4116C51.4634 10.1974 51.5445 10.0349 51.5372 9.92412ZM50.7321 11.8444L50.7616 12.2063L50.6583 12.2138L50.6286 11.8519L50.7321 11.8444ZM50.2964 12.5313L50.4884 12.5165C50.4663 12.8267 50.3851 12.9892 50.2446 13.004L50.1413 13.0112C50.2521 12.8046 50.3038 12.6421 50.2964 12.5313ZM49.9862 13.4767L50.0749 13.4692L50.0821 13.5651L49.9124 13.8606L49.7202 13.8755L49.713 13.7794C49.9124 13.7646 50.0009 13.6612 49.9862 13.4767ZM49.6761 14.3333L49.6095 14.806L49.5208 14.8134L49.4839 14.3481L49.6761 14.3333ZM46.5224 23.2919C46.3968 23.9124 46.264 24.23 46.1235 24.2446L46.1161 24.1634C46.0941 23.8532 46.2269 23.5579 46.5224 23.2919ZM45.939 24.5401L45.9462 24.6214C45.961 24.7542 45.9021 24.8282 45.7691 24.8354L45.7616 24.7395C45.7542 24.6435 45.8134 24.5771 45.939 24.5401ZM45.7765 27.1397L46.0718 27.1177L46.0792 27.2136C46.0128 27.221 45.9093 27.2579 45.7911 27.3245L45.5991 27.3392C45.5917 27.2358 45.6509 27.1694 45.7765 27.1397ZM54.0704 24.577C52.4456 25.3821 51.478 25.9286 51.1753 26.2093C49.4026 26.8296 48.5239 27.2138 48.5386 27.3689C46.9655 27.9966 45.9316 28.447 45.4441 28.7351C45.3259 28.7425 45.156 28.6981 44.9345 28.5948C44.905 28.2772 45.0527 28.0187 45.3628 27.8267C45.6435 27.8046 45.9093 27.8415 46.153 27.9448C46.4485 27.7972 46.9581 27.6347 47.6819 27.4501L47.6671 27.2653L47.0614 27.3097C47.1355 27.2063 47.704 26.9403 48.7603 26.512L49.0556 26.4899L49.063 26.5712C48.5609 26.6155 48.2802 26.7632 48.221 27.029C48.2284 27.1472 48.3023 27.2063 48.4278 27.1915C48.7972 26.9478 48.9743 26.8075 48.9743 26.7632C49.6833 26.6376 51.648 25.6036 54.8755 23.6687L54.8902 23.8532C54.8976 23.9345 54.6243 24.1708 54.0704 24.577ZM49.1222 26.2019C49.6021 26.1575 50.0083 25.9729 50.3482 25.6479C50.4735 25.6331 50.5476 25.6923 50.5548 25.8104C50.3333 25.8325 49.8976 26.0173 49.2402 26.3718L49.1368 26.3792L49.1222 26.2019ZM57.1132 20.0646L54.6538 22.0438C52.8148 23.2476 51.8179 23.8532 51.6626 23.8681C48.738 25.478 46.9212 26.3126 46.2048 26.3718L46.1015 26.3792C46.19 26.0468 47.4974 23.3806 50.0232 18.3731C51.1235 18.2772 52.8665 17.7528 55.2595 16.8075L55.8577 16.7558C57.0614 16.6524 57.9626 16.8888 58.5534 17.4573L58.5829 17.8192C58.1323 19.0896 57.645 19.8354 57.1132 20.0646ZM52.2831 17.3466L52.6671 17.3097L52.6745 17.4058L52.2905 17.4427L52.2831 17.3466ZM57.8739 16.3938L58.1694 16.3718C58.4427 16.5046 58.5829 16.6229 58.5903 16.7188L58.5978 16.8001C58.3392 16.8222 58.0954 16.6894 57.8739 16.3938ZM58.6493 11.8962C58.3909 12.2063 57.6894 12.738 56.5446 13.4767C56.1605 13.5136 54.7425 14.0601 52.2905 15.1235C52.1724 15.0792 52.0394 15.0646 51.8989 15.072L51.8843 14.8872C51.8548 14.5327 52.0099 14.0896 52.3495 13.5505C52.5415 12.5313 52.7558 11.9626 52.9773 11.8296L55.0378 7.221C55.0157 6.94775 55.4515 6.72627 56.3378 6.55635L56.6331 6.53428L56.6554 6.81494C57.5269 6.67451 58.0734 6.59326 58.2948 6.57119C59.9196 6.43076 60.7691 6.75576 60.8355 7.55342L61.0275 7.53857L60.9905 7.09541L61.1827 7.08076C61.6554 7.33916 61.9064 7.64951 61.936 8.01865C61.9581 8.28467 61.8251 8.60947 61.5444 8.98623C61.4191 9.00088 61.3452 8.9124 61.3304 8.72041L61.1384 8.73506L61.0792 9.28896C60.2595 10.5372 59.6612 11.1798 59.2845 11.2093C58.9523 11.6599 58.7454 11.8888 58.6493 11.8962ZM59.5136 14.9685L59.4913 14.6878L59.6833 14.6731L60.097 14.9241C60.1044 15.0423 60.0452 15.1089 59.9196 15.1235C59.7425 15.0128 59.6095 14.961 59.5136 14.9685ZM25.1339 32.9079L24.9419 32.9522L24.7794 33.0925C24.8089 33.2106 24.8827 33.255 25.0083 33.2255C25.1339 33.196 25.1857 33.1222 25.1562 33.004L25.1339 32.9079ZM24.4028 31.453L24.4249 31.5489C24.5505 31.5194 24.6021 31.4456 24.5726 31.3274L24.5505 31.2313C24.4323 31.261 24.3806 31.3349 24.4028 31.453ZM29.6021 19.0821L29.8237 19.0306L29.7794 18.8386L29.5579 18.8901L29.6021 19.0821ZM96.6185 24.7101C94.3732 25.2122 94.0925 25.1235 93.6198 25.1604L93.6347 25.3452L93.8415 25.3304L93.9523 25.3229L93.9228 25.3009L94.1663 25.2048C96.3894 24.961 96.648 25.0497 96.6257 24.7985L96.6185 24.7101ZM84.5282 26.3126L84.5431 26.4974H84.5726L84.5579 26.3126H84.5282ZM83.1398 21.4456L82.9403 21.3792C82.7778 21.8149 82.6966 22.0733 82.704 22.1472L82.7114 22.2284C82.8665 22.221 83.007 21.9552 83.1398 21.4456ZM97.0763 24.6731L97.0911 24.8577L97.4159 24.9167L97.4013 24.7321L97.0763 24.6731ZM81.7956 26.5415L81.2935 26.4825L81.2048 26.6745L81.2122 26.7706L84.2032 26.5194L84.1886 26.3349L81.7956 26.5415ZM80.4366 19.9907L80.4294 19.8946L80.3259 19.9021L80.1413 20.0202L80.2446 20.1974C80.3851 20.1827 80.4515 20.1161 80.4366 19.9907ZM98.4942 23.3142L98.6347 23.2993C98.7159 23.2919 98.7528 23.2255 98.7454 23.1073L98.6642 22.93C98.1546 22.9743 97.9183 22.9966 97.5046 23.2255L97.4972 23.1296L96.8843 23.1886C96.8694 23.004 96.8179 22.9079 96.7366 22.9153L96.4191 22.9448C96.0497 22.9743 95.8724 22.9597 95.6878 23.0999C95.6804 23.0335 95.6583 23.004 95.6214 23.004L95.2669 23.0335L95.0601 23.1517C95.0526 23.0853 95.0306 23.0556 94.9935 23.0556L94.8681 23.1665L94.8607 23.0704L94.3657 23.0335L94.2476 23.0409L94.2624 23.2255L94.5136 23.2919L94.7499 23.2772C94.8312 23.329 94.9196 23.3437 95.0232 23.3362L95.23 23.2329L95.2372 23.3142C94.0778 23.6022 94.0851 23.5505 93.2874 23.6835C93.1989 23.6243 93.1323 23.5948 93.088 23.6022L93.0733 23.6169C92.9847 23.6095 92.9329 23.5505 92.9257 23.4544L93.3392 23.4028C93.3687 23.4028 93.3909 23.4323 93.6198 23.4767C93.9523 23.3142 93.9669 23.2476 94.1442 23.2329L94.1294 23.0481C92.9921 23.2698 93.4499 23.1222 92.0245 23.2476L91.9581 23.255L91.9433 23.0704C93.7749 22.8489 93.162 22.9743 93.7898 22.7972C93.7972 22.8636 93.8192 22.8931 93.8562 22.8931C93.9235 22.8243 94.0119 22.7801 94.1073 22.7677L94.2329 22.7603C94.8753 22.7085 95.0896 22.8341 96.3599 22.4796L96.3673 22.5608L96.5741 22.4573L96.7661 22.4427C96.7513 22.2579 97.032 22.2284 97.128 22.221L97.1132 22.0216C94.8827 22.4722 94.2993 22.3466 93.679 22.5239L93.6716 22.4427C93.0882 22.546 93.0659 22.5017 92.9183 22.5091C92.8739 22.5165 92.8075 22.5534 92.7335 22.6272C92.7263 22.5608 92.704 22.5312 92.6597 22.5312C92.6376 22.5312 92.6302 22.5386 92.6228 22.5386L90.7321 22.8487C90.7247 22.7972 90.7027 22.7677 90.6583 22.7749C89.6761 22.9817 89.9419 23.0187 88.6273 23.1368C88.5681 23.1442 88.487 23.1737 88.3835 23.2403C88.3761 23.1886 88.3466 23.1591 88.2802 23.1663L87.4751 23.2329L86.936 23.3657C86.9286 23.3142 86.8991 23.2847 86.8325 23.2919C86.5298 23.3731 86.264 23.4249 86.0497 23.4397H86.0349C85.9021 23.4544 86.1015 23.4028 85.998 23.3585L85.8355 23.4544C85.5991 23.4767 85.7247 23.4397 84.9124 23.447C83.487 23.6243 83.6421 23.6464 83.487 23.6538L82.9552 23.6169C82.9626 23.6687 82.9331 23.7056 82.8739 23.7056C82.2683 23.6243 81.9581 23.5282 81.9507 23.4175C82.0319 22.8415 82.1724 22.546 82.3718 22.5312L82.4751 22.5239L82.3864 22.7159L82.49 22.7085C82.682 22.6052 82.7706 22.5091 82.7632 22.4204L82.7484 22.221L82.5564 22.2358L82.5415 22.0513C82.5269 21.9108 82.5489 21.7853 82.6007 21.6819L83.0364 20.9804L83.0513 21.1649L83.2579 21.1501L83.2433 20.9655L83.1251 20.7956C83.2802 20.6628 83.3984 20.5888 83.4943 20.5815L83.487 20.4854L83.2064 20.5077L83.1841 20.2271C83.7454 19.0601 84.0112 18.3806 83.9966 18.1886L84.196 18.2698C84.3216 18.2624 84.3806 18.1886 84.3732 18.0556L84.1812 18.0704L84.1737 17.9892C84.1603 17.8543 84.1859 17.7184 84.2476 17.5978C84.5505 17.2802 84.6907 16.9626 84.6612 16.6302C84.7204 16.6228 84.7499 16.6524 84.7573 16.7188C85.0157 16.5712 85.2152 16.1798 85.3628 15.5298C85.8208 14.7026 86.4706 13.0483 87.32 10.5741C88.9448 6.20186 88.8784 5.73662 89.1073 4.70264L88.9153 4.71729C88.93 4.85029 88.9005 4.97588 88.8415 5.09404C88.7085 5.04229 88.6052 5.01279 88.5314 5.02022L88.5239 4.93896C88.4942 4.56221 88.6495 4.11182 89.004 3.57998L89.0925 3.57256L89.255 4.20771L89.447 4.19307C89.4398 4.14873 89.4913 3.89756 89.5948 3.43232C89.5874 3.33623 89.5136 3.27725 89.3657 3.26982L89.1812 3.38799C89.1665 3.25498 89.1737 2.90791 89.196 2.354L89.0999 2.36143C88.9374 2.19893 88.8562 2.06592 88.8487 1.95518L87.7927 2.0585C87.7853 1.98467 87.7484 1.87393 87.6745 1.73369C87.6671 1.6376 87.9034 1.5415 88.3909 1.44561L88.6052 1.52686L88.8046 1.40869C88.8118 1.4751 88.8487 1.50459 88.9226 1.49736L89.122 1.3792C89.1294 1.44561 89.1663 1.4751 89.2403 1.46768L89.3362 1.46045L89.3214 1.24619C89.1737 1.26104 88.7823 1.26104 88.162 1.23877L87.9626 1.37178L87.9552 1.25361C82.9995 1.65967 80.1857 1.88877 79.5136 1.95518C79.4249 1.9626 79.0778 1.95518 78.4648 1.94033C78.4722 2.02158 78.3984 2.06592 78.2507 2.08076L78.0364 1.98467L77.3126 2.16943C77.1427 2.18408 76.8548 2.17666 76.456 2.13252C76.3452 2.221 76.2122 2.27275 76.0497 2.2876C75.961 2.29482 77.1058 2.22842 78.1693 2.15459C78.0585 2.24326 77.8888 2.29482 77.6525 2.31709C77.49 2.33193 77.3495 2.30967 77.2314 2.24326C77.0689 2.31709 76.5446 2.43525 75.6657 2.6124L75.4515 2.53135L71.995 3.06299C71.862 2.99658 71.7069 2.97432 71.5298 2.98916C71.345 3.004 71.0349 3.07041 70.6066 3.18857L68.9374 3.88271L69.063 4.08955C69.1443 4.08213 69.2624 4.03799 69.4026 3.95674L69.9937 4.0083L69.9196 4.56221C69.3732 4.80596 69.0556 5.16787 68.9669 5.62588C68.1472 5.9876 67.7409 6.24619 67.7409 6.40127L67.7484 6.49736L67.8739 6.48994L68.0954 6.37178L68.354 6.68193L68.3909 7.11025C68.4056 7.24326 67.0245 10.1458 64.2624 15.8179C61.8694 21.2831 60.614 24.2743 60.4958 24.8134C59.6761 25.0423 59.2032 25.3747 59.063 25.8179C59.0778 25.9581 59.3214 26.0542 59.7941 26.0911L59.8163 26.3052L59.6021 26.6597L59.639 27.0882C59.6612 27.3097 60.2595 27.4796 61.4337 27.5978C61.4263 27.5239 61.4634 27.4796 61.5444 27.4722C61.5667 27.738 61.4929 28.255 61.323 29.0231L61.4486 29.0157C61.9359 28.3511 62.165 27.8931 62.1427 27.6421L62.2462 27.6347C62.3644 27.6272 62.49 27.7603 62.6376 28.0481C62.49 28.1073 61.973 29.2815 61.0866 31.5786L61.2122 31.7853L61.3378 31.778C62.4234 29.0306 63.1028 27.5091 63.3835 27.221C64.8089 27.0954 67.2757 26.8444 70.7765 26.4677L70.998 26.3349C71.0054 26.4087 71.0497 26.4456 71.131 26.4382L71.3599 26.4161L71.5816 26.2831C71.5888 26.3569 71.6331 26.3939 71.7144 26.3864L74.3657 26.1575C75.0675 26.0985 75.3997 25.8843 75.3702 25.5224C75.3628 25.4265 75.7765 25.3155 76.611 25.1974C76.6923 25.1899 76.8105 25.2122 76.973 25.264C76.9655 25.1974 77.3864 25.131 78.2284 25.0571C78.2507 24.614 78.3909 24.3776 78.6421 24.3556L78.6198 24.1413C78.3835 24.1634 78.1177 24.2226 77.8075 24.3259C77.2536 24.2964 76.8991 24.2521 76.7513 24.2003C76.6036 24.2815 76.4929 24.3259 76.4116 24.3333L74.5651 24.3925L74.3437 24.5106C74.3362 24.444 74.2919 24.4146 74.2107 24.422L74.1073 24.4294L73.871 24.5476C73.8636 24.481 73.6716 24.4294 73.2874 24.3776L73.0513 24.5179L72.5933 24.5548L72.5859 24.4366C74.964 24.1782 76.1384 23.8532 76.1087 23.4692C76.264 23.4544 76.3452 23.5282 76.3599 23.6835L77.0542 23.5062L77.0319 23.2919L71.3378 23.447C71.345 23.521 71.3081 23.5651 71.2271 23.5726L70.5327 23.5136C70.3554 23.5282 70.2077 23.58 70.0896 23.6687L69.8312 23.5726C69.1148 23.6317 68.5829 23.7204 68.2284 23.8312C67.7409 23.7942 67.2019 23.8015 66.6036 23.8532L65.3259 23.964L64.7351 23.8976C64.7056 23.521 65.4366 21.6671 66.9433 18.3437C67.3792 17.221 67.7778 16.5194 68.162 16.2536C68.2433 16.2462 68.3614 16.2757 68.5239 16.3421L69.4323 16.0319L69.8976 16.1058C70.6804 16.0394 71.5888 15.8179 72.6302 15.4337C72.8888 15.4116 73.0808 15.4265 73.221 15.4854L73.9153 15.3229L75.9833 15.1458C76.862 15.072 77.8148 14.8798 78.8487 14.5622L78.8267 14.3481C78.4427 14.3851 78.2433 14.3187 78.2284 14.1634C78.2064 13.8755 77.9257 13.7573 77.3864 13.8015L77.3644 13.5874L77.9331 13.4249L79.4249 13.2993L79.4026 13.0853C79.3437 13.0925 79.0409 13.0853 78.4796 13.063L78.4573 12.8341L79.0335 12.7823C79.1886 12.7677 79.255 12.6937 79.2403 12.546C78.4648 12.5683 78.0734 12.5313 78.0659 12.4278C72.6597 12.6937 69.9493 12.7454 69.9345 12.5755C69.8532 12.5829 69.7425 12.6347 69.5948 12.7233L69.4544 12.5017C70.8872 9.45889 71.7292 7.92275 71.973 7.90049C71.9802 8.01865 71.9212 8.21064 71.7882 8.46924L71.7956 8.56514L72.0245 8.54307C72.5933 7.18408 73.0733 6.48252 73.4722 6.45303C75.1708 6.30518 73.2359 6.19443 76.8694 5.62588C77.0173 5.69229 77.1206 5.72178 77.1945 5.71436C78.6198 5.42646 80.6066 5.12354 83.1546 4.81338L83.1398 4.59912L81.7808 4.72471L81.7661 4.51064C81.9286 4.4958 82.0614 4.44404 82.1724 4.35557L82.1796 4.47373C82.2536 4.46631 82.357 4.41455 82.49 4.32588C82.7263 4.30381 82.9034 4.32588 83.029 4.39248C83.5017 4.26689 83.8857 4.19307 84.1663 4.16338L85.0157 4.08213C85.2226 3.94932 85.3185 3.83115 85.3112 3.72041L85.3038 3.62432C85.0896 3.64639 84.8458 3.63174 84.5579 3.57998C84.5505 3.46182 84.6095 3.38057 84.7499 3.34365L86.3304 3.196L87.0542 3.01123C87.0614 3.09248 87.0985 3.12217 87.1575 3.12217C87.2314 3.11475 87.3349 3.06299 87.4677 2.97432C87.5046 2.98174 87.5489 2.98174 87.5859 2.98916C87.49 3.18857 87.379 3.47666 87.2683 3.85322L87.0614 3.86807C87.0468 3.72764 87.0099 3.60225 86.9433 3.49131L86.84 3.49873C84.9196 8.8458 84.063 11.3349 82.2905 15.4411C81.9655 16.4899 81.6923 17.0733 81.456 17.1989C81.4634 17.3171 81.5372 17.3761 81.6628 17.3614C81.7069 17.8784 81.5888 18.388 81.3009 18.8901C80.481 21.2536 79.9345 22.546 79.6538 22.7823L79.8384 23.8976C79.8458 24.0157 79.7868 24.0821 79.6612 24.097L79.4693 24.1118C79.4396 23.8015 79.3288 23.6538 79.1294 23.6761L79.0261 23.6835C78.7749 24.0749 78.5829 24.5253 78.4573 25.0497L78.6493 25.0349C78.9079 24.8651 79.0261 24.6657 79.0038 24.4366L79.388 24.3997L79.6095 24.481C79.4323 24.7616 79.3511 24.9833 79.3657 25.153L79.4693 25.3304L79.2181 25.9212L79.2255 26.0173C79.447 25.995 79.6907 26.0688 79.9493 26.2239C80.1265 26.2093 80.3185 26.128 80.5327 25.9876C80.7542 25.9655 81.5814 25.9581 83.007 25.9581L83.7232 25.7144C84.5948 25.7069 84.7351 25.7292 85.4884 25.6628L85.7986 25.6331L85.9611 25.5224L85.9685 25.6185C86.7587 25.5519 86.8105 25.6036 87.4308 25.6774L87.4382 25.7735L87.0025 25.8104L87.0171 25.995C87.1501 25.9804 87.2683 25.9433 87.3644 25.8622C87.4751 25.8548 87.5415 25.9138 87.5489 26.0468C87.3718 26.0616 87.1724 26.1058 86.9507 26.1798L86.7587 26.1132C86.456 26.1944 86.5224 26.2167 86.3155 26.2313L86.0128 26.1724C86.0202 26.2239 85.9905 26.2608 85.939 26.2608C85.9462 26.3792 86.0128 26.4382 86.1236 26.4308L86.4337 26.4013L88.0511 26.2608L88.6642 26.128C88.6716 26.1798 88.6937 26.2093 88.7454 26.2019L89.0407 26.0911L89.5948 26.0468C90.0232 26.0099 90.0157 25.9804 90.9462 25.8325C90.939 25.7735 90.9611 25.7513 91.0054 25.744L91.0128 25.8251C92.5269 25.5667 92.6228 25.5519 92.8665 25.4706L92.8886 25.5149C93.2653 25.4265 93.0511 25.4485 93.1546 25.3747C93.162 25.4411 93.1841 25.4706 93.221 25.4706L93.4868 25.4485L93.4722 25.2491L92.9329 25.2417L92.9257 25.2271C92.9034 25.2343 92.8886 25.2343 92.8665 25.2417H92.7927V25.2565C92.4308 25.3304 92.4234 25.2786 92.187 25.3009L90.8355 25.3747L90.828 25.2786L91.5814 25.1753L91.8546 25.153L92.0099 25.0423L92.0171 25.1384C93.0808 25.0497 93.4573 25.3155 98.3761 24.2669C98.6419 24.2446 98.6198 24.0231 98.7898 23.5651C98.6996 23.5713 98.6097 23.5508 98.5312 23.5062C98.1251 23.6612 97.9109 23.5874 97.128 23.713C97.0614 23.7204 97.0099 23.6612 96.9876 23.5431L96.9802 23.4618L97.7335 23.4839C97.8739 23.4692 98.1472 23.447 98.5534 23.2181C98.5534 23.2847 98.4056 23.3216 98.4942 23.3142ZM62.128 23.8976L61.7808 23.9271C61.7661 23.7868 61.9507 23.255 62.3347 22.3466L62.5638 22.3245C62.5712 22.5386 62.4308 23.063 62.128 23.8976ZM62.5489 22.2138L62.5415 22.1177C62.5341 21.9995 62.6081 21.9183 62.7706 21.8813L62.7778 21.9772C62.7853 22.1177 62.7114 22.1989 62.5489 22.2138ZM67.165 25.781L67.1724 25.8769L66.5962 25.9286L66.5888 25.8325L67.165 25.781ZM66.4706 25.7218C66.478 25.8399 66.3009 25.9729 65.9167 26.1058L65.2077 26.0542L64.9788 26.0763L64.9567 25.8622L66.4706 25.7218ZM71.1384 4.2374L70.7911 4.26689L70.7839 4.14873C70.7765 4.03057 70.8429 3.94932 70.9905 3.9124L71.1161 3.90498L71.3525 4.00088C71.3599 4.14131 71.2935 4.22256 71.1384 4.2374ZM76.4191 3.20342L76.5298 3.196L76.5444 3.41006L76.2269 3.43975C76.2196 3.32158 76.2786 3.24033 76.4191 3.20342ZM75.0896 3.66865L74.5651 3.60947L74.5577 3.51357C75.2446 3.45439 75.4736 3.38057 75.8946 3.2624C75.9021 3.34365 75.9759 3.37314 76.1087 3.3585L76.1236 3.57256L75.9167 3.59482C75.7542 3.60947 75.614 3.5874 75.4958 3.521C75.3702 3.60225 75.2372 3.65381 75.0896 3.66865ZM75.747 5.58154L75.7396 5.48545L76.5888 5.4042L76.5962 5.50029L75.747 5.58154ZM76.6554 4.84287L76.648 4.72471L77.0614 4.68779L77.0689 4.80596L76.6554 4.84287ZM76.7513 3.39541L76.6405 3.40283L76.7366 3.17373L77.6819 3.08525L77.6894 3.20342C77.4456 3.22549 77.128 3.29189 76.7513 3.39541ZM77.2314 5.43369L77.2165 5.21963L77.6302 5.18271C77.7706 5.16787 77.8444 5.23428 77.8519 5.38213L77.2314 5.43369ZM79.7351 2.02158L79.2032 2.16943L79.1073 2.17666C78.8562 2.19893 78.5312 2.1915 78.1472 2.15459C78.8341 2.11025 79.4913 2.0585 79.7351 2.02158ZM79.1663 4.38506L79.1737 4.48096L78.4427 4.54756L78.4353 4.45147L79.1663 4.38506ZM80.3628 4.95361C80.3554 4.86514 80.2151 4.80596 79.9271 4.77646L79.196 4.9833L78.6347 5.00537C78.5091 4.9167 78.4427 4.85771 78.4353 4.81338L79.0853 4.85029L80.5476 4.61396L81.2935 4.64346L81.3009 4.76162C80.9316 4.79854 80.6214 4.86514 80.3628 4.95361ZM87.8888 3.01123C87.9773 3.01865 88.0364 3.01865 88.0585 3.01865C88.3171 2.76768 88.6052 2.56826 88.9374 2.42783C88.6716 3.59482 88.2579 4.45889 87.6894 5.02022L87.2757 4.76904C87.6228 3.89014 87.8296 3.30674 87.8888 3.01123ZM86.6185 5.19014L86.7218 5.18271C86.5814 5.44854 86.456 5.58877 86.3525 5.59619L86.3304 5.31553C86.3968 5.31553 86.4929 5.27119 86.6185 5.19014ZM85.7986 7.14717C85.998 6.34951 86.19 5.89912 86.3673 5.78096L86.3747 5.87686C86.2712 6.61553 86.1087 7.00693 85.8946 7.03643L85.9316 7.50166C85.7542 7.75283 85.673 7.94482 85.6804 8.09248L85.5771 8.0999L85.5179 7.45732C85.636 7.44268 85.7321 7.33916 85.7986 7.14717ZM85.481 8.21064C85.4884 8.32158 85.4146 8.57998 85.2669 8.97881L85.1634 8.98623L85.1413 8.70557C85.2816 8.38057 85.3997 8.21807 85.481 8.21064ZM79.521 25.5075L79.5136 25.4265L79.7056 25.4116L79.7277 25.6923C79.6243 25.6997 79.5505 25.6405 79.521 25.5075ZM88.0364 25.7292C88.029 25.6628 87.9995 25.6331 87.9331 25.6405L87.453 25.6849L87.4456 25.5888H87.49L88.6273 25.4929L88.6347 25.5888C88.3023 25.6036 88.1028 25.6554 88.0364 25.7292ZM87.4677 25.4929C87.512 25.5149 87.49 25.5372 87.4677 25.5519C87.4456 25.5446 87.4161 25.5224 87.4677 25.4929ZM87.5269 24.1634L86.8917 24.2151L86.8843 24.119L87.4603 24.0675L87.9626 23.9419C87.97 24.0009 87.9995 24.0231 88.0659 24.0157C88.6642 23.9124 88.6052 23.8829 88.8931 23.8606C88.9892 23.8532 89.0484 23.9124 89.0556 24.0306L87.5269 24.1634ZM89.7499 23.9714C89.3954 23.9345 89.3732 23.905 89.1222 23.9271L89.1148 23.8458L89.6833 23.7942L89.6907 23.8755C89.6318 23.8829 89.8458 23.8976 89.7499 23.9714ZM89.7943 23.8681L89.7868 23.7868L90.097 23.7573L90.1044 23.8386L89.7943 23.8681ZM90.481 23.8089L90.4737 23.7276C90.5253 23.7204 90.5991 23.6835 90.6952 23.6095C90.8503 23.5948 90.9316 23.6981 90.9464 23.8163L90.481 23.8089ZM91.3599 23.6981L91.3525 23.6022L91.7292 23.5726L91.7366 23.6687L91.3599 23.6981ZM91.8843 23.6538C91.8769 23.5431 91.9212 23.4767 92.0173 23.4618L92.1427 23.6243C92.1355 23.5726 92.1575 23.5431 92.2019 23.5356L92.298 23.713L91.8843 23.6538ZM86.3083 26.0616L86.2935 25.8769L86.2343 25.8843L86.2491 26.0688L86.3083 26.0616ZM99.2847 22.7011C99.3437 22.6642 99.3732 22.6272 99.2329 22.6052C99.1663 22.679 99.3068 22.7011 99.1591 22.7085L99.1663 22.7749C99.1812 22.7603 99.2181 22.738 99.2476 22.7159L99.1663 22.7823V22.7897L99.0112 22.9892L99.3214 22.8784H99.3585L99.3437 22.6937L99.2847 22.7011ZM99.8237 23.1222L99.7646 23.1296L99.7794 23.3142L100.215 23.2772C100.208 23.1591 99.9196 23.1222 99.8237 23.1222ZM99.1517 22.7972L99.1591 22.7897V22.7823C99.1591 22.7823 99.1517 22.7897 99.1517 22.7972Z" fill="black"/>
<path d="M70.7985 9.12646L70.806 9.24463L71.0497 9.22256C71.0423 9.14873 71.0718 9.03057 71.1235 8.88271L71.1015 8.66865C70.998 8.67607 70.8946 8.83115 70.7985 9.12646ZM68.4648 3.51357L68.4427 3.29932L68.0954 3.32881L68.1177 3.54307L68.4648 3.51357ZM61.6923 16.1944C61.6775 15.995 61.0571 15.2196 59.8312 13.8532C59.8089 13.6022 60.23 13.2255 61.0941 12.7308L63.5608 10.5815C64.1148 9.87978 64.4396 8.74248 64.5357 7.16201L64.5062 6.8001C64.4101 5.70693 63.6198 4.82822 62.1206 4.15615C61.2343 3.55791 59.639 3.22549 57.3349 3.16631C55.4294 3.32881 52.9403 4.0083 49.8755 5.21221C49.0335 5.81787 48.0734 6.42334 46.995 7.029L47.0099 7.21377C47.0763 7.20635 47.1796 7.16943 47.298 7.08818C47.4234 7.07334 47.4974 7.13252 47.5046 7.25068L47.6894 7.15459L47.7778 7.14717L47.7853 7.22842C47.7927 7.32451 47.128 7.84873 45.7839 8.78682L45.8872 8.97881L45.7985 8.98623L45.5771 8.90498C45.5845 8.97139 45.4884 9.01572 45.3038 9.03057L45.3112 9.11182L45.5253 9.37764C45.4589 9.38506 45.3556 9.35557 45.2151 9.30381C44.905 9.3333 44.6021 9.4958 44.2993 9.80596L44.4249 9.25947C44.8755 7.31709 45.1857 5.59619 45.3482 4.10439L45.3259 4.0083C45.0157 3.80889 44.713 3.52822 44.4323 3.17373C44.4398 2.94482 44.4398 2.81182 44.4323 2.78232L44.4101 2.70107L44.3216 2.72334C43.3466 4.18564 41.4706 6.68193 38.6864 10.2122C36.5667 12.7233 35.4735 14.119 35.4071 14.3997C34.5431 15.2935 34.1294 15.8325 34.1737 16.0173C33.9448 16.1649 33.8487 16.3126 33.8859 16.4751C33.8193 16.4899 33.7749 16.4677 33.7603 16.4013C33.3909 16.9995 32.8444 17.3835 32.1132 17.5534L31.345 17.7306C31.2417 17.7528 31.19 17.8267 31.1974 17.9522L31.2196 18.0481L31.5075 17.9817L31.5298 18.063L30.8798 18.3142L29.7276 18.58L29.1222 18.6169C29.0335 18.7056 29.6021 18.6095 29.3806 18.6612L28.6273 18.8386C28.1694 18.9419 27.9183 18.905 27.8739 18.7204L27.7853 18.7425C27.8001 18.8237 27.8075 18.8827 27.7927 18.9345L27.7484 18.7499L27.1427 18.8901C27.0985 18.6095 26.2786 17.5903 24.6907 15.8325C24.6612 15.4929 25.2226 14.9979 26.3673 14.3556L29.6021 11.512C30.3259 10.5815 30.7542 9.08955 30.8946 7.03643L30.8503 6.55635C30.7247 5.10889 29.6761 3.94189 27.704 3.04092C26.5372 2.25068 24.4398 1.82959 21.4116 1.76318C18.9005 1.97725 15.6214 2.871 11.5888 4.42939C10.481 5.23428 9.21808 6.03193 7.80011 6.82217L7.82218 7.07334C7.91827 7.06592 8.04386 7.01435 8.19894 6.92568C8.36144 6.91084 8.45011 6.98467 8.46476 7.13252L8.71593 6.99209L8.84152 6.98467L8.84874 7.10283C8.85616 7.221 7.97726 7.90791 6.19738 9.16338L6.33781 9.38506L6.21222 9.39248L5.93898 9.29639C5.9464 9.37021 5.82081 9.42197 5.56222 9.44404L5.57706 9.57705L5.87238 9.90205C5.77648 9.90947 5.64347 9.87978 5.47374 9.8208C4.89757 9.87236 4.33624 10.286 3.78234 11.0688L3.92277 11.2905C4.40284 10.8474 4.68331 10.6259 4.76456 10.6185L4.79425 10.9804C4.713 10.9876 4.58741 11.0394 4.41749 11.128L4.72042 11.5858C5.29235 10.9678 5.93998 10.4244 6.64796 9.96846C6.99503 10.0571 7.1798 10.1679 7.18702 10.286L7.45304 10.264C9.35851 8.85322 11.2417 7.83408 13.1103 7.20635L13.1325 7.45732C12.7853 7.97432 12.5489 8.24033 12.4234 8.25498C12.4382 8.43232 12.4974 8.5874 12.6081 8.72041C12.6376 9.03799 11.7882 11.1798 10.0675 15.1384C6.16046 24.3407 2.88136 31.1501 0.215149 35.5519C0.222571 35.6405 0.274329 35.7587 0.370227 35.9063C1.02765 35.7513 1.44113 35.589 1.61847 35.4337L1.7587 35.419L1.78097 35.67L2.02452 35.6479L2.2757 35.5077C2.28312 35.5815 2.36437 35.6185 2.53429 35.6036L2.55636 35.8548C2.57843 36.0985 2.4382 36.4677 2.14269 36.9772C1.87687 37.2802 1.58878 37.9153 1.28605 38.8829L1.29347 39.0009L1.53722 38.9788C2.6007 37.7897 3.40577 36.6228 3.95968 35.4854C7.06163 34.577 9.42491 33.6833 11.0646 32.8046C12.7114 32.6642 13.9669 32.2284 14.8237 31.512L14.8089 31.3792L14.1886 31.5638L14.0482 31.5786L14.0335 31.4456C15.2446 31.261 16.0792 30.995 16.5446 30.6259C18.9005 28.8089 20.6804 27.5239 21.8843 26.7632C24.3585 24.9464 25.9685 23.1737 26.6997 21.453C26.8325 21.4233 26.9655 21.3938 27.1132 21.3569C27.4603 21.3423 27.6525 21.3349 27.704 21.32C27.6894 21.2536 27.7189 21.2167 27.7853 21.2019C28.3392 21.1429 28.0734 21.2388 28.4278 21.1575L29.3585 20.9435L29.5136 20.9063L29.4398 20.9507C29.5431 20.9655 29.6538 20.9581 29.7794 20.9286L29.8458 21.2019L25.614 27.93L24.6761 29.1044L24.2181 30.6405L24.3068 30.6185L24.7646 30.4265L24.6169 31.0247L24.6612 31.2019L24.7868 31.3569C24.7276 31.3718 24.7056 31.4087 24.7202 31.4751L24.7425 31.5712L24.9345 31.5269C25.2152 31.2831 25.3333 31.0616 25.289 30.8622C25.5917 30.9138 25.7911 30.936 25.8946 30.9065L25.9167 31.0024C25.7321 31.0468 25.636 31.1944 25.6214 31.4456L25.6435 31.5415L25.747 31.5194C27.2831 29.8429 31.0497 24.1044 34.0704 20.2122C33.9743 19.7913 35.5476 19.2077 38.7972 18.4544L38.9005 18.4323C39.0187 18.9419 38.7677 20.1753 38.1472 22.1325C37.7484 23.3142 37.5564 23.964 37.5858 24.0675C37.0689 25.6405 36.8251 26.4899 36.8548 26.6228L35.7026 30.3968C34.9566 32.3319 34.388 34.3628 33.9892 36.5046C34.0556 36.4899 34.1591 36.4974 34.3068 36.5343L34.4692 36.3938C34.4839 36.4604 34.5282 36.4825 34.5948 36.4677L34.5282 36.1944L35.0306 36.1798C35.1782 36.1429 35.3038 35.9581 35.4071 35.6185C35.3851 35.1089 35.4884 34.8356 35.7173 34.7765C36.0275 33.5653 36.2196 32.9597 36.286 32.9374C36.5741 31.7337 36.7882 31.0468 36.9286 30.8769C37.3644 29.3112 37.6819 28.5062 37.8888 28.4544L37.9331 28.6464L37.6155 29.4663C37.0614 31.9257 36.5003 33.8681 35.9316 35.2935L36.0941 36.0024L36.1974 35.9804C37.5712 33.0261 39.5505 27.1767 42.128 18.4323C42.2019 17.6642 42.5712 17.0659 43.2284 16.645L43.0808 16.4899L43.0585 16.4087C43.354 16.3421 43.5609 16.2241 43.679 16.0616C43.6642 15.995 43.4058 15.8991 42.9034 15.7661L44.1886 10.2565C44.4693 10.0054 44.6317 9.87256 44.6833 9.87256L44.7056 10.153C44.6392 10.1604 44.5357 10.1974 44.4175 10.2786L44.6612 10.6259C45.1044 10.1458 45.5845 9.73213 46.1087 9.38506C46.3747 9.45889 46.5075 9.54756 46.5224 9.63603L46.7144 9.62139C48.1767 8.55049 49.6095 7.78232 51.0202 7.31709L51.0349 7.50166C50.7765 7.89307 50.5991 8.09248 50.5032 8.0999C50.5179 8.23291 50.5548 8.35107 50.6214 8.45439C50.6435 8.69814 50.0083 10.3229 48.7085 13.3362C45.7396 20.3155 43.2505 25.478 41.2269 28.8312C41.2343 28.8976 41.2786 28.9862 41.3599 29.1044C41.8548 28.9862 42.1724 28.8606 42.298 28.7425L42.3864 28.7351L42.4013 28.9196L42.6081 28.905L42.7927 28.8089C42.8001 28.8606 42.8665 28.8827 42.9921 28.8755L43.0069 29.0749C43.0216 29.2521 42.9183 29.5327 42.6894 29.9167C42.4751 30.1458 42.2536 30.6259 42.0173 31.3569L42.0245 31.453L42.2167 31.4382C43.0216 30.5372 43.6347 29.6509 44.0556 28.7794C46.4116 28.0853 48.2064 27.413 49.447 26.7483C50.7101 26.6376 51.6626 26.3126 52.3126 25.7661L52.3052 25.67L51.8251 25.8104L51.7218 25.8179L51.7144 25.7218C52.6302 25.5888 53.2728 25.3821 53.6198 25.1089C55.4071 23.7351 56.7587 22.7528 57.6745 22.1767C60.5253 20.1015 61.8548 18.1073 61.6923 16.1944ZM61.2048 16.32L61.2712 17.0659C61.1827 17.2507 61.0866 17.3466 60.998 17.354L60.8872 16.0837C61.0941 16.1575 61.1974 16.2313 61.2048 16.32ZM5.28156 10.3083L5.15616 10.3155L5.1339 10.0866L5.64347 10.0423L5.65089 10.1604C5.56964 10.1679 5.44406 10.2122 5.28156 10.3083ZM2.79269 35.2048C2.49738 35.0718 2.23136 35.0202 2.00245 35.0423L1.97296 34.6804C1.95812 34.5401 2.03937 34.444 2.21671 34.4071C2.37902 34.3925 2.47511 34.5106 2.48995 34.747C2.91827 34.2226 3.1546 33.9567 3.19894 33.9493L3.47218 34.0601C3.38351 34.7985 3.1546 35.1753 2.79269 35.2048ZM29.388 7.3835C29.2624 7.39834 29.0112 7.00693 28.6495 6.23135L28.6273 6.00244C28.8636 5.98037 29.1073 6.36435 29.3657 7.15459L29.388 7.3835ZM29.0335 4.62881L28.93 4.87256L25.3185 3.36572C27.7263 3.44697 28.9671 3.86807 29.0335 4.62881ZM13.7823 17.7233L13.2728 17.7677L13.2507 17.5386L13.7603 17.4942L13.7823 17.7233ZM13.3687 9.85771L13.4943 9.85029L13.5239 10.2122C13.4058 10.2196 13.2507 10.3968 13.0585 10.7366L13.0364 10.4854C13.2653 10.2122 13.3835 10.0054 13.3687 9.85771ZM12.2978 12.3835L12.3421 12.8636L12.2167 12.871L12.1724 12.3909L12.2978 12.3835ZM11.7366 13.2847L11.9804 13.2624C11.9581 13.6612 11.8474 13.8755 11.648 13.8901L11.5224 13.8976C11.6775 13.6317 11.7513 13.4249 11.7366 13.2847ZM11.3155 14.5401L11.456 14.5253L11.4632 14.6435L11.2343 15.0276L10.9905 15.0497L10.9833 14.9315C11.2271 14.9095 11.3378 14.7839 11.3155 14.5401ZM10.9021 15.6702L10.8282 16.2757L10.7026 16.2831L10.6509 15.6849L10.9021 15.6702ZM6.7587 27.4501C6.5962 28.2772 6.41906 28.6981 6.23429 28.713L6.22706 28.5948C6.18273 28.1886 6.35988 27.8046 6.7587 27.4501ZM5.99796 29.097L6.00538 29.2151C6.02023 29.3776 5.9464 29.4737 5.7839 29.481L5.77648 29.3628C5.76163 29.2226 5.83546 29.1339 5.99796 29.097ZM5.77648 32.5165L6.16046 32.4796L6.17531 32.6126C6.07921 32.6198 5.95363 32.6716 5.79855 32.7603L5.5548 32.7823C5.54015 32.6567 5.6214 32.5608 5.77648 32.5165ZM16.7069 29.1413C14.5505 30.2048 13.2802 30.9286 12.9034 31.3052C10.5696 32.1177 9.41007 32.6198 9.43234 32.8192C7.35695 33.6392 5.99054 34.2446 5.33331 34.6214C5.17823 34.636 4.95675 34.577 4.66124 34.444C4.62433 34.0231 4.81632 33.6833 5.22257 33.4101C5.58448 33.3806 5.93156 33.4323 6.26398 33.5726C6.64796 33.3731 7.32003 33.1517 8.27277 32.9153L8.2507 32.6642L7.48253 32.7306C7.57843 32.5978 8.3171 32.2507 9.70558 31.6894L10.0896 31.6524L10.097 31.7706C9.43976 31.8296 9.07784 32.0216 8.99659 32.3688C9.01124 32.5239 9.09991 32.5903 9.26241 32.5755C9.75734 32.2653 10.0009 32.0808 9.99366 32.029C10.9316 31.8519 13.5239 30.4929 17.7706 27.9597L17.7927 28.1886C17.8001 28.2993 17.4382 28.6095 16.7069 29.1413ZM10.1931 31.2831C10.8134 31.2313 11.3452 30.9804 11.7882 30.5446C11.9655 30.5298 12.0616 30.5962 12.0689 30.7513C11.7661 30.781 11.1827 31.0319 10.3333 31.5194L10.2077 31.5269L10.1931 31.2831ZM20.7027 23.2106L17.4456 25.7956C15.0232 27.3835 13.7234 28.1812 13.5312 28.196C9.67609 30.3155 7.2757 31.4161 6.34523 31.4974L6.2048 31.512C6.32296 31.0763 8.03644 27.5683 11.3599 20.9655C12.8222 20.8399 15.1265 20.1604 18.2653 18.9198L19.0335 18.8532C20.6214 18.713 21.8105 19.0231 22.5933 19.7616L22.6376 20.2417C22.0542 21.9331 21.4042 22.9228 20.7027 23.2106ZM14.3362 19.6288L14.8607 19.5845L14.8681 19.7026L14.3437 19.747L14.3362 19.6288ZM21.6997 18.3806L22.0837 18.3437C22.4382 18.5136 22.6228 18.6612 22.6376 18.7942L22.645 18.9124C22.3052 18.9419 21.9876 18.7645 21.6997 18.3806ZM22.7409 12.4501C22.4013 12.8562 21.4706 13.5505 19.9493 14.5253C19.447 14.5696 17.5784 15.2935 14.3437 16.7114C14.1819 16.6375 14.0038 16.607 13.8267 16.6228L13.8046 16.3938C13.7677 15.9286 13.9743 15.3452 14.4323 14.6362C14.6833 13.3067 14.9568 12.546 15.2595 12.3614L17.9552 6.29795C17.9257 5.92119 18.5017 5.63311 19.6833 5.43369L20.0675 5.39678L20.097 5.74404C21.2566 5.5667 21.9802 5.46338 22.2609 5.44111C24.4028 5.25654 25.5179 5.69229 25.6066 6.73369L25.8503 6.71143L25.7985 6.09853L26.0646 6.07627C26.6923 6.42334 27.0319 6.84443 27.0763 7.33916C27.1058 7.679 26.9212 8.0999 26.5298 8.60225C26.3673 8.61689 26.2712 8.49873 26.2566 8.2624L25.9905 8.28467L25.9316 9.02314C24.8458 10.6479 24.0556 11.4825 23.5683 11.5269C23.1251 12.1397 22.8519 12.4427 22.7409 12.4501ZM24.3954 16.6968C24.1737 16.5489 23.9966 16.4825 23.8636 16.4899L23.8341 16.128L24.0778 16.1058L24.6169 16.4235C24.6392 16.5933 24.5651 16.6819 24.3954 16.6968ZM26.1089 18.7276C26.3452 18.8237 26.4855 18.9271 26.515 19.0231L26.3968 19.0526L26.4042 19.0601C26.3821 19.0601 26.3525 19.0675 26.3304 19.0749L26.153 19.2151L26.1089 18.7276ZM26.2712 19.747L26.2491 19.6509L26.5593 19.577L26.5816 19.6731L26.2712 19.747ZM27.0173 20.5815C27.3349 20.5298 27.49 20.5077 28.0808 20.3747L28.1028 20.4706L26.9804 20.7292C26.995 20.6774 27.0099 20.6259 27.0173 20.5815ZM28.1103 21.0468C27.6376 21.0911 27.7409 21.0319 26.9876 21.2019L26.9655 21.1058L27.9109 20.803L28.3614 20.6997L28.4058 20.8769C28.1989 20.9212 28.3466 20.9212 28.1103 21.0468ZM29.1073 20.8104C28.9966 20.8399 28.9079 20.7884 28.8562 20.6628L29.1443 20.5962C29.2698 20.5667 29.3511 20.6185 29.3806 20.744L29.1073 20.8104ZM31.8105 17.9005L31.7882 17.8046L32.2536 17.6937L32.298 17.871L31.8105 17.9005ZM34.6982 35.611C34.7276 35.478 34.7351 35.3821 34.7202 35.3155L34.8237 35.2935C34.9493 35.264 35.0232 35.3083 35.0526 35.4265L35.0749 35.5224L34.6982 35.611ZM36.7218 18.6612L36.515 18.6243C36.1827 18.7573 35.9021 18.8532 35.673 18.905L35.481 18.9493C35.3702 18.9788 35.2816 18.9345 35.2372 18.8163L36.5888 18.5062L37.0319 18.2993L37.1798 18.4692C36.9655 18.5136 36.8105 18.58 36.7218 18.6612ZM37.7632 18.3288L37.7409 18.2329C37.8075 18.2181 37.896 18.1665 37.9921 18.0704L38.9523 17.8487L38.9743 17.9448C38.4648 18.0704 38.0585 18.196 37.7632 18.3288ZM37.9109 16.3864C37.8444 16.4013 37.7558 16.4603 37.645 16.5489C37.6302 16.4825 37.4974 16.4825 37.2462 16.5415C37.2019 16.3569 37.9109 16.0985 39.3806 15.7587L39.5874 15.7144L39.6318 15.8917C38.5978 16.1944 38.0216 16.3644 37.9109 16.3864ZM40.4958 13.5948C40.3925 14.769 39.9788 15.4337 39.2476 15.6036L39.2255 15.5077L38.5755 15.7587L38.2876 15.8253C38.1398 15.8622 38.0069 15.8548 37.8888 15.8179L37.8296 15.5593C37.8075 15.4634 38.7454 14.1634 40.6509 11.6671L40.8724 11.704C40.9536 12.0438 40.8282 12.6716 40.4958 13.5948ZM45.0675 9.68037L44.9788 9.68779L44.964 9.50322L45.3482 9.46631L45.3554 9.56221C45.289 9.57705 45.1931 9.61396 45.0675 9.68037ZM43.1841 28.5948C42.9626 28.4913 42.7632 28.447 42.5933 28.4618L42.5712 28.1812C42.5638 28.0853 42.6228 28.0187 42.7484 27.9817C42.8739 27.9671 42.9478 28.0556 42.9626 28.2476C43.2802 27.8415 43.4573 27.6347 43.4943 27.6347L43.6937 27.7159C43.6198 28.2772 43.4501 28.5726 43.1841 28.5948ZM63.3761 7.47217C63.2802 7.47959 63.0954 7.18408 62.8075 6.58584L62.7927 6.40127C62.9773 6.38643 63.1694 6.67451 63.3614 7.26533L63.3761 7.47217ZM63.1103 5.35986L63.0216 5.55186L60.289 4.40713C62.1132 4.46631 63.0585 4.78389 63.1103 5.35986ZM51.5224 15.3083L51.1384 15.3452L51.1235 15.1604L51.5075 15.1235L51.5224 15.3083ZM51.2048 9.3333L51.3081 9.32588L51.3304 9.60654C51.2343 9.61396 51.1161 9.74697 50.9759 10.0054L50.961 9.8208C51.131 9.60654 51.2122 9.44404 51.2048 9.3333ZM50.3997 11.2536L50.4294 11.6155L50.3259 11.6229L50.2964 11.261L50.3997 11.2536ZM49.964 11.9403L50.156 11.9257C50.1339 12.2358 50.0526 12.3983 49.9124 12.413L49.8089 12.4204C49.9196 12.2138 49.9714 12.0513 49.964 11.9403ZM49.6538 12.8858L49.7425 12.8784L49.7499 12.9743L49.58 13.2698L49.388 13.2847L49.3806 13.1886C49.58 13.1737 49.6687 13.0704 49.6538 12.8858ZM49.3437 13.7425L49.2773 14.2151L49.1886 14.2226L49.1517 13.7573L49.3437 13.7425ZM46.19 22.7011C46.0646 23.3216 45.9316 23.6392 45.7911 23.6538L45.7839 23.5726C45.7616 23.2624 45.8946 22.9669 46.19 22.7011ZM45.6066 23.9493L45.614 24.0306C45.6288 24.1634 45.5696 24.2372 45.4366 24.2446L45.4294 24.1487C45.422 24.0526 45.481 23.9862 45.6066 23.9493ZM45.4441 26.5489L45.7396 26.5269L45.7468 26.6228C45.6804 26.6302 45.5771 26.6671 45.4589 26.7337L45.2669 26.7483C45.2595 26.645 45.3185 26.5786 45.4441 26.5489ZM53.738 23.9862C52.1132 24.7913 51.1456 25.3378 50.8429 25.6185C49.0704 26.2388 48.1915 26.6228 48.2064 26.7778C46.6331 27.4058 45.5991 27.8562 45.1118 28.1442C44.9937 28.1517 44.8237 28.1073 44.6021 28.004C44.5726 27.6864 44.7202 27.4278 45.0306 27.2358C45.3112 27.2138 45.5771 27.2507 45.8208 27.354C46.1161 27.2063 46.6257 27.0438 47.3495 26.8591L47.3349 26.6745L46.7366 26.7263C46.8105 26.6228 47.379 26.3569 48.4353 25.9286L48.7306 25.9063L48.738 25.9876C48.2359 26.0319 47.9552 26.1798 47.896 26.4456C47.9034 26.5638 47.9773 26.6228 48.1028 26.6081C48.4722 26.3644 48.6493 26.2239 48.6493 26.1798C49.3585 26.0542 51.323 25.0202 54.5505 23.0853L54.5652 23.2698C54.5652 23.3436 54.2919 23.58 53.738 23.9862ZM48.7898 25.611C49.2698 25.5667 49.6761 25.3821 50.0157 25.0571C50.1413 25.0497 50.2151 25.1015 50.2226 25.2196C50.0009 25.2417 49.5652 25.4265 48.9079 25.781L48.8046 25.7882L48.7898 25.611ZM56.781 19.4737L54.3216 21.453C52.4825 22.6567 51.4855 23.2624 51.3304 23.2772C48.4058 24.8872 46.5888 25.7218 45.8724 25.781L45.7691 25.7882C45.8577 25.456 47.165 22.7897 49.6907 17.7823C50.7911 17.6864 52.5343 17.162 54.9271 16.2167L55.5253 16.1649C56.7292 16.0616 57.6302 16.2979 58.221 16.8665L58.2507 17.2284C57.8001 18.4987 57.3126 19.2446 56.781 19.4737ZM51.9507 16.7558L52.3349 16.7188L52.3421 16.8149L51.9581 16.8519L51.9507 16.7558ZM57.5415 15.803L57.837 15.781C58.1103 15.9138 58.2507 16.0319 58.2579 16.128L58.2653 16.2093C58.0069 16.2313 57.7632 16.0985 57.5415 15.803ZM58.3171 11.3052C58.0585 11.6155 57.3569 12.1472 56.2122 12.8858C55.8282 12.9228 54.4101 13.4692 51.9581 14.5327C51.84 14.4884 51.7069 14.4737 51.5667 14.481L51.5519 14.2964C51.5224 13.9419 51.6775 13.4987 52.0173 12.9597C52.2093 11.9403 52.4234 11.3718 52.645 11.2388L54.7056 6.63018C54.6833 6.35693 55.1191 6.13545 56.0054 5.96553L56.3009 5.94346L56.323 6.22393C57.1944 6.08369 57.7409 6.00244 57.9626 5.98037C59.5874 5.83994 60.4366 6.16494 60.5032 6.9626L60.6952 6.94775L60.6583 6.50459L60.8503 6.48994C61.323 6.74834 61.5741 7.0585 61.6036 7.42783C61.6257 7.69365 61.4929 8.01865 61.2122 8.39541C61.0866 8.41006 61.0128 8.32158 60.998 8.12939L60.806 8.14424L60.747 8.69814C59.9271 9.94639 59.3288 10.5888 58.9523 10.6185C58.6198 11.0688 58.413 11.2979 58.3171 11.3052ZM59.1812 14.3776L59.1591 14.097L59.3511 14.0823L59.7646 14.3333C59.772 14.4515 59.713 14.5181 59.5874 14.5327C59.4101 14.422 59.2773 14.3702 59.1812 14.3776ZM24.8015 32.3171L24.6095 32.3614L24.447 32.5017C24.4767 32.6198 24.5505 32.6642 24.6761 32.6347C24.8015 32.6052 24.8532 32.5313 24.8237 32.4132L24.8015 32.3171ZM24.0704 30.8622L24.0925 30.9581C24.2181 30.9286 24.2698 30.8548 24.2403 30.7366L24.2181 30.6405C24.0999 30.67 24.0482 30.744 24.0704 30.8622ZM29.2993 21.0394L29.4398 20.9507C29.4101 20.9507 29.388 20.9433 29.3657 20.936C29.3142 20.9507 29.2919 20.9876 29.2993 21.0394ZM29.2698 18.4913L29.4913 18.4397L29.447 18.2476L29.2255 18.2993L29.2698 18.4913ZM81.4634 25.9507L80.9611 25.8917L80.8724 26.0837L80.8798 26.1798L83.871 25.9286L83.8562 25.744L81.4634 25.9507ZM84.196 25.7218L84.2107 25.9063H84.2402L84.2255 25.7218H84.196ZM96.7439 24.0821L96.7587 24.2669L97.0837 24.3259L97.0689 24.1413L96.7439 24.0821ZM96.286 24.119C94.0409 24.6214 93.7603 24.5327 93.2876 24.5696L93.3023 24.7542L93.5091 24.7395L93.6198 24.7321L93.5903 24.7101L93.8341 24.614C96.0571 24.3702 96.3155 24.4589 96.2935 24.2077L96.286 24.119ZM82.8075 20.8548L82.6081 20.7884C82.4456 21.2239 82.3644 21.4825 82.3718 21.5563L82.379 21.6376C82.5343 21.6302 82.6745 21.3644 82.8075 20.8548ZM80.1044 19.3999L80.097 19.3038L79.9937 19.3112L79.8089 19.4294L79.9124 19.6065C80.0526 19.5919 80.1191 19.5253 80.1044 19.3999ZM85.9759 25.4706L85.9611 25.286L85.9021 25.2935L85.9167 25.478L85.9759 25.4706ZM98.162 22.7233L98.3023 22.7085C98.3835 22.7011 98.4204 22.6347 98.413 22.5165L98.3317 22.3392C97.8222 22.3835 97.5858 22.4058 97.1724 22.6347L97.165 22.5386L96.5519 22.5978C96.5372 22.413 96.4855 22.3171 96.4042 22.3245L96.0866 22.354C95.7173 22.3835 95.5402 22.3688 95.3554 22.5091C95.3482 22.4427 95.3259 22.413 95.289 22.413L94.9345 22.4427L94.7276 22.5608C94.7202 22.4942 94.6982 22.4647 94.6612 22.4647L94.5357 22.5755L94.5282 22.4796L94.0335 22.4427L93.9153 22.4501L93.93 22.6347L94.1812 22.7011L94.4175 22.6864C94.4987 22.738 94.5874 22.7528 94.6907 22.7454L94.8976 22.6421L94.905 22.7233C93.7454 23.0112 93.7528 22.9597 92.9552 23.0925C92.8665 23.0335 92.8001 23.004 92.7558 23.0112L92.7409 23.0261C92.6525 23.0186 92.6007 22.9597 92.5933 22.8636L93.0069 22.8118C93.0364 22.8118 93.0585 22.8415 93.2874 22.8858C93.6198 22.7233 93.6347 22.6567 93.8118 22.6421L93.7972 22.4573C92.6597 22.679 93.1177 22.5312 91.6923 22.6567L91.6257 22.6642L91.611 22.4796C93.4427 22.2579 92.8296 22.3835 93.4573 22.2063C93.4648 22.2728 93.487 22.3022 93.5239 22.3022C93.5912 22.2335 93.6796 22.1893 93.7749 22.1767L93.9005 22.1694C94.5431 22.1177 94.7573 22.2433 96.0276 21.8888L96.0349 21.97L96.2417 21.8665L96.4337 21.8519C96.4191 21.6671 96.6997 21.6376 96.7956 21.6302L96.781 21.4308C94.5505 21.8813 93.9669 21.7558 93.3466 21.9331L93.3392 21.8519C92.7558 21.9552 92.7337 21.9108 92.5858 21.9183C92.5415 21.9257 92.4751 21.9626 92.4013 22.0364C92.3939 21.97 92.3718 21.9403 92.3275 21.9403C92.3052 21.9403 92.298 21.9478 92.2905 21.9478L90.3997 22.2579C90.3925 22.2063 90.3702 22.1767 90.3259 22.1841C89.3437 22.3909 89.6095 22.4278 88.2948 22.546C88.2358 22.5534 88.1546 22.5829 88.0513 22.6493C88.0439 22.5978 88.0142 22.5683 87.9478 22.5755L87.1427 22.6421L86.6036 22.7749C86.5962 22.7233 86.5667 22.6937 86.5003 22.7011C86.1974 22.7823 85.9316 22.8341 85.7173 22.8487H85.7027C85.5696 22.8636 85.7691 22.8118 85.6657 22.7677L85.5032 22.8636C85.2669 22.8858 85.3925 22.8487 84.58 22.8562C83.1546 23.0335 83.3097 23.0556 83.1546 23.063L82.6228 23.0261C82.6302 23.0778 82.6007 23.1147 82.5415 23.1147C81.936 23.0335 81.6259 22.9374 81.6185 22.8267C81.6997 22.2507 81.84 21.9552 82.0394 21.9403L82.1429 21.9331L82.0542 22.1251L82.1575 22.1177C82.3495 22.0142 82.4382 21.9183 82.4308 21.8296L82.4161 21.6302L82.2239 21.645L82.2093 21.4603C82.1944 21.32 82.2167 21.1944 82.2683 21.0911L82.704 20.3894L82.7189 20.5741L82.9257 20.5593L82.9109 20.3747L82.7927 20.2048C82.9478 20.0718 83.0659 19.9979 83.162 19.9905L83.1546 19.8946L82.8739 19.9167L82.8519 19.636C83.4132 18.4692 83.679 17.7897 83.6642 17.5978L83.8636 17.679C83.9892 17.6716 84.0482 17.5978 84.0409 17.4647L83.8487 17.4796L83.8415 17.3983C83.8278 17.2635 83.8535 17.1275 83.9153 17.0069C84.2181 16.6894 84.3585 16.3718 84.3288 16.0394C84.388 16.0319 84.4175 16.0616 84.4249 16.128C84.6835 15.9804 84.8829 15.5888 85.0306 14.939C85.4884 14.1118 86.1384 12.4573 86.9876 9.9833C88.6126 5.61103 88.546 5.1458 88.7749 4.11182L88.5829 4.12646C88.5978 4.25947 88.5683 4.38506 88.5091 4.50322C88.3761 4.45146 88.2728 4.42197 88.1989 4.42939L88.1915 4.34814C88.162 3.97139 88.3171 3.521 88.6716 2.98916L88.7603 2.98174L88.9228 3.61689L89.1148 3.60225C89.1073 3.55791 89.1591 3.30674 89.2624 2.8415C89.255 2.74541 89.1812 2.68643 89.0335 2.679L88.8489 2.79717C88.8341 2.66416 88.8415 2.31709 88.8636 1.76318L88.7675 1.77061C88.6052 1.60811 88.5239 1.4751 88.5165 1.36436L87.4603 1.46768C87.453 1.39385 87.4161 1.28311 87.3421 1.14268C87.3349 1.04678 87.5712 0.950684 88.0585 0.854785L88.2728 0.936035L88.4722 0.817871C88.4796 0.884277 88.5165 0.91377 88.5903 0.906348L88.7898 0.788184C88.7972 0.854785 88.8341 0.884277 88.9079 0.876855L89.004 0.869434L88.9892 0.655371C88.8415 0.67002 88.4501 0.67002 87.8296 0.647949L87.6302 0.780957L87.6228 0.662793C82.6671 1.06885 79.8532 1.29795 79.1812 1.36436C79.0925 1.37178 78.7454 1.36436 78.1325 1.34951C78.1398 1.43076 78.0659 1.4751 77.9183 1.48994L77.704 1.39385L76.9804 1.57861C76.8105 1.59326 76.5224 1.58584 76.1236 1.5415C76.0128 1.63018 75.8798 1.68193 75.7173 1.69678C75.6288 1.704 76.7736 1.6376 77.837 1.56377C77.7263 1.65244 77.5564 1.704 77.32 1.72627C77.1575 1.74092 77.0173 1.71885 76.8991 1.65244C76.7366 1.72627 76.2122 1.84443 75.3333 2.02158L75.1192 1.94033L71.6628 2.47217C71.5298 2.40576 71.3747 2.3835 71.1974 2.39834C71.0128 2.41299 70.7027 2.47959 70.2743 2.59775L68.6052 3.29189L68.7306 3.49873C68.8118 3.49131 68.93 3.44697 69.0704 3.36572L69.6612 3.41748L69.5874 3.97139C69.0409 4.21514 68.7234 4.57705 68.6347 5.03486C67.815 5.39678 67.4087 5.65537 67.4087 5.81045L67.4161 5.90635L67.5415 5.89912L67.7632 5.78096L68.0216 6.09111L68.0585 6.51943C68.0734 6.65244 66.6923 9.55478 63.93 15.227C61.5372 20.6923 60.2816 23.6835 60.1634 24.2226C59.3437 24.4515 58.871 24.7839 58.7306 25.227C58.7454 25.3673 58.9892 25.4634 59.4618 25.5003L59.4839 25.7144L59.2698 26.0688L59.3068 26.4974C59.3288 26.7188 59.9271 26.8888 61.1015 27.0069C61.0941 26.9331 61.131 26.8888 61.2122 26.8813C61.2343 27.1472 61.1605 27.6642 60.9905 28.4323L61.1161 28.4249C61.6036 27.7603 61.8325 27.3022 61.8105 27.0513L61.9138 27.0438C62.0319 27.0364 62.1575 27.1694 62.3052 27.4573C62.1575 27.5165 61.6405 28.6907 60.7542 30.9876L60.8798 31.1944L61.0054 31.187C62.0911 28.4397 62.7706 26.9183 63.0511 26.6302C64.4767 26.5046 66.9433 26.2536 70.4441 25.8769L70.6657 25.7438C70.673 25.8179 70.7173 25.8548 70.7985 25.8474L71.0276 25.8251L71.2491 25.6923C71.2566 25.7661 71.3009 25.803 71.3821 25.7956L74.0335 25.5667C74.7351 25.5075 75.0675 25.2935 75.0378 24.9315C75.0306 24.8354 75.4441 24.7247 76.2786 24.6065C76.3599 24.5991 76.478 24.6214 76.6405 24.6729C76.6331 24.6065 77.0542 24.5401 77.8962 24.4663C77.9183 24.0231 78.0585 23.7868 78.3097 23.7645L78.2876 23.5505C78.0513 23.5726 77.7853 23.6317 77.4751 23.7351C76.9212 23.7056 76.5667 23.6612 76.4191 23.6095C76.2712 23.6907 76.1605 23.7351 76.0792 23.7425L74.2329 23.8015L74.0112 23.9196C74.0038 23.8532 73.9597 23.8237 73.8784 23.8312L73.7749 23.8384L73.5386 23.9567C73.5312 23.8901 73.3392 23.8384 72.9552 23.7868L72.7189 23.927L72.261 23.964L72.2536 23.8458C74.6317 23.5874 75.806 23.2624 75.7765 22.8784C75.9316 22.8636 76.0128 22.9374 76.0275 23.0925L76.7218 22.9153L76.6997 22.7011L71.0054 22.8562C71.0128 22.93 70.9759 22.9743 70.8946 22.9817L70.2003 22.9228C70.0232 22.9374 69.8755 22.9892 69.7573 23.0778L69.4987 22.9817C68.7823 23.0409 68.2505 23.1294 67.896 23.2403C67.4087 23.2034 66.8694 23.2106 66.2712 23.2624L64.9937 23.3731L64.4028 23.3067C64.3732 22.93 65.1044 21.0763 66.611 17.7528C67.0468 16.6302 67.4456 15.9286 67.8296 15.6628C67.9109 15.6554 68.029 15.6849 68.1915 15.7513L69.0999 15.4411L69.5651 15.5149C70.3482 15.4485 71.2566 15.2271 72.298 14.8429C72.5564 14.8208 72.7483 14.8356 72.8888 14.8946L73.5829 14.7321L75.6509 14.5548C76.5298 14.481 77.4825 14.289 78.5165 13.9714L78.4942 13.7573C78.1103 13.7942 77.9109 13.7276 77.8962 13.5726C77.8739 13.2847 77.5933 13.1663 77.0542 13.2106L77.0319 12.9966L77.6007 12.8341L79.0925 12.7085L79.0704 12.4944C79.0112 12.5017 78.7085 12.4944 78.1472 12.4722L78.1251 12.2433L78.7011 12.1915C78.8562 12.1769 78.9228 12.1028 78.9079 11.9552C78.1325 11.9772 77.7409 11.9403 77.7337 11.837C72.3275 12.1028 69.6169 12.1546 69.6023 11.9847C69.521 11.9921 69.4101 12.0438 69.2624 12.1325L69.1222 11.9108C70.5548 8.86807 71.3968 7.33174 71.6405 7.30967C71.648 7.42783 71.5888 7.61982 71.4632 7.87842L71.4706 7.97432L71.6997 7.95225C72.2683 6.59326 72.7484 5.8917 73.1472 5.86221C74.8458 5.71436 72.9109 5.60361 76.5446 5.03486C76.6923 5.10146 76.7956 5.13096 76.8694 5.12354C78.2948 4.83545 80.2816 4.53271 82.8296 4.22256L82.8148 4.0083L81.456 4.13389L81.4411 3.91963C81.6036 3.90498 81.7366 3.85322 81.8474 3.76455L81.8548 3.88271C81.9286 3.87549 82.0319 3.82373 82.165 3.73506C82.4013 3.71299 82.5784 3.73506 82.704 3.80146C83.1767 3.67607 83.5609 3.60205 83.8415 3.57256L84.6907 3.49131C84.8976 3.3585 84.9937 3.24033 84.9862 3.12939L84.9788 3.0335C84.7646 3.05557 84.521 3.04092 84.2329 2.98916C84.2255 2.871 84.2845 2.78975 84.4249 2.75283L86.0054 2.60518L86.7292 2.42041C86.7366 2.50166 86.7735 2.53115 86.8325 2.53115C86.9064 2.52393 87.0099 2.47217 87.1427 2.3835C87.1798 2.39092 87.2239 2.39092 87.2609 2.39834C87.165 2.59775 87.0542 2.88584 86.9433 3.2624L86.7366 3.27725C86.7218 3.13682 86.6849 3.01123 86.6185 2.90049L86.515 2.90791C84.5948 8.25498 83.738 10.744 81.9655 14.8503C81.6405 15.8991 81.3673 16.4825 81.131 16.6081C81.1384 16.7263 81.2122 16.7853 81.3378 16.7706C81.3821 17.2876 81.264 17.7972 80.9759 18.2993C80.156 20.6628 79.6095 21.9552 79.3288 22.1915L79.5136 23.3067C79.5208 23.4249 79.4618 23.4913 79.3362 23.5061L79.1442 23.521C79.1148 23.2106 79.0038 23.063 78.8046 23.0853L78.7011 23.0925C78.4499 23.4839 78.2579 23.9345 78.1325 24.4589L78.3245 24.444C78.5829 24.2743 78.7011 24.0749 78.679 23.8458L79.063 23.8089L79.2845 23.8901C79.1073 24.1708 79.0261 24.3925 79.0409 24.5622L79.1442 24.7395L78.8931 25.3304L78.9005 25.4265C79.1222 25.4042 79.3657 25.478 79.6243 25.6331C79.8015 25.6185 79.9937 25.5372 80.2077 25.3968C80.4294 25.3747 81.2566 25.3673 82.6819 25.3673L83.3984 25.1235C84.2698 25.1161 84.4101 25.1384 85.1634 25.0718L85.4735 25.0423L85.636 24.9315L85.6435 25.0276C86.4337 24.961 86.4855 25.0128 87.1058 25.0866L87.1132 25.1827L86.6775 25.2196L86.6923 25.4042C86.8251 25.3894 86.9433 25.3524 87.0394 25.2712C87.1501 25.264 87.2165 25.3229 87.2239 25.456C87.0468 25.4706 86.8474 25.5149 86.6257 25.5888L86.4337 25.5224C86.131 25.6036 86.1974 25.6257 85.9905 25.6405L85.6878 25.5815C85.6952 25.6331 85.6657 25.67 85.614 25.67C85.6214 25.7882 85.6878 25.8474 85.7986 25.8399L86.1087 25.8104L87.7263 25.67L88.3392 25.5372C88.3466 25.5888 88.3687 25.6185 88.4204 25.611L88.7159 25.5003L89.2698 25.456C89.6982 25.419 89.6907 25.3894 90.6214 25.2417C90.614 25.1827 90.636 25.1604 90.6804 25.153L90.6878 25.2343C92.2019 24.9759 92.2978 24.961 92.5415 24.8798L92.5638 24.9241C92.9403 24.8354 92.7263 24.8577 92.8296 24.7839C92.837 24.8503 92.8591 24.8798 92.896 24.8798L93.162 24.8577L93.1472 24.6583L92.6081 24.6509L92.6007 24.636C92.5784 24.6435 92.5638 24.6435 92.5415 24.6509H92.4677V24.6657C92.1058 24.7396 92.0984 24.6878 91.862 24.7101L90.5105 24.7839L90.5032 24.6878L91.2566 24.5845L91.5298 24.5622L91.6849 24.4515L91.6923 24.5476C92.7558 24.4589 93.1323 24.7247 98.0511 23.6761C98.3171 23.6538 98.2948 23.4323 98.4648 22.9743C98.3747 22.9805 98.2848 22.96 98.2064 22.9153C97.8001 23.0704 97.5859 22.9966 96.803 23.1222C96.7366 23.1296 96.6849 23.0704 96.6626 22.9522L96.6552 22.871L97.4085 22.8931C97.5489 22.8784 97.8222 22.8561 98.2284 22.6272C98.2284 22.6936 98.0735 22.7306 98.162 22.7233ZM61.7956 23.3067L61.4486 23.3362C61.4337 23.196 61.6185 22.6642 62.0025 21.7558L62.2314 21.7337C62.2388 21.9478 62.0984 22.4722 61.7956 23.3067ZM62.2167 21.6228L62.2093 21.5269C62.2019 21.4087 62.2757 21.3274 62.4382 21.2905L62.4456 21.3864C62.453 21.5269 62.379 21.6081 62.2167 21.6228ZM66.8325 25.1899L66.84 25.286L66.264 25.3378L66.2566 25.2417L66.8325 25.1899ZM66.1384 25.131C66.1458 25.2491 65.9685 25.3821 65.5845 25.5149L64.8753 25.4634L64.6464 25.4854L64.6243 25.2712L66.1384 25.131ZM70.806 3.64639L70.4589 3.67607L70.4515 3.55791C70.4441 3.43975 70.5107 3.3585 70.6583 3.32158L70.7839 3.31416L71.0202 3.41006C71.0275 3.55049 70.961 3.63174 70.806 3.64639ZM76.0866 2.6124L76.1974 2.60518L76.2122 2.81924L75.8946 2.84873C75.8872 2.73057 75.9462 2.64951 76.0866 2.6124ZM74.7571 3.07783L74.2329 3.01865L74.2255 2.92275C74.9124 2.86357 75.1413 2.78975 75.5622 2.67158C75.5696 2.75283 75.6435 2.78232 75.7765 2.76768L75.7911 2.98174L75.5845 3.004C75.422 3.01865 75.2816 2.99658 75.1634 2.92998C75.0378 3.01123 74.905 3.06299 74.7571 3.07783ZM75.4146 4.99072L75.4071 4.89463L76.2566 4.81338L76.264 4.90947L75.4146 4.99072ZM76.323 4.25205L76.3155 4.13389L76.7292 4.09697L76.7366 4.21514L76.323 4.25205ZM76.4191 2.80459L76.3081 2.81182L76.4042 2.58291L77.3495 2.49424L77.3569 2.6124C77.1132 2.63467 76.7956 2.70107 76.4191 2.80459ZM76.8991 4.84287L76.8843 4.62881L77.298 4.59189C77.4382 4.57705 77.512 4.64346 77.5194 4.79131L76.8991 4.84287ZM79.4026 1.43076L78.871 1.57861L78.7749 1.58584C78.5239 1.60811 78.1989 1.60068 77.8148 1.56377C78.5017 1.51943 79.1591 1.46768 79.4026 1.43076ZM78.8341 3.79424L78.8415 3.89014L78.1103 3.95674L78.1028 3.86064L78.8341 3.79424ZM80.0306 4.36279C80.0232 4.27432 79.8827 4.21514 79.5948 4.18564L78.8636 4.39248L78.3023 4.41455C78.1767 4.32588 78.1103 4.26689 78.1028 4.22256L78.7528 4.25947L80.2151 4.02314L80.9611 4.05264L80.9685 4.1708C80.5991 4.20771 80.289 4.27432 80.0306 4.36279ZM87.5564 2.42041C87.645 2.42783 87.704 2.42783 87.7263 2.42783C87.9847 2.17666 88.2728 1.97725 88.6052 1.83701C88.3392 3.004 87.9257 3.86807 87.3569 4.42939L86.9433 4.17822C87.2905 3.29932 87.4974 2.71592 87.5564 2.42041ZM86.286 4.59912L86.3894 4.59189C86.2491 4.85771 86.1235 4.99795 86.0202 5.00537L85.998 4.72471C86.0646 4.72471 86.1605 4.68037 86.286 4.59912ZM85.4663 6.55635C85.6657 5.75869 85.8577 5.3083 86.0349 5.19014L86.0423 5.28603C85.939 6.02451 85.7765 6.41611 85.5622 6.4456L85.5991 6.91084C85.422 7.16201 85.3407 7.354 85.348 7.50166L85.2446 7.50908L85.1857 6.8665C85.3038 6.85186 85.3997 6.74834 85.4663 6.55635ZM85.1487 7.61982C85.156 7.73057 85.0821 7.98916 84.9345 8.38799L84.8312 8.39541L84.8089 8.11475C84.9493 7.78975 85.0677 7.62725 85.1487 7.61982ZM79.1886 24.9167L79.1812 24.8354L79.3732 24.8208L79.3954 25.1015C79.2919 25.1089 79.2181 25.0497 79.1886 24.9167ZM87.704 25.1384C87.6966 25.0718 87.6671 25.0423 87.6007 25.0497L87.1206 25.094L87.1132 24.9979H87.1575L88.2948 24.902L88.3023 24.9979C87.97 25.0128 87.7706 25.0645 87.704 25.1384ZM87.1355 24.902C87.1798 24.9241 87.1575 24.9464 87.1355 24.961C87.1132 24.9536 87.0837 24.9315 87.1355 24.902ZM87.1945 23.5726L86.5593 23.6243L86.5519 23.5282L87.128 23.4767L87.6302 23.3511C87.6376 23.4101 87.6671 23.4323 87.7337 23.4249C88.3319 23.3216 88.2728 23.2919 88.5609 23.2698C88.6568 23.2624 88.7159 23.3216 88.7234 23.4397L87.1945 23.5726ZM89.4175 23.3806C89.063 23.3436 89.0409 23.3142 88.7898 23.3362L88.7823 23.255L89.3511 23.2034L89.3585 23.2847C89.2993 23.2919 89.5136 23.3067 89.4175 23.3806ZM89.4618 23.2772L89.4544 23.196L89.7646 23.1663L89.772 23.2476L89.4618 23.2772ZM90.1487 23.2181L90.1413 23.1368C90.1931 23.1296 90.2669 23.0925 90.3628 23.0187C90.5179 23.004 90.5991 23.1073 90.614 23.2255L90.1487 23.2181ZM91.0276 23.1073L91.0202 23.0112L91.3968 22.9817L91.4042 23.0778L91.0276 23.1073ZM91.5519 23.063C91.5446 22.9522 91.5888 22.8858 91.6849 22.871L91.8105 23.0335C91.803 22.9817 91.8251 22.9522 91.8694 22.9448L91.9655 23.1222L91.5519 23.063ZM98.8193 22.2063L98.8267 22.1989V22.1915C98.8267 22.1915 98.8193 22.1989 98.8193 22.2063ZM98.9523 22.1103C99.0112 22.0733 99.0409 22.0364 98.9005 22.0144C98.8341 22.0882 98.9743 22.1103 98.8267 22.1177L98.8341 22.1841C98.8487 22.1694 98.8859 22.1472 98.9153 22.1251L98.8341 22.1915V22.1989L98.679 22.3983L98.9892 22.2876H99.0261L99.0112 22.1028L98.9523 22.1103ZM99.4913 22.5313L99.4323 22.5386L99.447 22.7233L99.8827 22.6864C99.8755 22.5683 99.5874 22.5313 99.4913 22.5313Z" fill="#F9DC3E"/>
</svg>
