<svg width="101" height="81" viewBox="0 0 101 81" fill="none" xmlns="http://www.w3.org/2000/svg">
<path fill-rule="evenodd" clip-rule="evenodd" d="M21.3766 0.523926C15.6708 0.523926 11.4487 5.51807 11.6378 10.9341C11.8192 16.1374 11.5835 22.8765 9.88699 28.3722C8.18445 33.8833 5.3071 37.3757 0.606323 37.8239V42.8849C5.3071 43.3341 8.18445 46.8247 9.88679 52.3366C11.5835 57.8323 11.819 64.5714 11.6376 69.7747C11.4485 75.1899 15.6706 80.1849 21.3774 80.1849H79.8436C85.5495 80.1849 89.7708 75.1907 89.5817 69.7747C89.4003 64.5714 89.636 57.8323 91.3325 52.3366C93.035 46.8247 95.9053 43.3327 100.606 42.8849V37.8239C95.9055 37.3747 93.0352 33.8841 91.3325 28.3722C89.6358 22.8772 89.4003 16.1374 89.5817 10.9341C89.7708 5.51885 85.5495 0.523926 79.8436 0.523926H21.3766ZM68.403 49.5604C68.403 57.0181 62.8403 61.5409 53.6089 61.5409H37.8944C37.4449 61.5409 37.0138 61.3623 36.6959 61.0445C36.3781 60.7266 36.1995 60.2955 36.1995 59.846V20.863C36.1995 20.4135 36.3781 19.9824 36.6959 19.6645C37.0138 19.3466 37.4449 19.1681 37.8944 19.1681H53.5194C61.2169 19.1681 66.2686 23.3376 66.2686 29.7392C66.2686 34.2323 62.8702 38.2548 58.5407 38.9595V39.1938C64.4344 39.8403 68.403 43.9224 68.403 49.5604ZM51.8954 24.5409H42.9352V37.1972H50.4819C56.3159 37.1972 59.5327 34.848 59.5327 30.6489C59.5321 26.7138 56.7665 24.5409 51.8954 24.5409ZM42.9352 42.2188V56.1663H52.2251C58.2993 56.1663 61.5167 53.729 61.5167 49.1485C61.5167 44.5681 58.2091 42.2181 51.8344 42.2181L42.9352 42.2188Z" fill="#7952B3"/>
</svg>
