<svg width="101" height="89" viewBox="0 0 101 89" fill="none" xmlns="http://www.w3.org/2000/svg">
<path d="M30.8433 32.1746L49.816 21.2207C50.0494 21.0859 50.3141 21.0149 50.5836 21.0149C50.8531 21.0149 51.1178 21.0859 51.3512 21.2207L70.3239 32.1746C70.5572 32.3094 70.7509 32.5031 70.8856 32.7365C71.0204 32.9698 71.0913 33.2344 71.0915 33.5039V55.4117C71.0915 55.9597 70.7985 56.4664 70.3239 56.741L51.3512 67.6949C51.1178 67.8297 50.8531 67.9006 50.5836 67.9006C50.3141 67.9006 50.0494 67.8297 49.816 67.6949L30.8433 56.741C30.61 56.6062 30.4163 56.4125 30.2815 56.1791C30.1468 55.9458 30.0758 55.6811 30.0758 55.4117V33.5035C30.0761 32.955 30.3687 32.4492 30.8433 32.1746Z" fill="#8080F2"/>
<path d="M99.77 42.6625L77.077 3.18311C76.2528 1.75576 74.7301 0.702637 73.0817 0.702637H27.6953C26.0468 0.702637 24.5234 1.75576 23.6992 3.18311L1.00653 42.5754C0.182312 44.0031 0.182312 45.8051 1.00653 47.2328L23.6992 86.3887C24.5234 87.8161 26.0468 88.5458 27.6953 88.5458H73.0813C74.7297 88.5458 76.2528 87.838 77.0766 86.4102L99.7696 47.1906C100.595 45.7637 100.595 44.0898 99.77 42.6625ZM80.979 61.6469C80.979 62.227 80.6297 62.7641 80.1266 63.0547L51.2207 79.7317C50.9718 79.8743 50.69 79.9493 50.4031 79.9493C50.1163 79.9493 49.8344 79.8743 49.5855 79.7317L20.6574 63.0547C20.1546 62.7641 19.8027 62.2274 19.8027 61.6465V28.2918C19.8027 27.7109 20.1495 27.1746 20.6527 26.8839L49.557 10.2066C49.8058 10.0637 50.0876 9.98857 50.3744 9.98857C50.6612 9.98857 50.9431 10.0637 51.1918 10.2066L80.1215 26.8839C80.6251 27.1746 80.979 27.7109 80.979 28.2918V61.6469Z" fill="#4B32C3"/>
</svg>
