<svg width="98" height="101" viewBox="0 0 98 101" fill="none" xmlns="http://www.w3.org/2000/svg">
<path d="M78.7191 9.85352C76.2866 12.6854 75.1501 19.0678 77.6202 25.53C80.0856 31.9969 83.8705 30.5927 86.2279 37.1864C89.3413 45.884 87.8903 57.5733 87.8903 57.5733C87.8903 57.5733 91.6329 68.4078 94.2392 56.897C100.006 35.2843 78.7191 15.1792 78.7191 9.85352Z" fill="url(#paint0_radial_203_144)"/>
<path d="M49.0219 99.6059C73.9433 99.6059 94.1311 79.3035 94.1311 54.2765C94.1311 29.2496 73.9433 8.94719 49.0454 8.94719C24.1476 8.94719 3.95974 29.2449 3.95974 54.2765C3.91278 79.3317 24.1241 99.6059 49.0219 99.6059Z" fill="url(#paint1_radial_203_144)"/>
<path d="M82.8233 82.2247C81.8465 82.915 80.8228 83.5303 79.7615 84.0703C81.1703 82.0086 82.4711 79.8718 83.6544 77.6692C84.6171 76.6031 85.4952 75.5699 86.2137 74.4522C86.5612 73.9027 86.9557 73.2264 87.3736 72.4374C89.9047 67.8726 92.6988 60.4899 92.7786 52.9052V52.8864C92.7786 52.6986 92.7833 52.5107 92.7786 52.3276C92.7927 50.4255 92.5955 48.5235 92.1963 46.6637C92.2151 46.8093 92.2339 46.9549 92.2527 47.1005C92.2292 46.9878 92.2104 46.8751 92.187 46.7624C92.2245 46.969 92.2527 47.171 92.2856 47.3682C92.8021 51.7593 92.4358 56.0471 90.5903 59.2031C90.5622 59.25 90.5293 59.2923 90.5011 59.3393C91.4591 54.5396 91.7784 49.2374 90.7124 43.9305C90.7124 43.9305 90.2851 41.3521 87.1153 33.5186C85.2933 29.0101 82.0531 25.314 79.1886 22.623C76.681 19.5187 74.3988 17.4335 73.1449 16.1138C70.5199 13.3524 69.4211 11.2813 68.9702 9.92872C68.5805 9.73148 63.5699 4.86604 63.1708 4.68288C60.9825 8.07366 54.1076 18.6734 57.3807 28.5827C58.8646 33.0724 62.612 37.7312 66.5331 40.3471C66.7068 40.5444 68.8669 42.8926 69.8953 48.1901C70.9566 53.6613 70.3978 57.9303 68.2142 64.247C65.6455 69.7887 59.0618 75.2646 52.8961 75.8235C39.7193 77.0211 34.8918 69.2063 34.8918 69.2063C39.6019 71.0896 44.805 70.6951 47.9747 68.7414C51.168 66.7689 53.098 65.3036 54.6617 65.8813C56.2067 66.4543 57.437 64.787 56.3335 63.0588C54.5913 60.3771 51.4168 58.9917 48.2659 59.5459C45.0726 60.0672 42.1471 62.5938 37.9583 60.147C37.6859 59.992 37.423 59.8183 37.1741 59.6304C36.897 59.4473 38.071 59.9075 37.7986 59.7009C36.9862 59.2594 35.5446 58.292 35.1689 57.9491C35.1079 57.8928 35.8029 58.1699 35.7371 58.1135C31.8254 54.8918 32.3138 52.7127 32.4359 51.346C32.5345 50.2518 33.2436 48.8523 34.441 48.284C35.0186 48.5986 35.3802 48.8429 35.3802 48.8429C35.3802 48.8429 35.1313 48.3403 34.9999 48.0727C35.0468 48.0539 35.0891 48.0586 35.136 48.0398C35.6103 48.2699 36.6575 48.8616 37.2116 49.2233C37.9301 49.7305 38.1602 50.1813 38.1602 50.1813C38.1602 50.1813 38.3481 50.078 38.2072 49.6365C38.1555 49.4534 37.9395 48.8804 37.2257 48.2981L37.268 48.3028C37.6953 48.547 38.0992 48.8241 38.4748 49.1387C38.6768 48.4108 39.0384 47.6453 38.9585 46.2833C38.9116 45.3253 38.9303 45.0764 38.7613 44.7054C38.611 44.386 38.8458 44.2639 39.1088 44.5926C39.0618 44.3343 38.9867 44.0807 38.8834 43.8412V43.8177C39.2121 42.6765 45.8193 39.7037 46.2983 39.3562C47.0872 38.7973 47.7493 38.0788 48.2424 37.2428C48.6087 36.6558 48.8857 35.8339 48.9515 34.5894C48.989 33.6924 48.5711 33.0912 41.8888 32.3915C40.0621 32.213 38.9914 30.8886 38.3809 29.6676C38.2682 29.4046 38.1555 29.1651 38.0428 28.9255C37.9348 28.6485 37.8456 28.362 37.7845 28.0708C38.8787 24.9336 40.7101 22.2802 43.4103 20.2748C43.5558 20.1386 42.8233 20.3077 42.9689 20.1762C43.1426 20.0212 44.2602 19.5704 44.4716 19.4671C44.7298 19.3449 43.368 18.7673 42.1612 18.9082C40.9355 19.0444 40.6725 19.1947 40.0198 19.4718C40.2922 19.1994 41.1562 18.8471 40.9543 18.8471C39.63 19.0491 37.9912 19.8193 36.5824 20.6881C36.5777 20.5378 36.6106 20.3875 36.6669 20.2467C36.0142 20.5237 34.4035 21.6462 33.9386 22.5995C33.9574 22.4164 33.9667 22.2332 33.9667 22.0501C33.469 22.468 33.0182 22.9377 32.6237 23.4543L32.6002 23.4778C28.8059 21.9467 25.4624 21.8481 22.6355 22.5338C22.0156 21.9139 21.715 22.3647 20.3063 19.2745C20.3814 19.4577 20.2123 19.0866 20.3063 19.2745C20.4471 20.0729 20.0762 18.6734 20.3063 19.2745C17.9395 21.1437 14.8261 23.257 13.3328 24.7505C15.075 24.2527 13.314 24.8115 13.3328 24.7505C12.7223 24.9242 12.7646 25.2859 12.6707 28.5639C12.6472 28.8128 12.666 29.0899 12.6472 29.3153C11.4544 30.837 10.642 32.1238 10.3321 32.7907C8.78714 35.4535 7.08721 39.6004 5.43894 46.1612C6.16681 44.3813 7.04025 42.6671 8.05927 41.0375C6.68806 44.5222 5.3638 49.9888 5.10083 58.4094C5.43424 56.6717 5.85688 54.9528 6.37343 53.2621C6.04941 60.2503 7.25626 67.2245 9.90477 73.6961C10.8534 76.0161 12.4218 79.5336 15.0891 83.3941C23.476 92.2185 35.3051 97.7133 48.4067 97.7133C62.1001 97.7133 74.3847 91.7301 82.8233 82.2247Z" fill="url(#paint2_linear_203_144)"/>
<path d="M72.7036 88.6353C89.2567 86.7191 96.5824 69.6619 87.1717 69.3238C78.6721 69.0561 64.8614 89.5417 72.7036 88.6353Z" fill="url(#paint3_radial_203_144)"/>
<path d="M88.3646 65.8437C99.7524 59.2171 96.7845 44.8979 96.7845 44.8979C96.7845 44.8979 92.389 50.0029 89.4024 58.1417C86.4533 66.2007 81.5178 69.845 88.3646 65.8437Z" fill="url(#paint4_radial_203_144)"/>
<path d="M52.2105 97.1073C68.0875 102.175 81.7339 89.6636 73.3235 85.4886C65.6738 81.7221 44.6782 94.7122 52.2105 97.1073Z" fill="url(#paint5_radial_203_144)"/>
<path d="M89.5479 71.9209C89.933 71.3761 90.4542 69.6291 90.9191 68.8495C93.7226 64.3222 93.7414 60.7154 93.7414 60.6355C95.4366 52.1774 95.2816 48.7255 94.2391 42.3384C93.3986 37.1959 89.7357 29.8273 86.5613 26.2815C83.2882 22.6278 85.5939 23.8159 82.4242 21.1484C79.6489 18.0676 76.9534 15.0196 75.4883 13.7939C64.8895 4.93181 65.129 3.04857 65.3309 2.72921C65.2981 2.76678 65.2464 2.82314 65.1807 2.89828C65.0539 2.39577 64.9647 1.97779 64.9647 1.97779C64.9647 1.97779 59.1699 7.77312 57.9536 17.4242C57.1553 23.7267 59.5174 30.2969 62.9313 34.5002C64.7111 36.6746 66.7209 38.6518 68.928 40.3941V40.3895C71.5108 44.0949 72.929 48.6692 72.929 53.591C72.929 65.9143 62.936 75.9035 50.6092 75.9035C48.928 75.9035 47.2563 75.7156 45.6174 75.3446C39.7991 74.2362 36.4415 71.301 34.7651 69.3097C33.8071 68.1685 33.3986 67.3373 33.3986 67.3373C38.6111 69.2064 44.373 68.8119 47.8761 66.877C51.4075 64.9186 53.5441 63.4674 55.2769 64.0404C56.9863 64.6087 58.3481 62.9555 57.1271 61.2414C55.9297 59.5272 52.8163 57.0757 48.1955 57.7567C44.6594 58.2733 41.4192 60.7811 36.789 58.3484C36.4885 58.1934 36.202 58.0243 35.9203 57.8365C35.615 57.658 36.9111 58.1089 36.6106 57.9069C35.709 57.4702 34.1123 56.5121 33.6991 56.174C33.6287 56.1176 34.3988 56.3947 34.3284 56.3383C29.9987 53.1401 30.5387 50.9845 30.6749 49.6272C30.7829 48.5424 31.5718 47.1569 32.8961 46.5934C33.5347 46.908 33.9339 47.1475 33.9339 47.1475C33.9339 47.1475 33.6615 46.6497 33.5113 46.382C33.5629 46.3632 33.6146 46.3679 33.6615 46.3492C34.1875 46.5746 35.3474 47.1663 35.9578 47.5233C36.7515 48.0258 37.005 48.4766 37.005 48.4766C37.005 48.4766 37.2164 48.3733 37.0614 47.9365C37.005 47.7581 36.7655 47.1851 35.9766 46.6075L36.0236 46.6122C36.4932 46.8517 36.9393 47.1288 37.3572 47.4434C37.5779 46.7202 37.9771 45.9641 37.8926 44.6115C37.8409 43.6628 37.8644 43.4139 37.6766 43.0476C37.5075 42.7329 37.7705 42.6108 38.0616 42.9349C38.01 42.6766 37.9301 42.4277 37.8127 42.1882L37.8174 42.1647C38.179 41.0329 45.4953 38.0882 46.0259 37.7407C46.8853 37.2006 47.6179 36.4868 48.1767 35.6461C48.5852 35.0638 48.8905 34.2513 48.9656 33.0161C48.9891 32.4573 48.82 32.0205 46.8806 31.5978C45.716 31.3442 43.9175 31.1 41.1469 30.837C39.1229 30.6586 37.9395 29.3436 37.2633 28.1319C37.1412 27.8689 37.0144 27.6341 36.8876 27.3993C36.7702 27.1222 36.6716 26.8404 36.6012 26.5492C37.8174 23.3745 39.9964 20.6694 42.8374 18.8143C43.0018 18.6828 42.1847 18.8472 42.349 18.7157C42.5369 18.5607 43.7766 18.1145 44.0114 18.0112C44.2978 17.8891 42.7857 17.3162 41.4568 17.4571C40.0997 17.5932 39.8132 17.7388 39.0853 18.0159C39.3859 17.7482 40.3439 17.396 40.1185 17.4007C38.6533 17.6026 36.836 18.3634 35.2816 19.2276C35.2769 19.0773 35.3098 18.927 35.3756 18.7908C34.6524 19.0679 32.8726 20.1809 32.3561 21.1249C32.3795 20.9465 32.3889 20.7633 32.3842 20.5801C31.8395 20.9887 31.3417 21.4537 30.9003 21.9703L30.8721 21.9937C26.6693 20.4768 22.9736 20.3782 19.8414 21.0592C19.1558 20.4439 18.0569 19.5094 16.4979 16.4473C16.3899 16.2642 16.3335 16.8277 16.2537 16.6446C15.6479 15.2404 15.2816 12.9391 15.3427 11.3565C15.3427 11.3565 14.0889 11.9247 13.0558 14.3105C12.8632 14.7378 12.7411 14.9774 12.619 15.2122C12.5627 15.2826 12.7458 14.4279 12.7177 14.4749C12.5392 14.7801 12.0696 15.2075 11.8677 15.757C11.7268 16.1655 11.5296 16.3957 11.4028 16.9029L11.3746 16.9498C11.3652 16.7996 11.4122 16.3299 11.3793 16.4285C10.8956 17.4101 10.4777 18.4245 10.1302 19.4624C9.57137 21.2987 8.92333 23.7925 8.82002 27.0424C8.79654 27.2866 8.81533 27.5637 8.79654 27.7844C7.47699 29.2919 6.57537 30.5693 6.23726 31.2315C4.52324 33.8615 2.64017 37.9755 0.81345 44.48C1.62585 42.7048 2.59791 41 3.71554 39.3985C2.19875 42.8504 0.733619 48.2747 0.437775 56.6295C0.804058 54.9013 1.27835 53.1965 1.84656 51.5246C1.58358 57.0945 2.23162 63.9981 5.75358 71.7894C7.84327 76.3731 12.6566 85.6766 24.4152 92.9372C36.1739 100.198 28.4162 95.9147 35.291 98.1455C35.7982 98.3287 36.3147 98.5118 36.8407 98.6856C36.681 98.6198 36.5214 98.5494 36.3617 98.4789C40.9402 99.8503 45.6878 100.55 50.4683 100.55C68.2706 100.564 73.5207 93.4162 73.5207 93.4162C73.5207 93.4162 73.5019 93.4303 73.469 93.4538C73.7179 93.219 73.9621 92.9701 74.1969 92.7165C71.3887 95.3699 64.9787 95.5437 62.5791 95.3558C66.6646 94.1536 69.3554 93.1392 74.5866 91.1338C75.1971 90.9084 75.8264 90.6501 76.465 90.3589C76.5354 90.3307 76.6059 90.2931 76.6716 90.265C76.7984 90.2039 76.9252 90.1523 77.052 90.0865C79.6019 88.8842 81.9968 87.3861 84.1945 85.6156C89.4493 81.417 90.5904 77.3265 91.1915 74.6307C91.1069 74.889 90.8487 75.4902 90.6655 75.8847C89.3131 78.7776 86.3124 80.5576 83.0534 82.0792C84.6031 80.0457 86.04 77.9276 87.3596 75.7344C88.4209 74.6824 88.7543 73.0293 89.5479 71.9209Z" fill="url(#paint6_radial_203_144)"/>
<path d="M83.1521 81.957C85.2934 79.5947 87.2188 76.8943 88.6745 73.8275C92.4266 65.9423 98.2214 52.8301 93.6569 39.1401C90.0457 28.3197 85.0915 22.4023 78.8036 16.621C68.5853 7.23299 65.7301 3.04382 65.7301 0.550049C65.7301 0.550049 53.9339 13.7046 59.0478 27.418C64.1617 41.1314 74.643 40.6336 81.5742 54.9481C89.7311 71.794 74.9717 90.1756 62.767 95.3228C63.5136 95.1585 89.8955 89.1847 91.2855 74.0952C91.2573 74.3723 90.6609 78.5427 83.1521 81.957Z" fill="url(#paint7_radial_203_144)"/>
<path d="M48.9702 33.0067C49.0125 32.1144 48.5476 31.518 41.1797 30.8276C38.1461 30.5458 36.9863 27.7468 36.6341 26.5633C35.554 29.367 35.1126 32.3023 35.3521 35.8621C35.5164 38.1915 37.0802 40.69 37.8268 42.16C37.8268 42.16 37.9912 41.9439 38.071 41.8641C39.4798 40.3988 45.3826 38.1633 45.9367 37.844C46.5424 37.4589 48.8716 35.7588 48.9702 33.0067Z" fill="url(#paint8_linear_203_144)"/>
<path d="M16.5261 16.452C16.4181 16.2688 16.3617 16.8324 16.2819 16.6492C15.6761 15.245 15.3098 12.972 15.3944 11.3611C15.3944 11.3611 14.1405 11.9294 13.1074 14.3151C12.9149 14.7425 12.7928 14.982 12.6707 15.2168C12.6144 15.2873 12.7975 14.4325 12.7693 14.4795C12.5909 14.7848 12.1213 15.2121 11.9194 15.7381C11.7503 16.1702 11.5813 16.4003 11.4498 16.9357C11.4122 17.0813 11.4873 16.2923 11.4545 16.3909C9.04544 21.0497 8.58524 28.0896 8.83882 27.7938C13.9668 22.3178 19.8461 21.0169 19.8461 21.0169C19.2262 20.5519 17.8644 19.2229 16.5261 16.452Z" fill="url(#paint9_linear_203_144)"/>
<path d="M35.9907 73.7383C28.9046 70.7138 20.851 66.4448 21.1516 56.7515C21.5648 43.9868 33.0558 46.5088 33.0558 46.5088C32.6237 46.6121 31.4638 47.4387 31.0506 48.3216C30.6186 49.4205 29.825 51.9049 32.2246 54.5114C35.9954 58.5972 24.481 64.2047 42.2504 74.795C42.7012 75.0345 38.0898 74.6447 35.9907 73.7383Z" fill="url(#paint10_linear_203_144)"/>
<path d="M33.4737 67.3739C38.4984 69.1208 44.3496 68.8156 47.8574 66.8808C50.2054 65.5754 53.2108 63.481 55.0657 63.9975C53.4644 63.3636 52.2481 63.0677 50.7877 62.9973C50.5388 62.9973 50.243 62.9926 49.9706 62.9644C49.4353 62.9644 48.8999 62.9926 48.3693 63.0536C47.463 63.1382 46.4627 63.7064 45.5517 63.6171C45.5048 63.6125 46.4346 63.2321 46.3594 63.2509C45.8757 63.3495 45.3498 63.373 44.7957 63.4434C44.4435 63.481 44.1382 63.5279 43.7907 63.542C33.3235 64.4295 24.481 57.8693 24.481 57.8693C23.7249 60.4004 27.848 65.4157 33.4737 67.3739Z" fill="url(#paint11_linear_203_144)"/>
<path d="M83.1333 82.0228C93.718 71.6297 99.076 58.9964 96.8079 44.8227C96.8079 44.8227 97.7142 52.088 94.2815 59.5224C95.9297 52.2665 96.1223 43.2495 91.7457 33.9131C85.9039 21.4489 76.296 14.8927 72.6238 12.1547C67.0685 8.00784 64.7627 3.79049 64.7205 2.91697C63.0581 6.31714 58.0382 17.9782 64.1805 28.0191C69.9377 37.4259 79.0056 40.2203 85.3498 48.8475C97.0474 64.7495 83.1333 82.0228 83.1333 82.0228Z" fill="url(#paint12_linear_203_144)"/>
<path d="M81.6164 54.981C77.916 47.34 73.2999 44.0056 68.9327 40.3894C69.4399 41.0986 69.5667 41.3522 69.8484 41.8124C73.6944 45.9077 79.3624 55.9062 75.244 68.4502C67.4958 92.0682 36.5119 80.9472 33.2624 77.8242C34.5772 91.4906 57.4511 98.0326 72.3467 89.1706C80.8228 81.1445 87.6789 67.5062 81.6164 54.981Z" fill="url(#paint13_linear_203_144)"/>
<defs>
<radialGradient id="paint0_radial_203_144" cx="0" cy="0" r="1" gradientUnits="userSpaceOnUse" gradientTransform="translate(84.6681 30.5528) rotate(0.957441) scale(178.14 98.2376)">
<stop offset="0.045" stop-color="#FFEA00"/>
<stop offset="0.12" stop-color="#FFDE00"/>
<stop offset="0.254" stop-color="#FFBF00"/>
<stop offset="0.429" stop-color="#FF8E00"/>
<stop offset="0.769" stop-color="#FF272D"/>
<stop offset="0.872" stop-color="#E0255A"/>
<stop offset="0.953" stop-color="#CC2477"/>
<stop offset="1" stop-color="#C42482"/>
</radialGradient>
<radialGradient id="paint1_radial_203_144" cx="0" cy="0" r="1" gradientUnits="userSpaceOnUse" gradientTransform="translate(69.0597 12.937) scale(105.833 108.66)">
<stop stop-color="#00CCDA"/>
<stop offset="0.22" stop-color="#0083FF"/>
<stop offset="0.261" stop-color="#007AF9"/>
<stop offset="0.33" stop-color="#0060E8"/>
<stop offset="0.333" stop-color="#005FE7"/>
<stop offset="0.438" stop-color="#2639AD"/>
<stop offset="0.522" stop-color="#401E84"/>
<stop offset="0.566" stop-color="#4A1475"/>
</radialGradient>
<linearGradient id="paint2_linear_203_144" x1="55.9963" y1="75.7688" x2="35.5556" y2="7.04025" gradientUnits="userSpaceOnUse">
<stop stop-color="#000F43" stop-opacity="0.4"/>
<stop offset="0.485" stop-color="#001962" stop-opacity="0.173"/>
<stop offset="1" stop-color="#002079" stop-opacity="0"/>
</linearGradient>
<radialGradient id="paint3_radial_203_144" cx="0" cy="0" r="1" gradientUnits="userSpaceOnUse" gradientTransform="translate(56.8353 -89.1929) rotate(6.33288) scale(153.851 171.567)">
<stop offset="0.003" stop-color="#FFEA00"/>
<stop offset="0.497" stop-color="#FF272D"/>
<stop offset="1" stop-color="#C42482"/>
</radialGradient>
<radialGradient id="paint4_radial_203_144" cx="0" cy="0" r="1" gradientUnits="userSpaceOnUse" gradientTransform="translate(-16.8242 -109.894) rotate(3.17624) scale(438.161 246.566)">
<stop offset="0.003" stop-color="#FFE900"/>
<stop offset="0.157" stop-color="#FFAF0E"/>
<stop offset="0.316" stop-color="#FF7A1B"/>
<stop offset="0.472" stop-color="#FF4E26"/>
<stop offset="0.621" stop-color="#FF2C2E"/>
<stop offset="0.762" stop-color="#FF1434"/>
<stop offset="0.892" stop-color="#FF0538"/>
<stop offset="1" stop-color="#FF0039"/>
</radialGradient>
<radialGradient id="paint5_radial_203_144" cx="0" cy="0" r="1" gradientUnits="userSpaceOnUse" gradientTransform="translate(133.988 -95.0101) rotate(10.8736) scale(197.687 372.521)">
<stop offset="0.003" stop-color="#FF272D"/>
<stop offset="0.497" stop-color="#C42482"/>
<stop offset="0.986" stop-color="#620700"/>
</radialGradient>
<radialGradient id="paint6_radial_203_144" cx="0" cy="0" r="1" gradientUnits="userSpaceOnUse" gradientTransform="translate(74.8869 39.7279) scale(81.4227 80.6477)">
<stop offset="0.156" stop-color="#FFEA00"/>
<stop offset="0.231" stop-color="#FFDE00"/>
<stop offset="0.365" stop-color="#FFBF00"/>
<stop offset="0.541" stop-color="#FF8E00"/>
<stop offset="0.763" stop-color="#FF272D"/>
<stop offset="0.796" stop-color="#F92433"/>
<stop offset="0.841" stop-color="#E91C45"/>
<stop offset="0.893" stop-color="#CF0E62"/>
<stop offset="0.935" stop-color="#B5007F"/>
</radialGradient>
<radialGradient id="paint7_radial_203_144" cx="0" cy="0" r="1" gradientUnits="userSpaceOnUse" gradientTransform="translate(24.6143 0.686272) scale(242.037 99.0483)">
<stop offset="0.279" stop-color="#FFEA00"/>
<stop offset="0.402" stop-color="#FFDD00"/>
<stop offset="0.63" stop-color="#FFBA00"/>
<stop offset="0.856" stop-color="#FF9100"/>
<stop offset="0.933" stop-color="#FF6711"/>
<stop offset="0.994" stop-color="#FF4A1D"/>
</radialGradient>
<linearGradient id="paint8_linear_203_144" x1="-233.125" y1="84.6692" x2="21.3383" y2="42.0233" gradientUnits="userSpaceOnUse">
<stop stop-color="#C42482" stop-opacity="0.5"/>
<stop offset="0.474" stop-color="#FF272D" stop-opacity="0.5"/>
<stop offset="0.486" stop-color="#FF2C2C" stop-opacity="0.513"/>
<stop offset="0.675" stop-color="#FF7A1A" stop-opacity="0.72"/>
<stop offset="0.829" stop-color="#FFB20D" stop-opacity="0.871"/>
<stop offset="0.942" stop-color="#FFD605" stop-opacity="0.964"/>
<stop offset="1" stop-color="#FFE302"/>
</linearGradient>
<linearGradient id="paint9_linear_203_144" x1="54.8391" y1="94.1731" x2="36.8398" y2="1.32366" gradientUnits="userSpaceOnUse">
<stop stop-color="#891551" stop-opacity="0.6"/>
<stop offset="1" stop-color="#C42482" stop-opacity="0"/>
</linearGradient>
<linearGradient id="paint10_linear_203_144" x1="8.2506" y1="7.26664" x2="34.5214" y2="55.2376" gradientUnits="userSpaceOnUse">
<stop offset="0.005" stop-color="#891551" stop-opacity="0.5"/>
<stop offset="0.484" stop-color="#FF272D" stop-opacity="0.5"/>
<stop offset="1" stop-color="#FF272D" stop-opacity="0"/>
</linearGradient>
<linearGradient id="paint11_linear_203_144" x1="46.4278" y1="103.593" x2="66.2087" y2="37.8539" gradientUnits="userSpaceOnUse">
<stop stop-color="#C42482"/>
<stop offset="0.083" stop-color="#C42482" stop-opacity="0.81"/>
<stop offset="0.206" stop-color="#C42482" stop-opacity="0.565"/>
<stop offset="0.328" stop-color="#C42482" stop-opacity="0.362"/>
<stop offset="0.447" stop-color="#C42482" stop-opacity="0.204"/>
<stop offset="0.562" stop-color="#C42482" stop-opacity="0.091"/>
<stop offset="0.673" stop-color="#C42482" stop-opacity="0.023"/>
<stop offset="0.773" stop-color="#C42482" stop-opacity="0"/>
</linearGradient>
<linearGradient id="paint12_linear_203_144" x1="6.58121" y1="2.19614" x2="27.8435" y2="103.092" gradientUnits="userSpaceOnUse">
<stop stop-color="#FFF14F"/>
<stop offset="0.268" stop-color="#FFEE4C"/>
<stop offset="0.452" stop-color="#FFE643"/>
<stop offset="0.612" stop-color="#FFD834"/>
<stop offset="0.757" stop-color="#FFC41E"/>
<stop offset="0.892" stop-color="#FFAB02"/>
<stop offset="0.902" stop-color="#FFA900"/>
<stop offset="0.949" stop-color="#FFA000"/>
<stop offset="1" stop-color="#FF9100"/>
</linearGradient>
<linearGradient id="paint13_linear_203_144" x1="69.6326" y1="44.1706" x2="54.9163" y2="83.68" gradientUnits="userSpaceOnUse">
<stop stop-color="#FF8E00"/>
<stop offset="0.04" stop-color="#FF8E00" stop-opacity="0.858"/>
<stop offset="0.084" stop-color="#FF8E00" stop-opacity="0.729"/>
<stop offset="0.13" stop-color="#FF8E00" stop-opacity="0.628"/>
<stop offset="0.178" stop-color="#FF8E00" stop-opacity="0.557"/>
<stop offset="0.227" stop-color="#FF8E00" stop-opacity="0.514"/>
<stop offset="0.282" stop-color="#FF8E00" stop-opacity="0.5"/>
<stop offset="0.389" stop-color="#FF8E00" stop-opacity="0.478"/>
<stop offset="0.524" stop-color="#FF8E00" stop-opacity="0.416"/>
<stop offset="0.676" stop-color="#FF8E00" stop-opacity="0.314"/>
<stop offset="0.838" stop-color="#FF8E00" stop-opacity="0.172"/>
<stop offset="1" stop-color="#FF8E00" stop-opacity="0"/>
</linearGradient>
</defs>
</svg>
