<svg width="101" height="98" viewBox="0 0 101 98" fill="none" xmlns="http://www.w3.org/2000/svg">
<path d="M50.3135 0.382324C22.7028 0.382324 0.313354 22.7678 0.313354 50.3825C0.313354 72.4743 14.6399 91.2164 34.5067 97.8279C37.0054 98.2906 37.923 96.7432 37.923 95.4225C37.923 94.2304 37.8763 90.2913 37.8552 86.1134C23.9447 89.138 21.0095 80.214 21.0095 80.214C18.7351 74.4346 15.4579 72.8982 15.4579 72.8982C10.9216 69.7948 15.7999 69.8583 15.7999 69.8583C20.8209 70.2112 23.4647 75.0111 23.4647 75.0111C27.9241 82.6551 35.1615 80.445 38.0148 79.1678C38.4634 75.9357 39.7594 73.7303 41.1892 72.4817C30.0837 71.2171 18.4088 66.9298 18.4088 47.7712C18.4088 42.3126 20.3621 37.852 23.5608 34.3505C23.0416 33.091 21.3303 28.0057 24.0451 21.1185C24.0451 21.1185 28.2437 19.7746 37.7987 26.2438C41.7868 25.1356 46.0643 24.5803 50.3135 24.5615C54.5628 24.5803 58.8434 25.1356 62.8394 26.2438C72.383 19.7746 76.5758 21.1185 76.5758 21.1185C79.2972 28.0057 77.5851 33.091 77.0659 34.3505C80.2717 37.852 82.2116 42.3122 82.2116 47.7712C82.2116 66.9753 70.5148 71.2041 59.3811 72.4417C61.1743 73.9934 62.7723 77.0365 62.7723 81.701C62.7723 88.391 62.7143 93.7755 62.7143 95.4225C62.7143 96.753 63.6143 98.3122 66.1491 97.8212C86.0048 91.2022 100.313 72.4668 100.313 50.3825C100.313 22.7678 77.9271 0.382324 50.3135 0.382324Z" fill="#161614"/>
<path d="M19.04 71.6088C18.9302 71.8571 18.5389 71.9316 18.1832 71.7614C17.8205 71.5982 17.6166 71.2594 17.7342 71.01C17.842 70.7544 18.2334 70.683 18.5954 70.8547C18.9589 71.0175 19.1659 71.3594 19.04 71.6088ZM21.4996 73.8033C21.2611 74.0244 20.7949 73.9217 20.4784 73.5723C20.1514 73.2237 20.0902 72.7578 20.3322 72.5331C20.578 72.3123 21.0302 72.4155 21.358 72.7645C21.6851 73.117 21.749 73.5797 21.4996 73.8033ZM23.187 76.611C22.8803 76.8239 22.3791 76.6243 22.0697 76.1796C21.7635 75.7354 21.7635 75.202 22.0764 74.9883C22.387 74.7746 22.8803 74.9668 23.194 75.4079C23.4999 75.8601 23.5003 76.393 23.187 76.611ZM26.0402 79.8631C25.7661 80.165 25.1826 80.0842 24.7551 79.6717C24.3183 79.2686 24.1963 78.6964 24.4712 78.3941C24.7485 78.0914 25.3355 78.1765 25.7661 78.5855C26.2002 78.9878 26.3324 79.5642 26.0402 79.8631ZM29.7279 80.9611C29.6075 81.3524 29.0452 81.5305 28.4789 81.3642C27.9135 81.1928 27.5433 80.734 27.6574 80.3383C27.775 79.9442 28.3397 79.7587 28.9103 79.9368C29.475 80.1074 29.8456 80.5626 29.7279 80.9611ZM33.9254 81.4265C33.9395 81.8391 33.4592 82.181 32.8647 82.1885C32.2667 82.2014 31.7831 81.8677 31.7769 81.4622C31.7769 81.0458 32.2463 80.7069 32.8439 80.6971C33.4384 80.6854 33.9254 81.0167 33.9254 81.4265ZM38.0484 81.2685C38.1198 81.6708 37.7065 82.0842 37.1163 82.194C36.5359 82.2998 35.9987 82.0516 35.9246 81.6528C35.8524 81.2403 36.2736 80.8273 36.8528 80.7203C37.4441 80.6175 37.9731 80.8595 38.0484 81.2685Z" fill="#161614"/>
</svg>
