<svg width="97" height="101" viewBox="0 0 97 101" fill="none" xmlns="http://www.w3.org/2000/svg">
<path d="M73.9298 33.4725V21.5644C75.5035 20.8289 76.8359 19.6616 77.7719 18.1983C78.708 16.735 79.2091 15.036 79.2172 13.299V13.0258C79.2172 7.96118 75.1115 3.85553 70.0473 3.85553H69.7737C64.7091 3.85553 60.6035 7.96118 60.6035 13.0258V13.299C60.6115 15.036 61.1127 16.735 62.0487 18.1983C62.9848 19.6616 64.3172 20.8289 65.8908 21.5644V33.4725C61.368 34.1652 57.1085 36.0405 53.5436 38.9088L20.8848 13.4709C21.1176 12.6302 21.2391 11.7658 21.2528 10.8981C21.2568 8.85435 20.6546 6.85536 19.5224 5.15395C18.3901 3.45255 16.7787 2.12515 14.8919 1.33969C13.0052 0.554216 10.9279 0.345956 8.92276 0.741248C6.91763 1.13654 5.07478 2.11763 3.62731 3.56041C2.17985 5.00319 1.19279 6.84285 0.790996 8.84668C0.389202 10.8505 0.590723 12.9285 1.37007 14.8178C2.14942 16.7071 3.47157 18.3228 5.1693 19.4605C6.86703 20.5983 8.86405 21.207 10.9078 21.2096C12.6957 21.2012 14.45 20.7239 15.9957 19.8253L48.1553 44.8504C42.2428 53.7821 42.401 65.4226 48.5537 74.1909L38.7724 83.975C37.9814 83.7223 37.1581 83.5879 36.3279 83.5766C31.6435 83.5807 27.8486 87.3796 27.8498 92.064C27.851 96.748 31.6483 100.545 36.3323 100.546C41.0167 100.547 44.8157 96.7525 44.8197 92.0681C44.8087 91.2381 44.6743 90.4144 44.421 89.6239L54.0973 79.944C62.7433 86.5999 74.6179 87.1734 83.8652 81.3816C93.1121 75.5893 97.7788 64.6546 95.5631 53.9709C93.3474 43.2869 84.7176 35.1103 73.9298 33.4725ZM69.919 72.6375C68.1313 72.6856 66.3522 72.375 64.6865 71.7242C63.0209 71.0733 61.5026 70.0953 60.2211 68.8479C58.9397 67.6005 57.9212 66.109 57.2258 64.4615C56.5304 62.8139 56.172 61.0438 56.172 59.2555C56.172 57.4672 56.5304 55.697 57.2258 54.0495C57.9212 52.402 58.9397 50.9105 60.2211 49.6631C61.5026 48.4157 63.0209 47.4377 64.6865 46.7868C66.3522 46.1359 68.1313 45.8253 69.919 45.8734C77.123 46.1257 82.8337 52.037 82.8377 59.2458C82.8409 66.4538 77.1363 72.3711 69.9323 72.6306" fill="#FF7A59"/>
</svg>
