<svg width="101" height="98" viewBox="0 0 101 98" fill="none" xmlns="http://www.w3.org/2000/svg">
<path d="M4.37548 4.5675H96.0423V93.7345H4.37548V4.5675Z" fill="url(#paint0_radial_203_245)"/>
<path d="M4.37548 4.5675H96.0423V93.7345H4.37548V4.5675ZM0.208862 97.9012H100.209V0.400879H0.208862V97.9012ZM58.7507 41.4426C58.7507 40.9425 58.7507 39.7343 58.5424 37.4008C58.5424 37.0675 58.6257 36.9842 58.8757 36.8592C61.4173 35.8175 67.459 33.9843 74.209 33.9843C74.5423 33.9843 74.7091 34.0676 74.7091 34.4009V40.4009C74.7091 40.7342 74.5841 40.8175 74.209 40.8175C71.584 40.6925 67.709 41.0258 66.2507 41.6508V67.9426C66.2507 68.2759 66.1257 68.4425 65.7506 68.4425H59.2089C58.8757 68.4425 58.7088 68.3176 58.7088 67.9426V41.4424L58.7507 41.4426ZM27.9174 68.4425C27.4173 68.4425 27.2923 68.2344 27.2923 67.8176V23.0259C27.2923 22.6926 27.4173 22.4841 27.7924 22.4841H34.3755C34.7088 22.4841 34.7922 22.6091 34.7922 22.9842V61.5676H51.9587C52.292 61.5676 52.4172 61.6926 52.3337 62.0677L51.2922 67.9844C51.2088 68.3176 51.0005 68.4844 50.6671 68.4844H27.9174V68.4425Z" fill="#AAD1EB"/>
<defs>
<radialGradient id="paint0_radial_203_245" cx="0" cy="0" r="1" gradientUnits="userSpaceOnUse" gradientTransform="translate(33.1441 22.2508) scale(76.0001 73.7539)">
<stop stop-color="#39464D" stop-opacity="0.98"/>
<stop offset="1" stop-color="#05151F"/>
</radialGradient>
</defs>
</svg>
