<svg width="101" height="99" viewBox="0 0 101 99" fill="none" xmlns="http://www.w3.org/2000/svg">
<path d="M0.704346 0.567871H100.704V98.9012H0.704346V0.567871Z" fill="url(#paint0_linear_203_235)"/>
<path d="M8.65733 8.38778H92.7519V91.0818H8.65733V8.38778Z" fill="url(#paint1_linear_203_235)"/>
<path d="M24.8703 28.2826C24.8703 28.2826 31.193 28.1163 36.3976 28.1163C41.657 28.1163 45.407 29.3536 47.9246 31.528C50.331 33.5826 51.9536 37.0853 51.9536 41.0726C51.9536 45.06 50.7223 48.3226 48.4836 50.6166C45.574 53.577 42.1833 55.3293 36.3976 55.5716C34.7993 55.6386 33.32 55.6546 33.32 55.6546V68.616H24.87L24.8703 28.2826ZM33.3196 48.4736C34.2376 48.563 34.813 48.52 36.1736 48.5036C40.7063 48.4493 43.5033 45.693 43.5033 41.5246C43.5033 37.78 41.197 34.7053 36.8456 34.546C35.1113 34.4826 33.3196 34.546 33.3196 34.546V48.4736Z" fill="url(#paint2_linear_203_235)"/>
<path d="M55.1783 59.5864C56.8813 60.6314 60.8999 62.1964 63.6393 62.1964C66.4379 62.1964 67.5936 61.2101 67.5936 59.6724C67.5936 58.1327 66.6809 56.5154 63.2119 55.3461C57.0656 53.2531 54.6919 50.7477 54.7536 47.2411C54.7536 41.5774 59.4996 37.3307 66.8629 37.3307C70.3316 37.3307 73.1026 38.4647 74.9266 39.3874V46.1847C73.5866 45.4454 69.7229 43.7947 67.1676 43.7947C64.9146 43.7947 63.6376 44.7181 63.6376 46.2554C63.6376 47.6714 64.7946 48.4101 68.4456 49.7034C74.1039 51.6727 76.4776 54.5648 76.5376 58.9964C76.5376 64.5981 72.2196 69.0524 63.6376 68.7821C60.6923 68.6894 57.4293 67.5251 55.1776 66.2958L55.1783 59.5864Z" fill="url(#paint3_linear_203_235)"/>
<defs>
<linearGradient id="paint0_linear_203_235" x1="25.006" y1="-4.56746" x2="63.3393" y2="76.4328" gradientUnits="userSpaceOnUse">
<stop stop-color="#A0CBFF"/>
<stop offset="0.394" stop-color="#A0CBFE"/>
<stop offset="0.583" stop-color="#8EC2FC"/>
<stop offset="0.784" stop-color="#83BCFB"/>
<stop offset="1" stop-color="#7FBAFB"/>
</linearGradient>
<linearGradient id="paint1_linear_203_235" x1="36.3253" y1="1.9536" x2="62.0894" y2="87.5714" gradientUnits="userSpaceOnUse">
<stop stop-color="#090058"/>
<stop offset="1" stop-color="#070033"/>
</linearGradient>
<linearGradient id="paint2_linear_203_235" x1="-42.8151" y1="-68.3235" x2="25.4818" y2="151.135" gradientUnits="userSpaceOnUse">
<stop stop-color="#A0CBFF"/>
<stop offset="0.394" stop-color="#A0CBFE"/>
<stop offset="0.583" stop-color="#8EC2FC"/>
<stop offset="0.784" stop-color="#83BCFB"/>
<stop offset="1" stop-color="#7FBAFB"/>
</linearGradient>
<linearGradient id="paint3_linear_203_235" x1="34.9179" y1="-10.8338" x2="73.403" y2="70.4866" gradientUnits="userSpaceOnUse">
<stop stop-color="#A0CBFF"/>
<stop offset="0.394" stop-color="#A0CBFE"/>
<stop offset="0.583" stop-color="#8EC2FC"/>
<stop offset="0.784" stop-color="#83BCFB"/>
<stop offset="1" stop-color="#7FBAFB"/>
</linearGradient>
</defs>
</svg>
