<svg width="101" height="96" viewBox="0 0 101 96" fill="none" xmlns="http://www.w3.org/2000/svg">
<path d="M70.1284 67.0217C73.8186 66.6396 76.6182 63.4584 76.4909 59.6404C76.3639 55.8228 73.1823 52.7685 69.3647 52.7685H69.1104C65.1651 52.8959 62.1112 56.2045 62.2385 60.1494C62.3659 62.0584 63.1292 63.7127 64.2745 64.858C59.9479 73.3846 53.3307 79.6201 43.4049 84.8377C36.6604 88.401 29.6615 89.6736 22.6627 88.783C16.9361 88.0193 12.4822 85.4744 9.68223 81.2744C5.61035 75.0389 5.22871 68.2939 8.66465 61.5494C11.0826 56.7135 14.8998 53.1502 17.3178 51.3685C16.8088 49.7143 16.0451 46.9146 15.6635 44.8787C-2.78849 58.2408 -0.879499 76.3115 4.71973 84.8377C8.91895 91.201 17.4451 95.1459 26.8619 95.1459C29.4069 95.1459 31.9518 94.8912 34.4971 94.2553C50.7858 91.0736 63.1296 81.4018 70.1284 67.0217ZM92.5253 51.2416C82.8538 39.9154 68.6014 33.6799 52.3127 33.6799H50.2768C49.1315 31.3893 46.7135 29.8619 44.0413 29.8619H43.7866C39.842 29.9893 36.7881 33.2978 36.9151 37.2432C37.0424 41.0607 40.2237 44.115 44.0413 44.115H44.2955C47.0952 43.9877 49.5131 42.2061 50.5311 39.7881H52.8217C62.4932 39.7881 71.6553 42.5877 79.9272 48.06C86.2897 52.2596 90.871 57.7318 93.4159 64.349C95.5792 69.6939 95.4519 74.9115 93.1612 79.3658C89.5983 86.1103 83.6175 89.801 75.7276 89.801C70.6374 89.801 65.8018 88.2736 63.2565 87.1283C61.8569 88.401 59.3116 90.4369 57.5299 91.71C63.0022 94.2549 68.6014 95.6549 73.946 95.6549C86.1624 95.6549 95.1976 88.91 98.6335 82.1654C102.324 74.7842 102.069 62.0584 92.5253 51.2416ZM27.8799 69.1846C28.0072 73.0025 31.1885 76.0564 35.0061 76.0564H35.2608C39.2057 75.9295 42.2596 72.6205 42.1323 68.6756C42.0053 64.8576 38.8237 61.8037 35.0061 61.8037H34.7518C34.4971 61.8037 34.1151 61.8037 33.8612 61.9307C28.6436 53.2771 26.4803 43.8603 27.244 33.6795C27.7526 26.0439 30.2979 19.4264 34.7518 13.9541C38.442 9.24551 45.5682 6.95488 50.4041 6.82793C63.8928 6.57324 69.619 23.3713 70.001 30.1162C71.6553 30.4978 74.455 31.3889 76.3639 32.0252C74.8366 11.4096 62.1112 0.719727 49.8952 0.719727C38.442 0.719727 27.8799 8.9916 23.6803 21.2084C17.8268 37.4975 21.6444 53.1502 28.7705 65.4943C28.1346 66.385 27.7526 67.7846 27.8799 69.1846Z" fill="#764ABC"/>
</svg>
