<svg width="101" height="61" viewBox="0 0 101 61" fill="none" xmlns="http://www.w3.org/2000/svg">
<path d="M50.1553 0.725586C36.8216 0.725586 28.4885 7.39058 25.1547 20.7193C30.1553 14.0543 35.9888 11.5559 42.655 13.2215C46.4589 14.1719 49.1775 16.9316 52.1873 19.9853C57.0892 24.9596 62.7626 30.7168 75.156 30.7168C88.4885 30.7168 96.8228 24.0518 100.155 10.7218C95.156 17.3868 89.3225 19.8865 82.655 18.2209C78.8523 17.2705 76.1338 14.5107 73.1239 11.4571C68.2221 6.48274 62.5475 0.725586 50.1553 0.725586ZM25.1547 30.7168C11.8222 30.7168 3.48783 37.3818 0.155334 50.7117C5.15471 44.0468 10.9881 41.5471 17.6556 43.2139C21.4583 44.1656 24.1768 46.9241 27.1867 49.9765C32.0886 54.9508 37.7632 60.7092 50.1553 60.7092C63.4891 60.7092 71.8222 54.0442 75.156 40.7143C70.1553 47.3793 64.3219 49.8789 57.6557 48.2121C53.8517 47.263 51.1332 44.5019 48.1233 41.4495C43.2215 36.4752 37.5481 30.7168 25.1547 30.7168Z" fill="#06B6D4"/>
</svg>
