<svg width="100" height="101" viewBox="0 0 100 101" fill="none" xmlns="http://www.w3.org/2000/svg">
<path d="M0 0.913574H100V100.914H0V0.913574Z" fill="#017ACB"/>
<path d="M48.0157 37.9448H52.8126V46.2261H39.8438V83.0698L39.5 83.1636C39.0313 83.2886 32.8594 83.2886 31.5313 83.1479L30.4688 83.0542V46.2261H17.5V37.9448L21.6094 37.8979C23.8594 37.8667 29.6406 37.8667 34.4532 37.8979C39.2657 37.9292 45.3594 37.9448 48.0157 37.9448ZM84.6251 79.1636C82.7189 81.1792 80.672 82.3042 77.2657 83.2261C75.7813 83.6323 75.5313 83.6479 72.1876 83.6323C68.8438 83.6167 68.5782 83.6167 66.9532 83.1948C62.7501 82.1167 59.3594 80.0073 57.0469 77.0229C56.3907 76.1792 55.3126 74.4292 55.3126 74.2104C55.3126 74.1479 55.4688 74.0073 55.6719 73.9136C55.8751 73.8198 56.2969 73.5542 56.6407 73.3511C56.9844 73.1479 57.6094 72.7729 58.0313 72.5542C58.4532 72.3354 59.6719 71.6167 60.7345 70.9761C61.797 70.3354 62.7657 69.8198 62.8751 69.8198C62.9845 69.8198 63.1876 70.0386 63.3438 70.3042C64.2813 71.8823 66.4688 73.8979 68.0157 74.5854C68.9688 74.9917 71.0782 75.4448 72.0938 75.4448C73.0313 75.4448 74.7501 75.0386 75.672 74.6167C76.6564 74.1636 77.1564 73.7104 77.7501 72.8042C78.1564 72.1636 78.2032 71.9917 78.1876 70.7729C78.1876 69.6479 78.1251 69.3354 77.8126 68.8198C76.9376 67.3823 75.7501 66.6323 70.9376 64.5073C65.9688 62.3042 63.7345 60.9917 61.9219 59.2261C60.5782 57.9136 60.3126 57.5542 59.4688 55.9136C58.3751 53.8042 58.2344 53.1167 58.2188 49.9761C58.2032 47.7729 58.2501 47.0542 58.4844 46.3042C58.8126 45.1792 59.8751 43.0073 60.3594 42.4604C61.3594 41.2886 61.7188 40.9292 62.422 40.3511C64.547 38.6011 67.8595 37.4448 71.0313 37.3354C71.3907 37.3354 72.5782 37.3979 73.6876 37.4761C76.8751 37.7417 79.047 38.5229 81.1407 40.1948C82.7189 41.4448 85.1095 44.3823 84.8751 44.7729C84.7189 45.0073 78.4845 49.1636 78.0782 49.2886C77.8282 49.3667 77.6563 49.2729 77.3126 48.8667C75.1876 46.3198 74.3282 45.7729 72.2657 45.6479C70.797 45.5542 70.0157 45.7261 69.0313 46.3823C68.0001 47.0698 67.5001 48.1167 67.5001 49.5698C67.5157 51.6948 68.3282 52.6948 71.3282 54.1792C73.2657 55.1323 74.922 55.9136 75.047 55.9136C75.2345 55.9136 79.2501 57.9136 80.297 58.5386C85.172 61.3979 87.1564 64.3354 87.672 69.3979C88.047 73.2104 86.9689 76.6948 84.6251 79.1636Z" fill="white"/>
</svg>
