<svg width="101" height="100" viewBox="0 0 101 100" fill="none" xmlns="http://www.w3.org/2000/svg">
<path d="M1.50366 34.6576C1.50366 34.6576 -0.931963 32.9019 1.99079 30.5577L8.80039 24.4686C8.80039 24.4686 10.7489 22.4186 12.809 24.2047L75.6482 71.7806V94.5944C75.6482 94.5944 75.6177 98.1768 71.0205 97.781L1.50366 34.6576Z" fill="#2489CA"/>
<path d="M17.7006 49.363L1.50367 64.0884C1.50367 64.0884 -0.160679 65.3265 1.50367 67.5389L9.02367 74.3789C9.02367 74.3789 10.8098 76.297 13.4484 74.115L30.6196 61.0946L17.7006 49.363Z" fill="#1070B3"/>
<path d="M46.1366 49.4847L75.8411 26.8029L75.6483 4.11088C75.6483 4.11088 74.3797 -0.841575 70.1478 1.73614L30.6196 37.7125L46.1366 49.4847Z" fill="#0877B9"/>
<path d="M71.0206 97.8115C72.7458 99.5774 74.8364 98.9989 74.8364 98.9989L97.985 87.592C100.948 85.5725 100.532 83.0658 100.532 83.0658V14.9494C100.532 11.9556 97.4674 10.9204 97.4674 10.9204L77.404 1.24895C73.0198 -1.46069 70.1478 1.73614 70.1478 1.73614C70.1478 1.73614 73.8419 -0.922757 75.6483 4.11088L75.6483 94.1784C75.6483 94.7974 75.5163 95.4063 75.2525 95.9544C74.7248 97.0199 73.578 98.0145 70.8278 97.5984L71.0206 97.8115Z" fill="#3C99D4"/>
</svg>
