<svg width="101" height="101" viewBox="0 0 101 101" fill="none" xmlns="http://www.w3.org/2000/svg">
<path d="M10.1886 50.5056C10.1886 28.403 28.1063 10.4854 50.2089 10.4854C72.3114 10.4854 90.2291 28.403 90.2291 50.5056C90.2291 72.6082 72.3114 90.5259 50.2089 90.5259C28.1063 90.5259 10.1886 72.6082 10.1886 50.5056Z" fill="white"/>
<path d="M50.2089 0.505859C22.5936 0.505859 0.208862 22.8906 0.208862 50.5059C0.208862 78.1211 22.5936 100.506 50.2089 100.506C77.8241 100.506 100.209 78.1211 100.209 50.5059C100.209 22.8906 77.8241 0.505859 50.2089 0.505859ZM68.4828 59.995C66.2219 65.3667 62.0306 70.2863 54.2741 70.2863C54.2741 70.2863 50.9849 47.3667 50.9349 46.8406C50.7328 47.3928 46.0893 59.4428 46.0893 59.4428C43.9045 65.0146 39.7371 70.2602 31.9806 70.2863L25.9067 33.2341C30.9523 33.2341 37.1784 37.3754 37.6306 44.2037C37.6306 44.2037 38.4089 57.7841 38.4349 58.8646C38.861 57.7102 44.1328 44.0537 44.1328 44.0537C46.2176 38.4559 50.1589 33.2102 57.5632 33.2102C57.5632 33.2102 60.7263 57.6602 60.8523 58.8146C61.1784 57.6602 65.5219 44.0537 65.5219 44.0537C67.6045 38.4559 71.6458 33.2102 79.3263 33.2102L68.4828 59.995Z" fill="black"/>
</svg>
