<svg width="101" height="101" viewBox="0 0 101 101" fill="none" xmlns="http://www.w3.org/2000/svg">
<path d="M50.1406 0.585938C22.5344 0.585938 0.140564 22.9798 0.140564 50.5859C0.140564 78.1921 22.5344 100.586 50.1406 100.586C77.7467 100.586 100.141 78.1921 100.141 50.5859C100.141 22.9798 77.7467 0.585938 50.1406 0.585938Z" fill="#368FB9"/>
<path d="M79.5614 68.5782C76.4726 69.3118 74.9089 69.9875 71.0865 72.4778C65.1213 76.3388 58.5962 78.1342 58.5962 78.1342C58.5962 78.1342 58.0556 78.945 56.4919 79.3118C53.7892 79.9682 43.6155 80.528 42.6888 80.5473C40.1985 80.5666 38.6734 79.9103 38.2487 78.8871C36.9552 75.7983 40.102 74.4469 40.102 74.4469C40.102 74.4469 39.407 74.0222 39.0016 73.6361C38.6348 73.2693 38.2487 72.5357 38.1328 72.806C37.6502 73.9836 37.3993 76.8601 36.1058 78.1535C34.3298 79.9489 30.9707 79.3504 28.9823 78.3079C26.8008 77.1496 29.1367 74.4276 29.1367 74.4276C29.1367 74.4276 27.9591 75.1226 27.0132 73.694C26.1637 72.3813 25.3722 70.1419 25.5846 67.3813C25.8162 64.2346 29.3298 61.1844 29.3298 61.1844C29.3298 61.1844 28.712 56.5319 30.739 51.7635C32.573 47.4199 37.5151 43.9257 37.5151 43.9257C37.5151 43.9257 33.3645 39.3311 34.9089 35.1998C35.9128 32.4971 36.3182 32.5164 36.6464 32.4006C37.8047 31.9566 38.9243 31.474 39.7545 30.5666C43.905 26.0879 49.1946 26.9373 49.1946 26.9373C49.1946 26.9373 51.7043 19.3118 54.0209 20.7983C54.7352 21.2616 57.3027 26.9759 57.3027 26.9759C57.3027 26.9759 60.044 25.3736 60.3529 25.972C62.0132 29.196 62.2062 35.3543 61.4726 39.0995C60.2371 45.2771 57.1483 48.5975 55.9128 50.6825C55.6232 51.1651 59.2332 52.6902 61.5112 59.0029C63.6155 64.7751 61.7429 69.6207 62.0711 70.1612C62.129 70.2577 62.1483 70.2964 62.1483 70.2964C62.1483 70.2964 64.5614 70.4894 69.407 67.4971C71.9938 65.8948 75.0633 64.0995 78.5576 64.0608C81.9359 64.0029 82.1097 67.9604 79.5614 68.5782ZM84.156 65.7404C83.8085 62.9991 81.4919 61.1072 78.5189 61.1458C74.0788 61.2037 70.3529 63.501 67.8819 65.0261C66.9166 65.6245 66.0865 66.0686 65.3722 66.3967C65.5267 64.1574 65.3915 61.223 64.2332 57.9991C62.824 54.1381 60.9321 51.7635 59.5807 50.3929C61.1444 48.1149 63.2873 44.7944 64.2911 39.6593C65.1599 35.2771 64.8896 28.4624 62.9012 24.64C62.4958 23.8678 61.8201 23.3079 60.9707 23.0763C60.6232 22.9798 59.9668 22.7867 58.6734 23.1535C56.7236 19.1188 56.0479 18.694 55.5267 18.3466C54.4456 17.6516 53.1715 17.4971 51.9745 17.9412C50.3722 18.5203 49.0016 20.0647 47.7081 22.806C47.5151 23.2114 47.3413 23.5975 47.1869 23.9836C44.7352 24.1574 40.8742 25.0454 37.6116 28.5782C37.2062 29.0222 36.4147 29.3504 35.5846 29.6593H35.6039C33.905 30.2578 33.1328 31.6477 32.1869 34.1574C30.8742 37.6709 32.2255 41.1265 33.5576 43.3659C31.7429 44.9875 29.3298 47.5744 28.0556 50.6052C26.4726 54.3504 26.2989 58.0184 26.3568 60.0068C25.0054 61.4354 22.9205 64.1188 22.6888 67.1303C22.3799 71.3388 23.905 74.196 24.5807 75.2384C24.7738 75.5473 24.9861 75.7983 25.2178 76.0493C25.1406 76.5705 25.1213 77.1303 25.2371 77.7095C25.4881 79.0608 26.3375 80.1612 27.6309 80.8562C30.1792 82.2076 33.7313 82.7867 36.4726 81.416C37.4572 82.4585 39.2525 83.4624 42.5151 83.4624H42.7081C43.5382 83.4624 54.0788 82.9025 57.1483 82.1496C58.5189 81.8215 59.4649 81.2423 60.0826 80.7211C62.0518 80.1033 67.4958 78.25 72.6309 74.9296C76.2603 72.5743 77.5151 72.0724 80.2178 71.4161C82.8433 70.779 84.4842 68.3852 84.156 65.7404Z" fill="white"/>
</svg>
